<ttFont>
          <CharString index="0">
            -106 callsubr
            143 hlineto
            -25 callsubr
            return
          </CharString>
          <CharString index="1">
            -103 callsubr
            -83 callsubr
            return
          </CharString>
          <CharString index="2">
            -104 callgsubr
            288 39 27 41 28 30 18 rlinecurve
            return
          </CharString>
          <CharString index="3">
            rmoveto
            -103 callgsubr
            return
          </CharString>
          <CharString index="4">
            -102 callsubr
            4 394 return
          </CharString>
          <CharString index="5">
            90 -69 134 -12 39 42 rlinecurve
            return
          </CharString>
          <CharString index="6">
            35 callsubr
            -89 callgsubr
            return
          </CharString>
          <CharString index="7">
            -36 32 -60 11 -117 -12 return
          </CharString>
          <CharString index="8">
            hlineto
            -100 callsubr
            return
          </CharString>
          <CharString index="9">
            70 61 -6 63 -31 42 -72 19 rlinecurve
            -97 callsubr
            return
          </CharString>
          <CharString index="10">
            15 callsubr
            rrcurveto
            -125 -50 -125 -104 -97 -94 callsubr
            return
          </CharString>
          <CharString index="11">
            124 23 39 86 -33 49 -89 34 -35 34 -26 52 rrcurveto
            47 4 55 67 25 hhcurveto
            30 21 -22 -23 7 hvcurveto
            -21 -10 -20 -10 return
          </CharString>
          <CharString index="12">
            -91 callgsubr
            -1 callgsubr
            53 -67 rlineto
            -22 callgsubr
            -46 callsubr
            478 -101 callgsubr
          </CharString>
          <CharString index="13">
            vvcurveto
            -76 112 104 callsubr
            vhcurveto
            -98 callgsubr
            return
          </CharString>
          <CharString index="14">
            172 callsubr
            79 9 70 19 61 24 51 43 28 80 -20 48 -17 13 -17 12 -18 11 rrcurveto
            306 -101 callgsubr
          </CharString>
          <CharString index="15">
            -17 -12 -12 -18 -8 -13 20 -19 rcurveline
            260 hlineto
            31 -77 5 -31 0 -36 -4 -36 rlinecurve
            -82 -27 -78 -23 -59 -11 -46 -23 -9 -45 216 callsubr
            65 -55 65 -19 71 -11 103 21 40 49 52 106 33 188 1 140 rrcurveto
            return
          </CharString>
          <CharString index="16">
            rcurveline
            -94 callgsubr
            return
          </CharString>
          <CharString index="17">
            -18 -50 47 -53 88 -22 19 10 22 9 22 6 21 5 22 1 21 -5 return
          </CharString>
          <CharString index="18">
            -100 callsubr
            -37 callsubr
            -522 -106 callgsubr
            146 -80 callsubr
            return
          </CharString>
          <CharString index="19">
            rmoveto
            0 vlineto
            -49 -40 -60 -47 -45 -34 159 callgsubr
            48 42 62 72 34 vhcurveto
            25 -19 30 -31 24 -26 rrcurveto
            return
          </CharString>
          <CharString index="20">
            -29 callgsubr
            97 60 128 97 115 callsubr
            82 -53 118 -10 40 40 -49 callgsubr
          </CharString>
          <CharString index="21">
            hlineto
            -89 callsubr
            return
          </CharString>
          <CharString index="22">
            -62 callsubr
            -46 -112 -25 -88 -19 -117 6 -77 100 -42 113 -6 return
          </CharString>
          <CharString index="23">
            rmoveto
            99 -94 94 43 34 67 -40 89 rlinecurve
            -239 17 -136 -3 -244 -20 -17 -17 -3 -35 10 -31 30 -7 23 -8 21 -8 11 -136 rcurveline
            -36 -152 -24 -59 -54 -149 6 -67 54 -42 103 -24 405 24 rcurveline
            43 52 22 88 -76 24 -101 -27 -126 -22 -99 -16 35 203 rcurveline
            88 -1 80 -6 77 -8 25 44 17 62 -43 33 -80 -7 -71 -13 -81 -12 26 136 rcurveline
            31 74 rlineto
            11 60 32 -3 44 hhcurveto
            return
          </CharString>
          <CharString index="24">
            80 146 rlineto
            return
          </CharString>
          <CharString index="25">
            rmoveto
            23 128 24 154 15 136 rrcurveto
            12 -24 -31 6 -37 hhcurveto
            -51 -62 -13 -29 -60 hvcurveto
            44 -238 -20 -152 -28 -96 -57 -107 rlinecurve
            -180 11 99 135 20 hvcurveto
            16 101 37 127 49 155 rrcurveto
            12 -25 -31 6 -36 hhcurveto
            -51 -62 -13 -29 -60 hvcurveto
            -18 -184 -17 -134 -34 -177 rrcurveto
            -127 19 111 -101 173 hhcurveto
            195 111 132 197 36 hvcurveto
            return
          </CharString>
          <CharString index="26">
            -32 42 -60 3 -135 -14 -37 callsubr
            -160 -70 callsubr
            -50 callgsubr
            return
          </CharString>
          <CharString index="27">
            hlineto
            -46 -112 -25 -88 -19 -117 -91 callgsubr
            return
          </CharString>
          <CharString index="28">
            rmoveto
            -27 62 -67 11 -141 -23 -27 -73 -18 -91 -17 -100 -29 -43 -39 -38 -49 -48 -45 13 -20 14 -6 24 rrcurveto
            47 84 46 138 69 vvcurveto
            -45 66 -124 12 -86 -30 8 -69 6 -88 9 -76 -78 -151 rcurveline
            15 -67 53 -73 198 -22 58 66 42 45 37 48 12 -10 rcurveline
            -43 -91 81 -66 146 -11 41 50 rlinecurve
            183 callgsubr
            rrcurveto
            endchar
          </CharString>
          <CharString index="29">
            -20 64 -3 91 30 18 46 -70 callgsubr
            return
          </CharString>
          <CharString index="30">
            -16 callsubr
            3 8 rcurveline
            78 callgsubr
            78 -89 117 -106 33 hvcurveto
            -93 -10 -90 -54 -44 -70 rrcurveto
            939 hmoveto
            -47 callgsubr
          </CharString>
          <CharString index="31">
            -83 callsubr
            143 -101 callgsubr
          </CharString>
          <CharString index="32">
            17 38 18 11 -7 -91 callsubr
            return
          </CharString>
          <CharString index="33">
            74 63 68 61 68 62 8 -8 rcurveline
            -37 -60 -39 -177 -102 callsubr
            return
          </CharString>
          <CharString index="34">
            23 -69 77 -85 98 -63 57 23 29 31 -5 39 -46 54 -20 30 -16 45 2 14 6 13 8 10 return
          </CharString>
          <CharString index="35">
            -48 -44 -48 -44 -46 -40 -14 11 rcurveline
            41 59 40 55 37 58 rrcurveto
            return
          </CharString>
          <CharString index="36">
            -32 42 -60 3 -135 -14 -37 callsubr
            -138 -106 callgsubr
            -50 callgsubr
            return
          </CharString>
          <CharString index="37">
            -102 callgsubr
            -90 -106 callgsubr
            94 hlineto
            -23 -104 -75 -37 -75 -37 -75 -38 rlinecurve
            -48 18 -60 9 -70 -2 -3 10 rcurveline
            109 13 132 48 39 111 -28 63 -42 50 -74 24 -114 11 -80 -12 -98 -44 -43 -50 41 -70 92 -30 56 36 41 16 65 5 6 -10 rcurveline
            -27 -36 -41 -40 -77 -27 -32 1 -32 2 -32 1 -41 -28 0 -91 75 -52 30 8 269 callsubr
            15 -4 15 -4 16 -3 rrcurveto
            -218 -70 -161 -8 -74 vvcurveto
            -50 105 -71 120 -11 vhcurveto
            157 -3 255 102 127 vvcurveto
            28 -12 26 -22 21 vhcurveto
            155 65 2 -6 -36 -42 -56 -258 -106 callsubr
            return
          </CharString>
          <CharString index="38">
            -86 -102 callsubr
            return
          </CharString>
          <CharString index="39">
            rmoveto
            -32 15 -30 23 -19 34 42 13 43 14 44 15 -9 -40 -13 -37 -14 -31 rrcurveto
            return
          </CharString>
          <CharString index="40">
            -81 -56 -59 -96 -14 -75 -44 callgsubr
            return
          </CharString>
          <CharString index="41">
            65 -103 167 -112 151 -23 -78 callgsubr
          </CharString>
          <CharString index="42">
            rmoveto
            5 -75 34 -74 59 -59 rrcurveto
            58 7 27 23 46 vvcurveto
            -53 53 -17 47 -16 92 -47 41 -26 10 -75 -6 -70 -43 -88 -89 -61 -102 3 -44 38 -42 93 10 37 97 31 54 60 58 rrcurveto
            return
          </CharString>
          <CharString index="43">
            hhcurveto
            -14 116 callsubr
            return
          </CharString>
          <CharString index="44">
            rmoveto
            171 callgsubr
            -11 5 rcurveline
            -48 callgsubr
            return
          </CharString>
          <CharString index="45">
            -106 callgsubr
            141 hlineto
            return
          </CharString>
          <CharString index="46">
            hlineto
            -90 callsubr
            return
          </CharString>
          <CharString index="47">
            hlineto
            -28 -131 rlineto
            -73 callgsubr
            return
          </CharString>
          <CharString index="48">
            143 callsubr
            18 51 43 28 80 -20 48 283 callsubr
            return
          </CharString>
          <CharString index="49">
            154 rmoveto
            40 47 45 46 46 29 24 69 -44 61 -87 42 -24 -8 -43 -17 -29 -6 -7 10 rcurveline
            51 44 95 64 94 30 rrcurveto
            200 hlineto
            -13 -2 -14 -3 -13 vhcurveto
            -12 5 -11 3 -11 3 -57 -5 -65 -45 -36 -53 -19 -76 41 -74 43 -62 -67 -37 -78 -29 -75 -10 rrcurveto
            293 243 rmoveto
            5 9 7 6 8 2 16 -3 35 -19 14 -25 -11 -20 -18 -21 -22 -21 -21 31 -15 30 2 31 rrcurveto
            return
          </CharString>
          <CharString index="50">
            rmoveto
            -11 -10 -13 -11 -14 -11 -40 32 -37 35 -28 31 17 14 19 13 18 8 31 -21 36 -35 25 -29 rrcurveto
            -215 -69 rmoveto
            -55 callgsubr
            return
          </CharString>
          <CharString index="51">
            20 -46 14 -66 7 -67 -19 -85 -35 -37 -48 -21 -28 22 -15 37 -6 55 21 76 30 60 39 72 rrcurveto
            return
          </CharString>
          <CharString index="52">
            99 -3 -128 97 -82 hhcurveto
            -87 -45 -23 -46 -53 hvcurveto
            -11 -51 21 -33 86 -33 35 35 24 15 28 13 rrcurveto
            24 -29 10 -33 -36 vvcurveto
            -14 -47 -19 -30 -43 -33 -23 24 -18 27 -7 33 -44 27 -70 -32 -38 -52 19 -84 74 -61 81 -14 93 4 116 82 50 92 return
          </CharString>
          <CharString index="53">
            -21 -86 90 -69 134 -12 39 42 93 callsubr
          </CharString>
          <CharString index="54">
            rmoveto
            -40 23 -26 15 -18 37 41 22 44 15 45 8 -11 -49 -13 -47 -10 -18 rrcurveto
            76 426 -63 callgsubr
            return
          </CharString>
          <CharString index="55">
            rmoveto
            118 -28 103 -21 131 -31 108 65 35 40 26 78 -20 69 -68 35 -128 -27 -8 -40 -4 -21 -19 -42 -62 -2 -106 7 -60 6 -1 8 rcurveline
            129 104 305 218 82 147 -13 108 -88 11 -107 -1 -29 -82 rcurveline
            -83 26 -107 31 -115 27 -93 -32 -57 -61 -36 -88 27 -66 66 -27 117 12 14 45 19 36 35 39 73 -15 63 -9 31 -4 6 -9 rcurveline
            -110 -167 -393 -187 -142 vvcurveto
            -32 8 -30 32 -24 vhcurveto
            76 -10 54 8 52 34 -9 41 rcurveline
            return
          </CharString>
          <CharString index="56">
            -7 -4 rlineto
            39 -36 -55 62 -22 hhcurveto
            return
          </CharString>
          <CharString index="57">
            rmoveto
            -34 15 -30 23 -18 33 42 13 43 14 43 15 -9 -40 -12 -37 -13 -30 rrcurveto
            return
          </CharString>
          <CharString index="58">
            rmoveto
            23 -19 28 -36 -19 -69 -33 -18 -48 -22 -51 -18 3 57 24 60 52 55 rrcurveto
            103 125 rmoveto
            114 callgsubr
            103 8 151 40 66 65 14 68 -32 22 -47 -2 181 callsubr
            rrcurveto
            101 20 144 52 77 39 56 131 -42 115 -159 12 rrcurveto
            return
          </CharString>
          <CharString index="59">
            -38 -24 -18 -53 11 -66 -44 callsubr
            return
          </CharString>
          <CharString index="60">
            15 71 -43 47 -78 28 -30 -18 -32 -13 -46 -15 rrcurveto
            -16 15 -16 11 34 3 0 2 3 vvcurveto
            44 -19 return
          </CharString>
          <CharString index="61">
            -62 -57 -62 -56 -59 -50 -13 13 rcurveline
            76 callgsubr
            return
          </CharString>
          <CharString index="62">
            -24 30 24 -16 hvcurveto
            -95 callgsubr
            -33 -23 -30 -30 -25 -33 rrcurveto
            -36 -34 -59 -28 -36 -64 callsubr
            19 1 21 6 21 9 rlinecurve
            7 -111 94 -80 204 callsubr
            return
          </CharString>
          <CharString index="63">
            40 -54 67 -35 84 -6 callsubr
            return
          </CharString>
          <CharString index="64">
            -17 -12 -12 -18 -8 -13 20 -19 rcurveline
            260 hlineto
            36 -90 2 -29 -1 -30 -3 -30 rlinecurve
            -83 -28 -80 -23 -58 34 callgsubr
            return
          </CharString>
          <CharString index="65">
            rmoveto
            -17 19 -12 27 17 vvcurveto
            22 37 33 30 11 vhcurveto
            37 -26 5 -35 -35 vvcurveto
            -21 -5 -19 -8 -17 vhcurveto
            return
          </CharString>
          <CharString index="66">
            22 40 28 40 15 vhcurveto
            31 -28 12 -34 12 -46 111 -17 57 36 4 64 -39 59 -49 41 -107 12 -136 -7 -106 -70 -59 -117 44 -131 242 -65 1 -43 rrcurveto
            -30 -49 -32 -43 -12 vhcurveto
            -35 46 -10 21 -10 64 -101 35 -53 -68 -25 -70 42 -65 80 -34 106 -9 146 5 125 69 34 123 rrcurveto
            return
          </CharString>
          <CharString index="67">
            112 callgsubr
            -45 -106 -16 -58 -19 -117 7 callgsubr
            return
          </CharString>
          <CharString index="68">
            -112 165 -42 10 -44 -19 -14 -30 rlinecurve
            132 -192 60 -32 82 15 70 29 rlinecurve
            return
          </CharString>
          <CharString index="69">
            rmoveto
            -731 -106 callgsubr
            349 hlineto
            29 -11 26 -13 18 -12 callsubr
            58 103 -5 61 -52 32 -80 11 -106 14 162 callgsubr
            215 -101 callgsubr
          </CharString>
          <CharString index="70">
            -7 -31 rcurveline
            return
          </CharString>
          <CharString index="71">
            37 45 rlineto
            28 -2 17 -13 39 vhcurveto
            -55 9 -88 -5 -74 -62 38 -158 rcurveline
            -26 -91 -31 -90 -43 -103 31 250 callsubr
            11 104 7 86 -1 84 50 45 38 32 51 29 24 -15 6 -15 7 -22 -21 -63 -34 -141 -6 -97 80 -66 141 -11 44 50 rrcurveto
            -21 74 -8 93 58 vvcurveto
            return
          </CharString>
          <CharString index="72">
            40 callgsubr
            -35 -161 171 callgsubr
            rlinecurve
            return
          </CharString>
          <CharString index="73">
            rrcurveto
            -22 -112 -224 -7 -78 vvcurveto
            -78 132 -82 75 -1 vhcurveto
            75 -1 108 84 84 77 10 -11 -28 callsubr
          </CharString>
          <CharString index="74">
            252 callgsubr
            -43 30 -64 31 -56 20 22 40 8 46 -13 32 47 callgsubr
          </CharString>
          <CharString index="75">
            -72 34 -25 47 42 vvcurveto
            32 15 28 19 16 vhcurveto
            73 8 65 17 57 21 19 -13 17 -17 11 -17 -5 -82 -63 -80 -111 -36 rrcurveto
            return
          </CharString>
          <CharString index="76">
            rmoveto
            -7 -56 -53 -40 -68 -51 -57 -39 rlinecurve
            -23 16 -14 31 1 44 2 71 47 72 88 45 29 -15 31 -34 23 -45 rrcurveto
            -17 -189 rmoveto
            -43 -67 -9 -79 -6 -65 -20 -89 rlinecurve
            -13 -25 -37 -16 -36 1 -41 56 -11 30 -11 54 -76 44 -89 -29 -58 -91 29 -93 76 -55 117 -54 169 9 114 38 76 118 11 129 19 190 26 163 102 176 rcurveline
            -31 66 -61 14 -140 -30 rrcurveto
            -16 -27 -3 -32 -45 vvcurveto
            -25 43 -32 45 -33 29 -245 -3 -148 -179 -5 -145 -3 -113 80 -99 194 -8 50 50 63 58 50 47 rrcurveto
            endchar
          </CharString>
          <CharString index="77">
            51 callgsubr
            147 hlineto
            -114 286 callgsubr
            return
          </CharString>
          <CharString index="78">
            rrcurveto
            -43 -23 -11 -42 -58 vvcurveto
            36 callgsubr
            return
          </CharString>
          <CharString index="79">
            rcurveline
            -47 -60 -24 -107 -107 callgsubr
          </CharString>
          <CharString index="80">
            -25 callsubr
            -12 15 rcurveline
            return
          </CharString>
          <CharString index="81">
            -73 callsubr
            65 19 76 30 73 48 7 -12 rcurveline
            -37 -52 -50 -228 -107 callgsubr
          </CharString>
          <CharString index="82">
            17 12 8 18 4 17 return
          </CharString>
          <CharString index="83">
            rmoveto
            -77 -46 -102 -27 -101 -5 -27 72 -72 66 -111 -5 -72 callsubr
            552 hlineto
            -827 -243 -96 callgsubr
            1222 -21 callsubr
            -568 -105 callgsubr
            201 callsubr
            0 vlineto
            -9 -22 -9 -27 -8 -33 -26 callsubr
          </CharString>
          <CharString index="84">
            -48 -243 -88 callsubr
            return
          </CharString>
          <CharString index="85">
            rmoveto
            -166 -99 callsubr
            -4 -31 rcurveline
            return
          </CharString>
          <CharString index="86">
            291 -104 callsubr
            return
          </CharString>
          <CharString index="87">
            rmoveto
            -842 -106 callgsubr
            144 hlineto
            18 -139 -22 -86 -40 -78 -41 -75 rlinecurve
            -5 -82 80 -58 121 -14 132 85 rcurveline
            18 -9 -2 -69 -25 -63 -36 -50 -59 -63 rlinecurve
            1 -72 67 -41 106 1 73 130 48 128 5 152 -38 59 -79 42 -82 -17 -115 -70 rcurveline
            -14 9 51 105 40 129 9 146 rlinecurve
            162 hlineto
            17 -84 -4 -53 -15 -38 -32 -48 rlinecurve
            17 -39 50 -33 79 -8 66 96 27 101 -4 106 rrcurveto
            124 -101 callgsubr
          </CharString>
          <CharString index="88">
            -20 -26 callgsubr
            return
          </CharString>
          <CharString index="89">
            -17 callgsubr
            endchar
          </CharString>
          <CharString index="90">
            195 callgsubr
            65 19 76 30 73 48 7 -12 rcurveline
            -37 -52 -50 -228 -107 callgsubr
          </CharString>
          <CharString index="91">
            92 40 47 112 -57 52 -113 4 -46 12 -77 43 return
          </CharString>
          <CharString index="92">
            193 callsubr
            31 callgsubr
            return
          </CharString>
          <CharString index="93">
            -6 -5 -43 49 -54 55 -17 -2 rlinecurve
            return
          </CharString>
          <CharString index="94">
            33 callsubr
            101 41 98 73 70 68 12 -9 rcurveline
            -40 -67 -26 -120 -107 callgsubr
          </CharString>
          <CharString index="95">
            212 callsubr
            97 -21 85 -12 91 -19 25 callsubr
            return
          </CharString>
          <CharString index="96">
            hlineto
            -23 callsubr
            return
          </CharString>
          <CharString index="97">
            rmoveto
            54 43 44 53 52 250 callgsubr
            -52 -53 45 -44 55 hvcurveto
            283 hmoveto
            53 43 44 53 52 -43 43 -53 -55 -46 -43 -52 -53 46 -44 55 hvcurveto
            return
          </CharString>
          <CharString index="98">
            107 callsubr
            rlineto
            2 -14 2 -15 -16 vvcurveto
            -79 -27 -77 -21 -57 -11 -43 -23 -15 -50 -2 -51 24 -58 66 -55 86 -24 60 -2 103 23 40 47 51 91 28 173 -1 110 rrcurveto
            return
          </CharString>
          <CharString index="99">
            -29 callgsubr
            97 60 128 97 115 callsubr
            82 -53 118 -10 40 40 93 callsubr
          </CharString>
          <CharString index="100">
            rmoveto
            -40 22 -16 21 -16 36 return
          </CharString>
          <CharString index="101">
            -19 callsubr
            22 64 6 85 -19 75 return
          </CharString>
          <CharString index="102">
            90 callsubr
            260 callgsubr
            -58 -74 vvcurveto
            -33 callsubr
          </CharString>
          <CharString index="103">
            126 callsubr
            62 26 66 31 59 38 8 -10 rcurveline
            -47 -56 -52 -240 -107 callgsubr
          </CharString>
          <CharString index="104">
            rmoveto
            23 -19 28 -36 -19 -69 -33 -18 -48 -22 -51 -18 3 57 24 60 52 55 rrcurveto
            183 -247 rmoveto
            181 callsubr
            101 20 144 52 77 39 56 131 -42 115 -159 12 return
          </CharString>
          <CharString index="105">
            -54 -14 -36 -31 -22 -37 13 -43 66 -23 48 3 32 36 rcurveline
            34 -7 32 -13 32 -16 46 2 26 26 5 17 return
          </CharString>
          <CharString index="106">
            -27 -27 -51 -27 -31 hhcurveto
            -14 -37 34 20 -16 hvcurveto
            -72 6 -53 -47 -12 -92 12 -7 11 -8 12 -7 -4 -37 -48 -42 -41 -7 rrcurveto
            -17 24 -9 34 30 vvcurveto
            48 30 40 49 38 vhcurveto
            65 -63 47 -97 vhcurveto
            -74 -58 -38 -81 -7 -74 17 -112 94 -80 96 -33 104 5 133 62 15 84 return
          </CharString>
          <CharString index="107">
            rmoveto
            -40 23 -16 21 -17 38 25 14 27 11 27 9 14 -36 3 -40 -11 -34 rrcurveto
            return
          </CharString>
          <CharString index="108">
            -106 callgsubr
            260 hlineto
            return
          </CharString>
          <CharString index="109">
            hlineto
            36 -19 31 -24 18 -17 -5 -10 rcurveline
            -132 -115 -232 29 return
          </CharString>
          <CharString index="110">
            -102 callgsubr
            -479 -106 callgsubr
            483 hlineto
            -34 -156 19 -34 -10 -10 rlineto
            93 -71 -82 77 -68 282 callsubr
            -14 -64 49 -48 109 -28 161 callsubr
            return
          </CharString>
          <CharString index="111">
            hlineto
            -27 callsubr
            return
          </CharString>
          <CharString index="112">
            39 704 329 -82 callsubr
            return
          </CharString>
          <CharString index="113">
            63 -128 40 -17 97 -25 72 62 rlinecurve
            -111 179 -54 31 -65 10 -86 -14 rlinecurve
            return
          </CharString>
          <CharString index="114">
            rmoveto
            -59 -11 -29 -46 12 -76 113 -20 115 -40 93 -51 32 23 13 19 -2 29 -66 63 -127 85 -95 25 rrcurveto
            return
          </CharString>
          <CharString index="115">
            rmoveto
            169 callsubr
            -17 -15 -15 -15 -13 -15 -7 -6 -7 -6 -7 -5 141 callsubr
            41 53 rcurveline
            332 60 callsubr
            rrcurveto
            -88 -398 10 callgsubr
            -464 140 -31 callgsubr
            965 385 rmoveto
            -1202 -85 callsubr
            55 47 51 227 callgsubr
            -33 callsubr
          </CharString>
          <CharString index="116">
            rrcurveto
            -55 callsubr
            return
          </CharString>
          <CharString index="117">
            rmoveto
            -72 -9 -39 -54 9 -94 137 -33 136 -58 110 -69 rrcurveto
            41 25 17 24 35 vvcurveto
            -76 82 -148 113 -115 38 rrcurveto
            return
          </CharString>
          <CharString index="118">
            30 callgsubr
            515 229 rmoveto
            -27 callsubr
            -263 67 callgsubr
            194 callsubr
          </CharString>
          <CharString index="119">
            -96 callgsubr
            722 291 rmoveto
            -453 hlineto
            -36 32 -60 11 -117 -12 -4 -31 rcurveline
            -492 hlineto
            -17 -12 -12 -18 -8 -13 20 -19 rcurveline
            500 45 callsubr
          </CharString>
          <CharString index="120">
            -61 callgsubr
            210 hlineto
            -62 -22 -56 -27 -33 -33 -20 -72 84 -57 64 -21 52 9 39 15 38 15 8 -8 rcurveline
            -65 -51 -159 -19 -46 vvcurveto
            -69 77 -76 104 -20 vhcurveto
            return
          </CharString>
          <CharString index="121">
            rmoveto
            -500 -102 callgsubr
            return
          </CharString>
          <CharString index="122">
            -34 8 -43 4 -54 -3 return
          </CharString>
          <CharString index="123">
            232 callgsubr
            27 -1 22 9 15 17 rrcurveto
            131 -45 -118 170 -86 hhcurveto
            -65 -74 -41 -39 -52 hvcurveto
            -20 -60 49 -66 110 -48 rrcurveto
            return
          </CharString>
          <CharString index="124">
            196 callgsubr
            -559 -106 callgsubr
            561 hlineto
            5 -18 8 -16 8 -15 -156 -64 -241 -100 -105 119 callgsubr
            77 32 79 32 68 28 rrcurveto
            11 -9 12 -9 13 -9 151 callgsubr
            return
          </CharString>
          <CharString index="125">
            -99 callsubr
            -4 -31 rcurveline
            -980 -106 callgsubr
            988 130 callgsubr
            -51 callsubr
            -86 -89 -42 -60 -61 hvcurveto
            -54 -47 -41 -30 -55 -37 -10 7 rcurveline
            -98 callsubr
            24 20 23 18 20 17 rrcurveto
            -101 12 110 -53 128 hhcurveto
            55 59 42 38 47 43 10 -13 rcurveline
            -44 -64 -21 -69 callsubr
            3 288 39 27 41 28 30 18 rlinecurve
            return
          </CharString>
          <CharString index="126">
            -61 callgsubr
            211 hlineto
            -63 -23 -56 -29 -45 -34 -29 -68 64 -86 80 -36 43 14 46 15 32 13 7 -12 rcurveline
            -92 -53 -75 -65 1 -62 1 -70 82 -62 106 -23 rrcurveto
            189 16 336 203 149 vvcurveto
            return
          </CharString>
          <CharString index="127">
            6 105 -59 44 -80 -10 -28 -51 -53 -56 -58 -29 rrcurveto
            -55 24 -21 34 34 vvcurveto
            21 7 18 14 14 vhcurveto
            71 7 62 17 56 21 47 37 28 71 -22 44 -9 6 -8 6 -9 6 rrcurveto
            288 -101 callgsubr
          </CharString>
          <CharString index="128">
            -156 -165 -134 -137 -119 113 -65 144 hvcurveto
            return
          </CharString>
          <CharString index="129">
            rmoveto
            248 callgsubr
            -32 33 -11 28 -1 32 rrcurveto
            397 246 rmoveto
            -990 19 callsubr
            78 -107 70 -116 22 vhcurveto
            -60 -13 -53 -48 -33 -55 4 -70 44 -64 62 -44 -84 -56 -101 -43 -78 -11 -9 9 rcurveline
            24 42 69 77 48 36 20 83 -58 50 -76 33 -34 -8 -31 -17 -29 -6 -7 10 rcurveline
            51 44 103 64 94 30 rrcurveto
            510 -101 callgsubr
          </CharString>
          <CharString index="130">
            20 84 642 rmoveto
            60 -80 77 -131 68 -134 -19 -78 -28 -93 -26 -71 36 -55 164 -21 61 52 8 125 5 86 12 101 73 82 82 71 43 58 42 56 24 40 6 63 -46 57 -102 18 -122 -59 51 -202 rcurveline
            -112 -128 -33 -65 rlineto
            -9 hlineto
            -65 194 rlineto
            225 vlineto
            -94 32 -92 -29 -64 -114 rrcurveto
            return
          </CharString>
          <CharString index="131">
            2 6 rcurveline
            74 7 49 12 68 27 27 callgsubr
            return
          </CharString>
          <CharString index="132">
            3 -9 rcurveline
            -33 -33 -66 -27 -54 -7 -21 18 -18 26 -10 18 -72 18 -67 -59 -35 -90 56 -69 55 -109 32 -100 116 -9 68 51 2 47 -37 56 -35 42 -53 45 9 9 rcurveline
            49 -31 192 callgsubr
            rlinecurve
            return
          </CharString>
          <CharString index="133">
            rlineto
            -137 62 callgsubr
            return
          </CharString>
          <CharString index="134">
            209 callsubr
            83 callgsubr
            return
          </CharString>
          <CharString index="135">
            rmoveto
            2 -170 -30 -138 -38 -126 -54 -145 rlinecurve
            19 -63 66 -44 75 -25 364 44 rcurveline
            31 35 19 88 -69 29 -90 -28 -74 -22 -100 -19 38 307 rcurveline
            105 301 -66 32 -107 -12 -91 -44 rlinecurve
            endchar
          </CharString>
          <CharString index="136">
            458 rmoveto
            -56 -57 -67 -54 -61 74 callsubr
            return
          </CharString>
          <CharString index="137">
            rmoveto
            116 86 48 92 6 91 -17 48 -84 58 -94 -71 17 -169 rcurveline
            -63 -93 9 -27 22 -14 40 -1 rlinecurve
            return
          </CharString>
          <CharString index="138">
            -10 7 -98 callsubr
            return
          </CharString>
          <CharString index="139">
            43 callsubr
            13 107 23 131 41 112 -37 59 -67 32 -64 -13 -14 -33 -23 -33 -39 -27 241 callsubr
            return
          </CharString>
          <CharString index="140">
            8 -9 rcurveline
            -118 -63 -134 -9 -72 vvcurveto
            -64 106 -72 102 -16 vhcurveto
            return
          </CharString>
          <CharString index="141">
            -78 -46 -38 -28 -58 -70 -4 -45 60 -26 39 9 74 88 rcurveline
            8 2 43 -37 50 -41 114 -14 rlinecurve
            89 29 58 71 32 48 3 37 -44 20 -44 -8 return
          </CharString>
          <CharString index="142">
            -106 callgsubr
            136 hlineto
            -21 -48 46 -57 83 -27 rrcurveto
            31 50 58 22 43 hhcurveto
            14 13 -2 -6 10 hvcurveto
            -10 -58 -97 -72 -123 -25 100 callgsubr
            return
          </CharString>
          <CharString index="143">
            130 347 320 rmoveto
            3 9 3 9 3 9 139 -7 rcurveline
            37 54 -10 51 -49 21 -86 -19 rcurveline
            20 65 17 57 16 53 126 -11 30 -82 -3 -127 -2 -102 -57 -100 -86 -69 -33 -15 -41 -9 -55 -5 rrcurveto
            -119 492 rmoveto
            -4 -143 -3 -14 -4 -13 -3 -13 rlinecurve
            -123 16 -35 -37 -4 -48 55 -49 rlinecurve
            73 15 -22 -58 -26 -55 -30 -62 32 callgsubr
          </CharString>
          <CharString index="144">
            rmoveto
            6 32 13 28 12 17 rrcurveto
            3 4 5 0 6 hhcurveto
            11 16 -22 -58 -14 hvcurveto
            -9 -33 -11 -27 -15 -18 rrcurveto
            -1 -4 -3 0 -3 hhcurveto
            -12 -17 22 57 15 hvcurveto
            -13 -128 rmoveto
            115 97 39 89 28 hvcurveto
            106 37 -102 26 -87 hhcurveto
            -113 -96 -34 -98 -29 hvcurveto
            -90 -27 86 -38 91 hhcurveto
            return
          </CharString>
          <CharString index="145">
            461 1301 627 rmoveto
            -1298 -106 callgsubr
            831 hlineto
            36 -19 31 -24 18 -17 -5 -10 rcurveline
            -73 -64 -105 -19 -78 -32 rrcurveto
            0 vlineto
            -2 -1 -6 -2 -6 -3 -6 -3 rlinecurve
            -51 -22 -43 -15 -77 -25 116 callgsubr
            50 -59 115 -20 29 return
          </CharString>
          <CharString index="146">
            227 callsubr
            71 callgsubr
            return
          </CharString>
          <CharString index="147">
            29 -50 51 -33 71 -19 66 -9 100 20 42 48 22 50 23 76 19 82 38 16 285 callsubr
            10 -6 rcurveline
            147 callsubr
            -37 -19 -45 -20 -50 -21 15 85 8 84 -5 61 173 callsubr
          </CharString>
          <CharString index="148">
            -59 50 -13 66 3 84 -70 32 -71 -29 -45 -76 rrcurveto
            -130 28 133 -81 return
          </CharString>
          <CharString index="149">
            hlineto
            91 -10 -58 43 -55 hhcurveto
            -163 -19 -137 -169 -36 -98 99 callgsubr
            return
          </CharString>
          <CharString index="150">
            53 -36 57 -27 81 -12 63 58 rcurveline
            9 -8 -40 -62 -17 -58 -20 -70 rlinecurve
            15 -46 93 -46 84 27 return
          </CharString>
          <CharString index="151">
            -38 -24 -18 -53 11 -66 return
          </CharString>
          <CharString index="152">
            hlineto
            -18 -137 -7 -4 rlineto
            39 -36 -55 62 -22 hhcurveto
            -156 -162 -138 -128 -113 116 -59 135 hvcurveto
            -58 callgsubr
          </CharString>
          <CharString index="153">
            rmoveto
            -31 -49 -39 -26 -67 -16 41 callsubr
            89 hhcurveto
            83 118 27 73 65 hvcurveto
            -25 66 -50 27 -49 -18 rrcurveto
            endchar
          </CharString>
          <CharString index="154">
            -157 -161 -139 -133 -102 105 -64 141 hvcurveto
            return
          </CharString>
          <CharString index="155">
            -104 callsubr
            -37 -61 callgsubr
            42 hlineto
            return
          </CharString>
          <CharString index="156">
            -19 52 -13 41 -4 61 -6 callgsubr
            return
          </CharString>
          <CharString index="157">
            1 callsubr
            36 -90 return
          </CharString>
          <CharString index="158">
            rmoveto
            -33 16 -31 24 -20 36 45 21 42 14 40 8 -7 -44 -11 -40 -13 -29 rrcurveto
            return
          </CharString>
          <CharString index="159">
            -16 -5 -10 rcurveline
            -64 -17 -66 -8 -92 -5 return
          </CharString>
          <CharString index="160">
            63 -39 59 -45 33 -53 -7 -7 rcurveline
            -49 39 -49 30 -49 15 -2 callsubr
            return
          </CharString>
          <CharString index="161">
            rmoveto
            -775 -106 callgsubr
            308 2 callsubr
            return
          </CharString>
          <CharString index="162">
            -36 -73 -30 rlinecurve
            22 callgsubr
            60 -87 125 -100 17 vhcurveto
            return
          </CharString>
          <CharString index="163">
            -106 callgsubr
            479 hlineto
            -21 -48 46 -57 83 -27 rrcurveto
            31 50 58 22 43 hhcurveto
            14 13 -2 -6 10 hvcurveto
            -10 -58 -97 -72 -123 -25 -41 50 rcurveline
            -101 25 -178 3 -103 -25 217 callgsubr
            -23 -89 -73 callsubr
            28 13 60 16 58 5 rrcurveto
            -7 -17 -5 -20 -1 -21 -89 callgsubr
            return
          </CharString>
          <CharString index="164">
            184 rmoveto
            -27 14 -25 16 -19 29 39 14 38 15 38 15 -9 -30 -11 -31 -12 -36 rrcurveto
            return
          </CharString>
          <CharString index="165">
            94 276 -103 rmoveto
            -57 4 -33 34 46 vvcurveto
            8 1 9 2 9 vhcurveto
            36 -22 58 -28 37 -15 rrcurveto
            77 87 rmoveto
            -11 -15 -13 -15 -13 -15 -52 24 -50 30 -40 27 10 10 12 9 16 6 37 -28 48 -21 56 -12 rrcurveto
            537 598 152 callgsubr
            139 -93 190 48 vhcurveto
            46 69 return
          </CharString>
          <CharString index="166">
            90 79 68 72 23 hvcurveto
            -10 42 -49 25 -79 -11 -7 -49 -33 -38 -64 -11 -46 13 -29 34 -17 51 -22 4 -27 -16 -11 -14 rrcurveto
            return
          </CharString>
          <CharString index="167">
            hlineto
            35 -19 31 -24 21 -17 return
          </CharString>
          <CharString index="168">
            -38 -24 -18 -53 11 -66 75 callgsubr
            return
          </CharString>
          <CharString index="169">
            rmoveto
            -453 -99 callsubr
            -4 -31 rcurveline
            return
          </CharString>
          <CharString index="170">
            -106 callgsubr
            145 hlineto
            return
          </CharString>
          <CharString index="171">
            56 24 29 31 -4 38 -46 47 -22 47 -6 55 return
          </CharString>
          <CharString index="172">
            -4 -7 rcurveline
            -72 -17 -56 -2 -80 -2 -89 -47 -33 -81 44 -50 93 -17 80 -8 85 -15 3 -6 rcurveline
            -71 -26 -134 -4 -99 9 -45 -32 10 -70 75 -50 rrcurveto
            return
          </CharString>
          <CharString index="173">
            322 -96 callgsubr
            return
          </CharString>
          <CharString index="174">
            32 callsubr
            6 21 rcurveline
            200 callsubr
            47 46 18 24 45 hvcurveto
            9 -14 -44 -50 -45 -208 -107 callgsubr
          </CharString>
          <CharString index="175">
            rmoveto
            -40 27 -111 -7 -41 -79 87 -71 rcurveline
            72 -102 35 -14 49 14 20 29 rlinecurve
            return
          </CharString>
          <CharString index="176">
            496 288 rmoveto
            -53 -40 -69 -51 -57 -39 -24 16 -13 31 2 34 3 69 48 84 89 45 36 -20 27 -32 28 -42 rrcurveto
            53 195 rmoveto
            -7 -38 -9 -37 -10 -36 -24 51 -36 54 -33 30 -254 -3 -152 -171 -6 -153 -5 -116 92 -102 180 -2 48 46 55 51 47 43 13 -15 rcurveline
            -63 -82 58 -69 153 -4 54 46 rlinecurve
            26 231 21 163 14 164 72 248 rcurveline
            -59 27 -74 -2 -113 -49 rrcurveto
            return
          </CharString>
          <CharString index="177">
            170 callgsubr
            -34 -1 -35 -4 -34 rlinecurve
            -87 -21 -81 -17 -52 -10 132 callsubr
            74 15 79 return
          </CharString>
          <CharString index="178">
            176 callgsubr
            201 callsubr
            1 1 rlineto
            -4 -16 -2 -15 -16 282 callgsubr
            42 39 63 57 50 47 9 -14 rcurveline
            -49 -66 -20 -86 -107 callgsubr
          </CharString>
          <CharString index="179">
            6 -77 100 -42 113 -6 47 41 45 39 44 40 14 -77 104 -118 101 -48 -93 callgsubr
          </CharString>
          <CharString index="180">
            -77 -65 -165 89 callsubr
            return
          </CharString>
          <CharString index="181">
            -38 -10 7 rcurveline
            -34 callgsubr
            return
          </CharString>
          <CharString index="182">
            25 -42 69 callgsubr
            return
          </CharString>
          <CharString index="183">
            12 -9 rcurveline
            -34 -63 return
          </CharString>
          <CharString index="184">
            328 rmoveto
            -52 -52 -64 -45 -51 -28 -32 6 -29 15 5 30 rrcurveto
            88 60 79 57 79 vvcurveto
            return
          </CharString>
          <CharString index="185">
            58 -103 147 -81 124 -23 141 17 183 92 90 64 10 -13 rcurveline
            -27 -33 -54 callsubr
          </CharString>
          <CharString index="186">
            hlineto
            86 callgsubr
            return
          </CharString>
          <CharString index="187">
            14 76 11 44 33 40 rrcurveto
            23 -28 -47 26 -53 hhcurveto
            -118 -185 -109 -101 -69 hvcurveto
            12 -63 55 -46 88 -8 51 70 84 74 61 36 21 -8 rcurveline
            -13 -65 -16 -77 -17 -83 rrcurveto
            -141 63 callsubr
            -34 -160 -38 -177 -40 -164 128 callsubr
            -12 15 rcurveline
            return
          </CharString>
          <CharString index="188">
            57 callsubr
            85 415 -63 callgsubr
            return
          </CharString>
          <CharString index="189">
            rmoveto
            -49 -38 -38 -46 -46 38 -38 49 46 38 38 46 46 -38 38 -46 hvcurveto
            return
          </CharString>
          <CharString index="190">
            13 -88 75 -105 98 -63 64 callsubr
            return
          </CharString>
          <CharString index="191">
            -98 callgsubr
            14 3 14 4 13 4 rrcurveto
            -62 41 99 -54 62 hhcurveto
            51 135 82 82 87 hvcurveto
            13 -14 -47 -60 -24 -107 -107 callgsubr
          </CharString>
          <CharString index="192">
            88 callgsubr
            -118 -39 -82 -36 return
          </CharString>
          <CharString index="193">
            -59 callgsubr
            736 444 rmoveto
            return
          </CharString>
          <CharString index="194">
            rmoveto
            39 55 33 251 4 94 -23 85 rlinecurve
            -43 16 -92 13 -89 -86 56 -244 rcurveline
            -30 -145 -49 -192 -63 -134 29 -63 168 -22 67 56 6 63 3 61 2 51 33 -84 67 -75 108 -50 105 43 46 108 -54 54 -147 3 -58 29 -48 53 86 41 84 24 112 13 rrcurveto
            74 101 -67 96 -74 8 -117 -67 -74 -74 -82 -99 rrcurveto
            endchar
          </CharString>
          <CharString index="195">
            rmoveto
            -40 -56 -78 -37 -65 -17 -19 6 -28 21 -5 15 73 30 74 31 74 30 rrcurveto
            return
          </CharString>
          <CharString index="196">
            -92 92 callsubr
            return
          </CharString>
          <CharString index="197">
            60 callsubr
            -5 -10 rcurveline
            169 callsubr
            return
          </CharString>
          <CharString index="198">
            224 callsubr
            50 128 75 79 84 vhcurveto
            13 -15 -47 -60 -24 -107 -107 callgsubr
          </CharString>
          <CharString index="199">
            -114 102 callgsubr
            return
          </CharString>
          <CharString index="200">
            rlinecurve
            5 -82 callgsubr
          </CharString>
          <CharString index="201">
            hlineto
            -22 -51 42 -59 75 -22 46 38 39 19 59 5 6 -10 rcurveline
            -13 -52 -21 -35 -64 -24 -29 1 -35 1 -30 1 -43 -30 12 -88 75 -48 34 14 18 7 29 10 15 -15 8 -20 2 -10 -11 -43 -43 -28 -72 -29 -51 47 -34 58 -18 98 rrcurveto
            -65 22 -61 -32 -43 -84 49 -101 91 -70 128 -35 rrcurveto
            143 -3 156 114 94 vvcurveto
            51 return
          </CharString>
          <CharString index="202">
            -132 -17 -103 -57 -87 -58 -56 -59 -35 -71 -4 -79 return
          </CharString>
          <CharString index="203">
            rrcurveto
            52 -29 -48 25 -84 hhcurveto
            return
          </CharString>
          <CharString index="204">
            rmoveto
            49 38 23 35 41 vvcurveto
            72 -86 110 -66 -61 -65 -44 -63 -33 vhcurveto
            12 -35 40 -44 34 -28 9 1 36 18 6 11 -11 32 rcurveline
            19 15 20 16 20 hhcurveto
            14 9 -5 -6 5 hvcurveto
            -5 -19 -7 -12 -29 -26 -188 -172 rcurveline
            7 -51 25 -30 35 -23 71 12 rcurveline
            154 -27 48 54 8 70 -21 23 rlinecurve
            -159 -48 -7 5 rlineto
            return
          </CharString>
          <CharString index="205">
            311 49 callgsubr
            return
          </CharString>
          <CharString index="206">
            291 62 callsubr
            return
          </CharString>
          <CharString index="207">
            rmoveto
            -14 callsubr
            return
          </CharString>
          <CharString index="208">
            -57 callgsubr
            -494 -106 callgsubr
            502 1 callgsubr
            return
          </CharString>
          <CharString index="209">
            rmoveto
            54 43 43 53 53 250 callgsubr
            -53 -53 45 -43 55 hvcurveto
            return
          </CharString>
          <CharString index="210">
            -61 callsubr
            -8 -51 -53 -34 -58 -28 rrcurveto
            0 vlineto
            -78 -37 -107 -9 -59 37 -19 17 -20 20 -10 26 -95 callgsubr
            return
          </CharString>
          <CharString index="211">
            -132 108 -51 return
          </CharString>
          <CharString index="212">
            hlineto
            -104 callgsubr
            return
          </CharString>
          <CharString index="213">
            -173 -106 -27 -76 56 -47 91 -24 169 100 202 69 117 19 15 -8 rcurveline
            -14 -67 -16 -80 -18 -86 rrcurveto
            -141 63 callsubr
            -34 -161 -39 -178 -39 -162 128 callsubr
            return
          </CharString>
          <CharString index="214">
            1 callsubr
            31 -77 return
          </CharString>
          <CharString index="215">
            rmoveto
            -627 191 callgsubr
            -24 -43 -35 -40 -44 -36 -80 -67 -108 -54 -109 -38 -29 callgsubr
            191 122 108 90 139 209 -126 84 rcurveline
            return
          </CharString>
          <CharString index="216">
            -34 hhcurveto
            -22 -21 30 24 -16 hvcurveto
            128 callgsubr
            30 2 return
          </CharString>
          <CharString index="217">
            189 callgsubr
            781 437 -104 callsubr
            return
          </CharString>
          <CharString index="218">
            rmoveto
            -103 -1 -59 -88 -18 -128 rrcurveto
            -132 -22 78 -95 92 hhcurveto
            127 77 88 138 18 hvcurveto
            93 11 -67 125 -134 hhcurveto
            3 -88 rmoveto
            17 -1 13 -5 11 -9 3 -22 -1 -45 -9 -51 -14 -70 -15 -48 -7 -27 -22 9 -14 11 -11 16 1 27 3 31 11 51 13 61 4 26 17 46 rrcurveto
            return
          </CharString>
          <CharString index="219">
            rmoveto
            8 44 41 46 33 5 31 -14 16 -43 3 -31 -13 -38 -27 -33 -35 -29 -25 24 -20 31 -12 38 rrcurveto
            return
          </CharString>
          <CharString index="220">
            -49 -31 -81 -42 return
          </CharString>
          <CharString index="221">
            151 callsubr
            42 14 43 15 -7 -38 -12 -38 -17 -32 rrcurveto
            return
          </CharString>
          <CharString index="222">
            57 63 76 callsubr
            return
          </CharString>
          <CharString index="223">
            -24 30 24 -16 hvcurveto
            128 callgsubr
            30 2 return
          </CharString>
          <CharString index="224">
            rmoveto
            -29 -164 -28 -119 -47 -187 44 -37 101 -19 60 44 7 170 12 135 11 110 73 287 rcurveline
            -40 40 -67 -1 -96 -47 rrcurveto
            return
          </CharString>
          <CharString index="225">
            125 callsubr
            rrcurveto
            return
          </CharString>
          <CharString index="226">
            15 93 16 36 5 callgsubr
            return
          </CharString>
          <CharString index="227">
            -66 callgsubr
            endchar
          </CharString>
          <CharString index="228">
            885 rmoveto
            63 -39 59 -45 33 -53 -7 -7 rcurveline
            -49 39 -49 30 -49 15 82 callgsubr
            rrcurveto
            return
          </CharString>
          <CharString index="229">
            -32 -4 callgsubr
            return
          </CharString>
          <CharString index="230">
            hhcurveto
            -91 -11 -83 -57 -62 -66 rrcurveto
            -613 -106 callgsubr
            579 hlineto
            -15 -22 -13 -22 -10 -21 -147 -61 -205 -85 -109 -30 -48 callsubr
            133 55 rcurveline
            return
          </CharString>
          <CharString index="231">
            13 -56 80 -39 110 13 15 149 36 229 47 146 243 callsubr
            95 37 87 47 52 32 53 42 29 72 -23 49 -17 13 -18 12 -19 11 rrcurveto
            308 -101 callgsubr
          </CharString>
          <CharString index="232">
            -44 callsubr
            39 17 285 callsubr
            return
          </CharString>
          <CharString index="233">
            25 callsubr
            28 51 14 40 32 vvcurveto
            29 -11 21 -20 16 vhcurveto
            return
          </CharString>
          <CharString index="234">
            vhcurveto
            35 26 80 46 61 40 14 -18 rcurveline
            -102 -87 -135 -67 -145 -42 -29 callgsubr
            170 108 161 134 47 91 rrcurveto
            139 394 rmoveto
            -648 -106 callgsubr
            648 -101 callgsubr
          </CharString>
          <CharString index="235">
            90 -69 134 -12 39 42 3 471 rcurveline
            -9 69 rlineto
            232 hlineto
            -25 callsubr
            return
          </CharString>
          <CharString index="236">
            2 -29 -1 -31 -3 -30 return
          </CharString>
          <CharString index="237">
            19 callgsubr
            -30 -30 -25 -33 return
          </CharString>
          <CharString index="238">
            rmoveto
            -60 20 -24 37 33 vvcurveto
            22 11 20 18 12 vhcurveto
            61 7 52 11 48 17 12 -10 10 -11 8 -12 -4 -60 -39 -53 -93 -33 rrcurveto
            return
          </CharString>
          <CharString index="239">
            115 callgsubr
            49 21 return
          </CharString>
          <CharString index="240">
            137 callsubr
            -34 return
          </CharString>
          <CharString index="241">
            -6 -3 -6 -3 -5 -3 -47 -22 -60 -21 -58 -10 -27 3 -25 3 -21 5 rrcurveto
            80 43 60 64 68 vvcurveto
            19 -21 24 -32 22 vhcurveto
            return
          </CharString>
          <CharString index="242">
            -52 -46 -15 -82 68 -108 43 callsubr
            return
          </CharString>
          <CharString index="243">
            rmoveto
            -17 -12 -12 -18 -8 -13 20 -19 rcurveline
            return
          </CharString>
          <CharString index="244">
            54 callgsubr
            121 -101 177 -13 283 callgsubr
            14 -9 rcurveline
            return
          </CharString>
          <CharString index="245">
            -61 callgsubr
            198 hlineto
            -55 -19 -50 -25 -30 -30 -20 -72 84 -57 64 -21 51 6 38 22 40 11 8 -9 rcurveline
            -65 -51 -162 -30 -42 vvcurveto
            -69 87 -48 104 -20 vhcurveto
            78 7 122 76 81 77 10 -10 rcurveline
            return
          </CharString>
          <CharString index="246">
            rmoveto
            32 39 4 33 -20 12 -195 -20 rcurveline
            -191 5 -25 -36 -4 -26 15 -19 rlinecurve
            return
          </CharString>
          <CharString index="247">
            -730 -106 callgsubr
            return
          </CharString>
          <CharString index="248">
            -45 41 -47 51 -31 39 return
          </CharString>
          <CharString index="249">
            -56 -258 -107 callgsubr
          </CharString>
          <CharString index="250">
            81 4 73 15 59 return
          </CharString>
          <CharString index="251">
            434 rmoveto
            -73 callgsubr
            return
          </CharString>
          <CharString index="252">
            50 callsubr
            3 -40 -2 -47 -5 -47 rlinecurve
            -82 -9 -74 -19 -51 -22 rrcurveto
            -43 -23 -11 -42 -58 vvcurveto
            33 -58 54 -46 98 -29 60 3 83 20 42 55 21 39 17 58 14 65 return
          </CharString>
          <CharString index="253">
            -96 -122 -21 -113 17 -96 33 -48 106 -43 81 103 -69 180 rcurveline
            36 116 -17 27 -27 6 -43 -10 rlinecurve
            return
          </CharString>
          <CharString index="254">
            -44 -194 -79 -61 -157 -97 -122 -34 rlinecurve
            -29 callgsubr
            97 60 128 97 115 callsubr
            82 -53 118 -10 40 40 -30 callgsubr
            -30 54 -58 22 -148 -15 rlinecurve
            return
          </CharString>
          <CharString index="255">
            -285 rmoveto
            20 4 20 11 21 vhcurveto
            27 -26 40 -31 31 -22 -26 -16 -27 -18 -25 -15 279 callsubr
            -40 31 -36 35 -30 30 13 11 16 12 19 11 25 -19 39 -56 14 -42 rrcurveto
            return
          </CharString>
          <CharString index="256">
            141 callgsubr
            151 callgsubr
            return
          </CharString>
          <CharString index="257">
            -30 -4 callgsubr
            return
          </CharString>
          <CharString index="258">
            rmoveto
            -31 16 -30 22 -19 32 41 13 return
          </CharString>
          <CharString index="259">
            -61 callsubr
            -9 -56 -62 -36 -65 -29 -65 -27 -59 -6 -57 -3 -10 7 rcurveline
            -34 callgsubr
            return
          </CharString>
          <CharString index="260">
            rmoveto
            209 callgsubr
            49 callsubr
            -89 -27 -43 -54 -33 -81 rrcurveto
            endchar
          </CharString>
          <CharString index="261">
            rmoveto
            -62 -64 -153 -122 -164 -44 -29 callgsubr
            134 82 151 139 53 74 rrcurveto
            return
          </CharString>
          <CharString index="262">
            rmoveto
            -11 -31 -45 -32 -58 -8 -16 8 -13 9 -12 10 41 24 42 24 29 15 17 -5 14 -6 12 -8 rrcurveto
            return
          </CharString>
          <CharString index="263">
            rmoveto
            197 callsubr
            -78 -46 -38 -28 -58 -70 -4 -45 60 -26 39 9 rrcurveto
            return
          </CharString>
          <CharString index="264">
            rmoveto
            37 30 31 36 36 -30 30 -37 -38 -31 -30 -36 -36 31 -31 38 hvcurveto
            return
          </CharString>
          <CharString index="265">
            66 callsubr
            722 99 callsubr
            return
          </CharString>
          <CharString index="266">
            hhcurveto
            -97 -134 -116 -91 -42 27 -37 66 -6 hvcurveto
            5 -5 -47 -19 -95 -31 -67 -13 rlinecurve
            -69 28 -32 21 -43 46 3 8 rcurveline
            157 28 137 85 119 vvcurveto
            19 -19 24 -28 22 vhcurveto
            return
          </CharString>
          <CharString index="267" raw="1">
            fa0915c0 0a0b  
          </CharString>
          <CharString index="268">
            79 89 rcurveline
            51 -28 35 -26 28 -25 -90 -70 -120 -57 -132 -30 228 callgsubr
            87 59 125 96 59 63 14 -11 rcurveline
            -49 -68 -17 -75 -102 callsubr
            return
          </CharString>
          <CharString index="269">
            218 184 -50 callsubr
            return
          </CharString>
          <CharString index="270">
            -7 -4 -36 36 -38 44 -56 26 rlinecurve
            return
          </CharString>
          <CharString index="271">
            95 callgsubr
            80 return
          </CharString>
          <CharString index="272" raw="1">
            60b98e93 18f731a7 f71de0f7 0b1a9e78
            a36fa11e f7f4060b  
          </CharString>
          <CharString index="273">
            -39 181 callgsubr
            return
          </CharString>
          <CharString index="274">
            rmoveto
            36 24 34 38 11 vhcurveto
            37 -15 10 -29 -30 vvcurveto
            return
          </CharString>
          <CharString index="275">
            6 65 -17 19 -56 4 -46 -38 -53 -36 -61 -28 10 return
          </CharString>
          <CharString index="276">
            -56 -21 -89 -21 -121 -10 return
          </CharString>
          <CharString index="277">
            hlineto
            37 -79 2 -33 0 -34 -4 -33 rlinecurve
            -78 -26 -80 -23 -79 -17 return
          </CharString>
          <CharString index="278">
            -52 callgsubr
            398 -79 callgsubr
            return
          </CharString>
          <CharString index="279">
            -94 101 -105 156 -27 vhcurveto
            119 110 32 65 93 hvcurveto
            4 114 -58 46 -85 -10 -33 -61 -61 -66 -65 -34 rrcurveto
            -66 29 -26 48 44 vvcurveto
            27 10 26 18 17 vhcurveto
            return
          </CharString>
          <CharString index="280">
            261 callgsubr
            915 hmoveto
            -431 -106 callgsubr
            431 -101 callgsubr
          </CharString>
          <CharString index="281">
            150 callsubr
            22 64 6 return
          </CharString>
          <CharString index="282">
            -199 -7 callsubr
            25 12 31 12 34 14 10 -37 -5 -40 -11 -34 rrcurveto
            return
          </CharString>
          <CharString index="283">
            -82 41 -64 36 174 106 51 76 -13 62 -54 22 rlinecurve
            -121 -90 -141 -107 -10 -25 -7 -25 1 -27 rlinecurve
            191 -226 59 -2 36 83 -20 76 rlinecurve
            endchar
          </CharString>
          <CharString index="284">
            6 10 37 hvcurveto
            return
          </CharString>
          <CharString index="285">
            -47 callsubr
            93 19 128 52 35 80 rlinecurve
            220 callgsubr
            return
          </CharString>
          <CharString index="286">
            hlineto
            193 callgsubr
            184 callgsubr
            267 callsubr
            return
          </CharString>
          <CharString index="287">
            84 callgsubr
            30 2 return
          </CharString>
          <CharString index="288">
            -65 -41 -71 -27 -82 -10 -19 25 -14 24 -6 32 return
          </CharString>
          <CharString index="289">
            475 rmoveto
            129 callsubr
            return
          </CharString>
          <CharString index="290">
            41 51 21 36 40 39 return
          </CharString>
          <CharString index="291">
            -89 callgsubr
            35 38 177 callsubr
            -18 45 68 -19 36 hhcurveto
            33 return
          </CharString>
          <CharString index="292">
            129 -22 rcurveline
            133 callgsubr
            return
          </CharString>
          <CharString index="293">
            -54 82 -96 18 -47 -23 -29 -34 return
          </CharString>
          <CharString index="294">
            rmoveto
            -32 15 -29 23 -20 34 39 11 43 11 45 12 -9 -37 -12 -34 -13 -29 rrcurveto
            return
          </CharString>
          <CharString index="295">
            -34 -48 -38 -36 -27 rrcurveto
            -18 11 -7 15 30 vvcurveto
            40 34 51 58 27 vhcurveto
            28 -22 return
          </CharString>
          <CharString index="296">
            -20 -60 hhcurveto
            -12 -13 1 3 -13 hvcurveto
            66 57 48 62 55 vvcurveto
            91 -119 106 -81 return
          </CharString>
          <CharString index="297">
            hhcurveto
            -10 6 -10 5 -9 6 rrcurveto
            78 44 59 63 67 vvcurveto
            19 -21 24 -32 22 vhcurveto
            return
          </CharString>
          <CharString index="298">
            223 559 rmoveto
            22 37 33 30 11 vhcurveto
            33 -24 9 -28 -31 vvcurveto
            -26 -8 -22 -14 -19 vhcurveto
            -19 7 -20 7 -19 7 rrcurveto
            -17 19 -12 27 17 vvcurveto
            return
          </CharString>
          <CharString index="299">
            -54 -71 -104 -73 -97 -25 return
          </CharString>
          <CharString index="300">
            -7 5 -6 6 -7 5 return
          </CharString>
          <CharString index="301">
            251 callsubr
            -72 callsubr
            endchar
          </CharString>
          <CharString index="302">
            196 634 -196 hlineto
            236 -185 rmoveto
            196 185 -196 hlineto
            return
          </CharString>
          <CharString index="303">
            107 10 callgsubr
            return
          </CharString>
          <CharString index="304">
            8 2 43 -37 50 -41 114 -14 rlinecurve
            89 29 58 71 32 48 3 37 -44 20 -44 -8 -71 -96 rcurveline
            182 callgsubr
            return
          </CharString>
          <CharString index="305">
            rmoveto
            -5 -3 -5 -2 -3 -3 -33 -21 -40 -26 -36 -22 159 callgsubr
            45 19 49 85 50 vhcurveto
            25 -19 39 -56 14 -42 rrcurveto
            return
          </CharString>
          <CharString index="306">
            rmoveto
            48 39 39 48 47 -39 39 -48 -50 -40 -39 -47 -48 40 -39 50 hvcurveto
            return
          </CharString>
          <CharString index="307">
            52 21 65 35 61 41 rrcurveto
            -19 45 44 -11 37 hhcurveto
            return
          </CharString>
          <CharString index="308">
            37 45 -34 -53 9 hvcurveto
            return
          </CharString>
          <CharString index="309">
            -94 callgsubr
            -130 -64 -222 -91 return
          </CharString>
          <CharString index="310">
            -3 642 400 rmoveto
            -279 -20 -276 5 -25 -36 -5 -43 16 -19 rlinecurve
            553 11 32 41 4 49 -20 12 rlinecurve
            endchar
          </CharString>
          <CharString index="311">
            91 -33 180 callsubr
            return
          </CharString>
          <CharString index="312">
            hlineto
            27 -12 26 -14 16 -13 206 callgsubr
            return
          </CharString>
          <CharString index="313">
            -24 76 -73 71 -116 -5 return
          </CharString>
          <CharString index="314">
            3 -22 -1 -47 -9 -49 -14 -71 -15 -48 -7 -27 -22 9 -14 10 -11 18 1 25 3 33 11 50 13 61 4 26 17 47 return
          </CharString>
          <CharString index="315">
            -31 27 -26 35 31 27 26 31 32 -27 26 -31 return
          </CharString>
          <CharString index="316">
            -56 -57 -67 -54 -61 -38 return
          </CharString>
          <CharString index="317">
            17 39 17 38 return
          </CharString>
          <CharString index="318">
            7 -212 135 -134 246 -19 317 26 135 177 43 217 -44 203 -57 133 -297 23 return
          </CharString>
          <CharString index="319">
            52 callsubr
            -95 -58 -36 -94 41 -59 return
          </CharString>
          <CharString index="320">
            rrcurveto
            -144 1 -39 callgsubr
            return
          </CharString>
          <CharString index="321">
            -185 17 -130 108 -12 189 30 189 165 143 219 33 253 -37 40 -101 44 -173 return
          </CharString>
          <CharString index="322">
            -38 rlinecurve
            -29 callgsubr
            return
          </CharString>
          <CharString index="323">
            1 -60 29 -50 return
          </CharString>
          <CharString index="324">
            rrcurveto
            74 385 -63 callgsubr
            return
          </CharString>
          <CharString index="325">
            91 -104 callsubr
            return
          </CharString>
          <CharString index="326">
            214 rmoveto
            -33 14 -17 15 -14 22 return
          </CharString>
          <CharString index="327">
            -58 vvcurveto
            -71 64 -61 121 82 74 38 55 46 vhcurveto
            40 -11 24 -48 -4 vhcurveto
            -58 -36 -59 -19 -73 23 4 return
          </CharString>
          <CharString index="328">
            hmoveto
            61 callgsubr
            return
          </CharString>
          <CharString index="329">
            rmoveto
            -78 -92 4 -30 23 -18 43 -7 rlinecurve
            137 75 65 95 18 98 -13 54 -82 76 -112 -64 rrcurveto
            return
          </CharString>
          <CharString index="330">
            rmoveto
            -951 -106 callgsubr
            951 -101 callgsubr
          </CharString>
          <CharString index="331">
            -91 140 -83 91 return
          </CharString>
          <CharString index="332">
            193 174 callgsubr
            return
          </CharString>
          <CharString index="333">
            rmoveto
            -45 callgsubr
            return
          </CharString>
          <CharString index="334">
            -47 -31 3 -87 83 -53 return
          </CharString>
          <CharString index="335">
            vvcurveto
            224 callsubr
            return
          </CharString>
          <CharString index="336">
            -14 callsubr
            -68 -68 -26 -40 -56 hvcurveto
            -99 -55 -173 -33 -111 5 return
          </CharString>
          <CharString index="337">
            rmoveto
            140 callsubr
            return
          </CharString>
          <CharString index="338">
            17 14 19 13 18 8 rrcurveto
            return
          </CharString>
          <CharString index="339">
            5 -8 -32 -33 return
          </CharString>
          <CharString index="340">
            rmoveto
            237 callgsubr
            return
          </CharString>
          <CharString index="341">
            226 rmoveto
            -50 -40 -39 -47 -48 40 -39 50 48 39 39 48 47 -39 39 -48 hvcurveto
            endchar
          </CharString>
          <CharString index="342">
            -114 150 callgsubr
            return
          </CharString>
          <CharString index="343">
            19 -187 1 -166 -146 -3 -138 -2 -131 111 -125 178 -11 return
          </CharString>
          <CharString index="344">
            -74 21 -66 -40 -33 -82 rrcurveto
            -80 43 150 -91 96 hhcurveto
            127 185 112 86 return
          </CharString>
          <CharString index="345">
            -627 -106 callgsubr
            return
          </CharString>
          <CharString index="346">
            28 22 23 27 28 -22 22 -28 -29 -23 -22 -28 return
          </CharString>
          <CharString index="347">
            428 rmoveto
            -51 callsubr
            return
          </CharString>
          <CharString index="348">
            -39 17 -31 17 -24 30 return
          </CharString>
          <CharString index="349">
            -1 -19 10 -23 11 -23 12 rrcurveto
            80 44 59 63 68 vvcurveto
            19 -21 24 -32 22 vhcurveto
            return
          </CharString>
          <CharString index="350">
            186 callsubr
            -33 -37 -38 -38 rrcurveto
            -43 8 -39 34 46 vvcurveto
            return
          </CharString>
          <CharString index="351">
            -32 6 -29 15 5 30 rrcurveto
            88 60 79 57 79 vvcurveto
            50 -75 41 -88 9 vhcurveto
            return
          </CharString>
          <CharString index="352">
            455 258 callgsubr
            return
          </CharString>
          <CharString index="353">
            120 25 86 65 61 51 return
          </CharString>
          <CharString index="354">
            rmoveto
            50 41 41 49 50 -41 41 -50 -52 -41 -41 -50 -49 41 -41 52 hvcurveto
            return
          </CharString>
          <CharString index="355">
            15 60 callgsubr
            return
          </CharString>
          <CharString index="356">
            rmoveto
            31 27 26 31 32 -27 26 -31 -35 -27 -26 -32 -31 27 -26 35 hvcurveto
            return
          </CharString>
          <CharString index="357">
            -54 167 -25 68 53 return
          </CharString>
          <CharString index="358">
            201 callsubr
            129 69 206 callsubr
            rlinecurve
            return
          </CharString>
          <CharString index="359">
            36 -90 129 callsubr
            rlinecurve
            -82 -27 -80 -23 -59 -11 rrcurveto
            -11 return
          </CharString>
          <CharString index="360">
            495 rmoveto
            -74 -26 -83 -19 -109 -7 return
          </CharString>
          <CharString index="361">
            607 -104 callsubr
            return
          </CharString>
          <CharString index="362">
            107 callsubr
            5 return
          </CharString>
          <CharString index="363">
            hlineto
            36 -90 129 callsubr
            rlinecurve
            -82 -27 -80 -23 -59 -11 return
          </CharString>
          <CharString index="364">
            265 callgsubr
            -97 -51 return
          </CharString>
          <CharString index="365">
            241 callsubr
            6 21 rcurveline
            return
          </CharString>
          <CharString index="366">
            -62 -57 -62 -56 -59 -50 rrcurveto
            return
          </CharString>
          <CharString index="367" raw="1">
            f79a0a95 0b  
          </CharString>
          <CharString index="368">
            25 -42 239 callgsubr
            return
          </CharString>
          <CharString index="369" raw="1">
            f7aa1df7 650b  
          </CharString>
          <CharString index="370">
            192 callsubr
            rlinecurve
            -10 15 47 38 36 27 return
          </CharString>
          <CharString index="371">
            -40 -21 -51 -22 -55 -22 rrcurveto
            5 40 2 39 37 vvcurveto
            return
          </CharString>
          <CharString index="372">
            rmoveto
            -765 -106 callgsubr
            return
          </CharString>
          <CharString index="373">
            rrcurveto
            197 -101 callgsubr
          </CharString>
          <CharString index="374">
            132 55 rcurveline
            232 callsubr
            return
          </CharString>
          <CharString index="375">
            39 41 15 -8 rcurveline
            return
          </CharString>
          <CharString index="376">
            30 8 30 8 return
          </CharString>
          <CharString index="377">
            -896 -106 callgsubr
            return
          </CharString>
          <CharString index="378">
            11 -43 7 -43 3 12 75 7 79 1 66 rrcurveto
            return
          </CharString>
          <CharString index="379">
            160 136 callsubr
            return
          </CharString>
          <CharString index="380">
            40 -54 67 -35 84 -19 callsubr
            return
          </CharString>
          <CharString index="381">
            375 rmoveto
            -10 -10 rlineto
            93 -71 -82 77 -68 hhcurveto
            return
          </CharString>
          <CharString index="382">
            5 -59 47 -62 62 -49 return
          </CharString>
          <CharString index="383">
            -55 4 -62 12 -100 35 return
          </CharString>
          <CharString index="384">
            282 callgsubr
            33 29 42 35 return
          </CharString>
          <CharString index="385">
            232 callsubr
            -2 -11 -2 -11 -3 -10 rlinecurve
            return
          </CharString>
          <CharString index="386">
            159 callgsubr
            162 14 rmoveto
            return
          </CharString>
          <CharString index="387">
            7 51 4 50 1 46 rrcurveto
            return
          </CharString>
          <CharString index="388">
            -4 -8 rcurveline
            -62 -21 -84 -13 return
          </CharString>
          <CharString index="389">
            hhcurveto
            251 callgsubr
            return
          </CharString>
          <CharString index="390">
            -8 6 -8 5 -8 5 rrcurveto
            return
          </CharString>
          <CharString index="391" raw="1">
            8e9318f7 2f0b  
          </CharString>
          <CharString index="392">
            39 17 38 18 return
          </CharString>
          <CharString index="393">
            -271 -34 -172 -159 -42 -221 return
          </CharString>
          <CharString index="394">
            25 26 -18 19 -26 -25 -19 -19 -26 vhcurveto
            return
          </CharString>
          <CharString index="395">
            270 callgsubr
            160 143 -15 hvcurveto
            return
          </CharString>
          <CharString index="396">
            38 10 -13 rcurveline
            return
          </CharString>
        <CharString name=".notdef">
          60 160 hmoveto
          436 701 -436 hlineto
          81 -76 rmoveto
          275 -549 -275 hlineto
          endchar
        </CharString>
        <CharString name="A">
          105 451 604 -84 callgsubr
          endchar
        </CharString>
        <CharString name="AE">
          279 735 754 rmoveto
          -172 -166 -14 -33 -98 hvcurveto
          -46 -177 -69 -147 -121 -1 -38 -48 0 -26 31 -32 rlinecurve
          75 7 -129 -232 25 -48 152 -22 72 47 rlinecurve
          92 267 135 12 -61 -245 rlineto
          -38 29 54 -24 81 hhcurveto
          69 171 11 16 81 hvcurveto
          18 34 27 89 -61 30 -104 -23 -99 -20 -77 -9 rrcurveto
          80 vlineto
          33 112 89 13 70 -1 86 -5 rlinecurve
          39 33 7 70 -44 14 -84 -5 -103 -15 -54 -11 -8 150 rcurveline
          28 61 61 10 48 4 41 -8 rlinecurve
          83 -67 82 56 37 63 -48 65 rlinecurve
          3 -62 -88 4 -84 hhcurveto
          -278 -137 rmoveto
          17 3 12 -232 -113 -14 rlineto
          endchar
        </CharString>
        <CharString name="Aacute">
          105 747 987 41 callgsubr
          -84 -203 -84 callgsubr
          endchar
        </CharString>
        <CharString name="Abreve">
          105 527 815 rmoveto
          59 callsubr
          -112 15 97 -58 90 hhcurveto
          -76 -211 -84 callgsubr
          endchar
        </CharString>
        <CharString name="Acircumflex">
          105 509 955 rmoveto
          6 callsubr
          -215 -198 4 -33 40 -16 48 2 rlinecurve
          109 -204 -84 callgsubr
          endchar
        </CharString>
        <CharString name="Adieresis">
          105 657 826 33 callgsubr
          77 -222 -84 callgsubr
          endchar
        </CharString>
        <CharString name="Agrave">
          105 501 813 139 callgsubr
          22 -311 -84 callgsubr
          endchar
        </CharString>
        <CharString name="Amacron">
          105 697 825 139 callsubr
          138 -209 -84 callgsubr
          endchar
        </CharString>
        <CharString name="Aogonek">
          105 451 604 rmoveto
          16 3 9 -261 rlineto
          -1 hlineto
          -108 hlineto
          312 -58 rmoveto
          103 7 29 48 1 31 -26 24 rlinecurve
          -116 -19 -18 183 24 164 -55 31 -169 14 -155 -64 rlinecurve
          -47 -196 -84 -164 rlineto
          -111 hlineto
          -36 -48 1 -26 32 -32 63 5 rcurveline
          -100 -195 27 -48 152 -22 70 47 rlinecurve
          77 236 122 9 -44 -228 17 -11 21 -10 23 -7 rlinecurve
          -67 -43 -54 -58 -64 vvcurveto
          -64 97 -56 93 117 69 33 60 56 vhcurveto
          2 40 -18 24 -29 -2 rrcurveto
          -25 -36 -46 -17 -41 hhcurveto
          -31 -28 10 23 -17 hvcurveto
          23 69 55 40 49 23 13 4 11 6 7 8 rrcurveto
          endchar
        </CharString>
        <CharString name="Aring">
          105 493 930 37 callsubr
          -29 -198 -84 callgsubr
          endchar
        </CharString>
        <CharString name="Atilde">
          105 451 604 -84 callgsubr
          -114 510 rmoveto
          182 callgsubr
          34 callsubr
          rrcurveto
          endchar
        </CharString>
        <CharString name="B">
          57 505 533 rmoveto
          -6 -35 -19 -37 -30 -31 -31 -15 -29 -4 -43 1 28 229 rcurveline
          104 19 38 -59 -12 -68 rrcurveto
          -228 -425 rmoveto
          55 226 55 4 34 -8 36 -10 rlinecurve
          19 -32 6 -22 -22 vvcurveto
          1 -39 -14 -40 -30 -40 -55 -17 -55 -8 -52 8 rrcurveto
          288 286 rmoveto
          113 39 60 61 1 84 rrcurveto
          92 2 -98 80 -232 hhcurveto
          -74 -158 -13 -24 -74 hvcurveto
          -20 -19 4 -34 25 -19 50 -1 rcurveline
          23 -133 -25 -121 -44 -127 -56 -130 rlinecurve
          4 -76 97 -44 69 -9 184 -6 68 14 117 36 92 79 26 58 1 67 1 35 -11 31 -30 32 -25 18 -37 15 -54 6 rrcurveto
          endchar
        </CharString>
        <CharString name="C">
          29 450 660 20 callgsubr
        </CharString>
        <CharString name="CR">
          -256 endchar
        </CharString>
        <CharString name="Cacute">
          29 514 1058 -40 callgsubr
          -64 -398 20 callgsubr
        </CharString>
        <CharString name="Ccaron">
          29 599 837 rmoveto
          179 178 -32 64 -111 -22 -32 -9 rlinecurve
          -136 -157 -39 callsubr
          -149 -177 20 callgsubr
        </CharString>
        <CharString name="Ccedilla">
          29 450 660 rmoveto
          33 -36 6 -82 2 -58 95 -47 114 47 19 53 -15 103 -51 79 -130 47 -143 -18 -109 -38 -119 -105 -61 -97 -35 -81 -2 -97 -3 -158 99 -123 182 -40 -53 -106 rcurveline
          -53 callgsubr
          44 85 102 37 90 52 59 61 rlinecurve
          2 53 -19 34 -58 -4 -59 -42 -54 -27 -92 -32 -77 42 -38 59 1 100 1 93 40 114 96 97 rrcurveto
          endchar
        </CharString>
        <CharString name="D">
          98 315 320 rmoveto
          39 122 28 95 26 85 126 -11 30 -82 -3 -127 -2 -102 -57 -100 -86 -69 -33 -15 -41 -9 -55 -5 rrcurveto
          -119 492 rmoveto
          -4 -143 -28 -118 -41 -90 -53 -110 32 callgsubr
        </CharString>
        <CharString name="Dcaron">
          98 748 1015 rmoveto
          -32 64 -111 -22 -32 -9 -136 -157 rcurveline
          -39 callsubr
          -254 -517 rmoveto
          39 122 28 95 26 85 126 -11 30 -82 -3 -127 -2 -102 -57 -100 -86 -69 -33 -15 -41 -9 -55 -5 rrcurveto
          -119 492 rmoveto
          -4 -143 -28 -118 -41 -90 -53 -110 32 callgsubr
        </CharString>
        <CharString name="Dcroat">
          36 callsubr
        </CharString>
        <CharString name="E">
          -5 callgsubr
          endchar
        </CharString>
        <CharString name="Eacute">
          31 522 1058 -40 callgsubr
          19 -422 -84 callsubr
          endchar
        </CharString>
        <CharString name="Ecaron">
          31 607 837 rmoveto
          179 178 -32 64 -111 -22 -32 -9 rlinecurve
          -136 -157 -39 callsubr
          -66 -201 -84 callsubr
          endchar
        </CharString>
        <CharString name="Ecircumflex">
          31 217 855 rmoveto
          4 -33 40 -16 48 2 167 147 rcurveline
          6 callsubr
          109 -417 -84 callsubr
          endchar
        </CharString>
        <CharString name="Edieresis">
          31 341 826 -10 callsubr
          -83 -190 -84 callsubr
          endchar
        </CharString>
        <CharString name="Edotaccent">
          -5 callgsubr
          -74 200 102 callsubr
          endchar
        </CharString>
        <CharString name="Egrave">
          -5 callgsubr
          -40 409 68 callsubr
          endchar
        </CharString>
        <CharString name="Emacron">
          -5 callgsubr
          139 273 43 callgsubr
          endchar
        </CharString>
        <CharString name="Eogonek">
          31 336 326 rmoveto
          88 -1 80 -6 77 -8 25 44 17 62 -43 33 -80 -7 -71 -13 -81 -12 26 136 rcurveline
          31 74 rlineto
          11 60 32 -3 44 hhcurveto
          99 -94 94 43 34 67 -40 89 rlinecurve
          -239 17 -136 -3 -244 -20 -17 -17 -3 -35 10 -31 30 -7 23 -8 21 -8 11 -136 rcurveline
          -36 -152 -24 -59 -54 -149 6 -67 54 -42 103 -24 190 11 rcurveline
          -59 -42 -37 -55 -49 vvcurveto
          -72 78 -61 111 88 69 33 60 56 vhcurveto
          2 32 -15 25 -34 -1 rrcurveto
          -32 -39 -48 -16 -43 hhcurveto
          -30 -27 8 16 -21 hvcurveto
          22 85 68 52 74 30 43 52 22 88 -76 24 -101 -27 -126 -22 -99 -16 rrcurveto
          endchar
        </CharString>
        <CharString name="Eth">
          36 callsubr
        </CharString>
        <CharString name="Euro">
          106 597 258 rmoveto
          27 34 4 47 -37 12 -208 -27 rcurveline
          -1 8 0 9 9 vvcurveto
          12 0 13 1 14 vhcurveto
          228 9 27 34 4 47 -37 12 rlinecurve
          -211 -29 16 62 33 65 73 65 rlinecurve
          22 6 28 -40 2 -28 8 -54 rlinecurve
          95 -47 114 47 11 70 -49 96 -30 35 -128 27 -122 -18 -108 -38 -118 -105 -34 -54 -25 -49 -16 -49 -97 11 rcurveline
          -28 -24 -5 -44 22 -21 90 4 rcurveline
          -2 -16 -1 -16 -17 -6 0 -6 -5 vvcurveto
          -97 11 -28 -24 -5 -44 22 -21 rlinecurve
          119 5 34 -126 111 -91 174 -23 rlinecurve
          123 36 111 60 68 71 2 53 -19 34 -58 -4 -59 -42 -54 -27 -91 -32 -44 26 -33 31 -20 44 rrcurveto
          endchar
        </CharString>
        <CharString name="F">
          1 405 628 rmoveto
          11 60 32 -3 44 hhcurveto
          99 -94 94 43 34 67 -40 89 rlinecurve
          -239 17 -136 -3 -244 -20 -17 -17 -3 -35 10 -31 30 -7 23 -8 21 -8 11 -136 rcurveline
          -26 -160 -34 -118 -67 -159 40 -56 168 -18 54 48 rrcurveto
          122 1 61 10 89 vhcurveto
          94 -1 79 -4 71 -11 35 52 1 66 -35 22 -71 -7 -84 -12 -77 -14 31 161 rcurveline
          endchar
        </CharString>
        <CharString name="G">
          73 592 211 -10 callgsubr
          endchar
        </CharString>
        <CharString name="Gbreve">
          73 592 211 -10 callgsubr
          -270 768 rmoveto
          -112 15 97 -58 90 hhcurveto
          59 callsubr
          endchar
        </CharString>
        <CharString name="H">
          165 765 469 rmoveto
          92 266 rlineto
          12 -25 -31 6 -37 hhcurveto
          -50 -61 -13 -29 -60 hvcurveto
          3 -166 -6 -34 -6 -34 -7 -34 rlinecurve
          -208 -28 -31 1 1 15 2 15 1 14 rlinecurve
          95 275 rlineto
          12 -25 -31 6 -37 hhcurveto
          -50 -61 -13 -29 -60 hvcurveto
          3 -166 -7 -40 -8 -41 -8 -41 rlinecurve
          -90 3 -36 -50 1 -30 31 -37 rlinecurve
          71 6 -21 -91 -25 -88 -30 -80 rlinecurve
          25 -53 174 -25 62 53 8 108 4 102 6 90 rrcurveto
          1 hlineto
          223 15 -22 -101 -27 -99 -34 -90 rlinecurve
          25 -53 174 -25 62 53 9 120 4 112 6 97 100 7 rcurveline
          31 57 2 35 -35 22 rrcurveto
          endchar
        </CharString>
        <CharString name="I">
          -35 callgsubr
          endchar
        </CharString>
        <CharString name="Iacute">
          -35 callgsubr
          211 347 224 callgsubr
        </CharString>
        <CharString name="Icircumflex">
          -35 callgsubr
          -94 144 rmoveto
          4 -33 40 -16 48 2 167 147 rcurveline
          6 callsubr
          endchar
        </CharString>
        <CharString name="Idieresis">
          -35 callgsubr
          30 115 -10 callsubr
          endchar
        </CharString>
        <CharString name="Idotaccent">
          -35 callgsubr
          156 125 102 callsubr
          endchar
        </CharString>
        <CharString name="Igrave">
          -35 callgsubr
          190 334 68 callsubr
          endchar
        </CharString>
        <CharString name="Imacron">
          -35 callgsubr
          369 198 43 callgsubr
          endchar
        </CharString>
        <CharString name="Iogonek">
          -340 394 735 rmoveto
          12 -25 -31 6 -37 hhcurveto
          -50 -61 -13 -29 -60 hvcurveto
          3 -166 -30 -167 -36 -174 -56 -148 rlinecurve
          8 -16 21 -14 28 -9 rrcurveto
          -61 -37 -48 -54 -63 vvcurveto
          -70 87 -63 103 84 87 32 63 42 vhcurveto
          12 35 -17 24 -47 -3 rrcurveto
          -29 -37 -42 -14 -38 hhcurveto
          -34 -31 11 22 -22 hvcurveto
          8 63 91 63 39 18 11 4 9 5 8 7 12 163 4 149 11 117 rrcurveto
          endchar
        </CharString>
        <CharString name="J">
          48 382 612 rmoveto
          1 -72 -14 -162 -25 -99 -36 -152 rlinecurve
          -23 -8 -26 45 -8 20 -15 76 rlinecurve
          -72 39 -85 -27 -64 -77 43 -95 64 -55 79 -37 172 -27 87 40 67 80 rrcurveto
          161 1 56 5 125 vhcurveto
          46 186 187 -40 54 78 -8 44 -23 30 rlinecurve
          -266 19 -123 -4 -259 -21 -21 -50 4 -44 44 -57 rrcurveto
          endchar
        </CharString>
        <CharString name="K">
          56 432 510 73 callgsubr
        </CharString>
        <CharString name="L">
          -65 155 711 28 callsubr
        </CharString>
        <CharString name="Lacute">
          -65 354 1058 -40 callgsubr
          -199 -347 28 callsubr
        </CharString>
        <CharString name="Lcaron">
          -65 522 521 30 callsubr
          -367 190 28 callsubr
        </CharString>
        <CharString name="Lslash">
          15 391 406 rmoveto
          196 19 43 63 -26 46 -51 12 rlinecurve
          -136 -47 82 236 -66 32 -107 -12 -91 -44 rlinecurve
          2 -170 -8 -36 -8 -34 -9 -35 rlinecurve
          -178 -6 -21 -28 4 -59 52 -39 rlinecurve
          117 40 -20 -68 -23 -70 -28 -74 rlinecurve
          19 -63 66 -44 75 -25 364 44 rcurveline
          31 35 19 88 -69 29 -90 -28 -74 -22 -100 -19 rrcurveto
          endchar
        </CharString>
        <CharString name="M">
          260 649 500 rmoveto
          -146 -193 -42 83 -30 134 -17 81 -3 110 rlinecurve
          26 -43 -43 12 -42 hhcurveto
          -48 -47 -15 -29 -48 hvcurveto
          -6 -167 -28 -157 -35 -173 -60 -156 rlinecurve
          24 -53 175 -25 61 53 12 168 9 149 7 111 8 23 rcurveline
          12 -74 18 -79 33 -100 45 -48 68 -14 70 33 160 246 rcurveline
          -2 -11 -17 -107 -29 -121 -53 -151 rlinecurve
          25 -53 173 -25 62 53 8 150 7 140 10 133 89 261 rcurveline
          28 -19 -40 10 -45 hhcurveto
          -43 -47 -17 -15 -38 hvcurveto
          endchar
        </CharString>
        <CharString name="N">
          124 598 535 -64 callgsubr
        </CharString>
        <CharString name="NULL">
          endchar
        </CharString>
        <CharString name="Nacute">
          124 737 987 41 callgsubr
          73 -272 -64 callgsubr
        </CharString>
        <CharString name="Ncaron">
          124 809 1015 rmoveto
          -32 64 -111 -22 -32 -9 -136 -157 rcurveline
          -39 callsubr
          -32 -302 -64 callgsubr
        </CharString>
        <CharString name="Ntilde">
          124 424 897 156 callsubr
          248 -274 -64 callgsubr
        </CharString>
        <CharString name="O">
          110 callgsubr
          endchar
        </CharString>
        <CharString name="OE">
          399 616 710 rmoveto
          25 -44 -59 33 -65 hhcurveto
          -222 -187 -225 -217 -158 170 -168 131 61 66 31 23 40 hvcurveto
          38 -26 30 -15 58 -12 374 24 rcurveline
          43 52 22 88 -76 24 -101 -27 -116 -23 -99 -16 22 203 rcurveline
          81 -2 95 -6 72 -7 25 44 17 62 -43 33 -74 -6 -86 -12 -73 -11 30 162 rcurveline
          38 50 rlineto
          11 60 39 -3 44 hhcurveto
          99 -94 94 43 34 67 -40 89 rlinecurve
          -223 16 -140 -2 -135 -50 rrcurveto
          -350 -371 rmoveto
          99 75 145 96 77 vhcurveto
          76 -76 33 -60 2 -105 -35 -140 -79 -105 -91 -65 rrcurveto
          -43 64 -34 75 91 vvcurveto
          endchar
        </CharString>
        <CharString name="Oacute">
          45 513 1058 -40 callgsubr
          -474 -732 -69 callgsubr
          endchar
        </CharString>
        <CharString name="Ocircumflex">
          45 208 855 rmoveto
          4 -33 40 -16 48 2 167 147 rcurveline
          6 callsubr
          -384 -727 -69 callgsubr
          endchar
        </CharString>
        <CharString name="Odieresis">
          45 332 826 -10 callsubr
          -576 -500 -69 callgsubr
          endchar
        </CharString>
        <CharString name="Ograve">
          110 callgsubr
          -40 668 68 callsubr
          endchar
        </CharString>
        <CharString name="Ohungarumlaut">
          45 254 816 89 callgsubr
          -516 -678 -69 callgsubr
          endchar
        </CharString>
        <CharString name="Omacron">
          45 671 909 43 callgsubr
          -632 -583 -69 callgsubr
          endchar
        </CharString>
        <CharString name="Oslash">
          87 540 427 rmoveto
          2 -16 2 -17 2 -17 -24 -100 -78 -104 -87 -64 -26 39 -23 43 -14 48 rrcurveto
          -13 77 rmoveto
          -1 8 0 7 8 vvcurveto
          99 75 145 96 77 vhcurveto
          40 -58 23 -53 14 -55 rrcurveto
          306 159 rmoveto
          -6 63 -41 31 -86 5 -50 -87 rcurveline
          63 -59 -73 40 -57 hhcurveto
          -222 -187 -225 -217 -48 16 -50 26 -45 hvcurveto
          -99 -71 4 -62 36 -26 80 -24 rlinecurve
          52 90 rlineto
          -54 57 69 -36 60 hhcurveto
          197 212 216 209 -3 hvcurveto
          -1 49 -14 49 -23 44 rrcurveto
          endchar
        </CharString>
        <CharString name="Otilde">
          110 callgsubr
          -135 638 rmoveto
          34 callsubr
          -71 -96 rcurveline
          -5 hlineto
          -36 32 -76 53 -116 22 rrcurveto
          endchar
        </CharString>
        <CharString name="P">
          43 396 647 rmoveto
          84 -16 59 -61 -60 vvcurveto
          -1 -48 -18 -49 -28 -35 -25 -20 -58 -22 -68 -17 3 45 3 47 4 49 rrcurveto
          -181 171 rmoveto
          16 -84 -33 -198 -31 -116 -59 -178 rlinecurve
          36 -58 168 -15 57 49 5 72 3 63 4 61 108 13 65 22 52 15 123 62 71 62 3 117 rrcurveto
          117 3 -162 130 -211 hhcurveto
          -102 -108 -16 -27 -75 hvcurveto
          -17 -24 8 -39 30 -19 rrcurveto
          endchar
        </CharString>
        <CharString name="Q">
          45 437 660 rmoveto
          67 -96 18 -83 10 -104 -24 -100 -78 -104 -87 -64 rrcurveto
          -43 64 -34 75 91 vvcurveto
          99 75 145 96 77 vhcurveto
          35 -630 rmoveto
          149 66 127 167 -2 162 rrcurveto
          178 -3 -179 165 -116 hhcurveto
          -222 -187 -225 -217 -158 170 -168 131 hvcurveto
          10 hlineto
          90 -186 78 -45 132 35 13 129 rlinecurve
          -169 55 rlineto
          endchar
        </CharString>
        <CharString name="R">
          64 397 649 -68 callgsubr
          endchar
        </CharString>
        <CharString name="Racute">
          64 646 987 41 callgsubr
          -37 -158 -68 callgsubr
          endchar
        </CharString>
        <CharString name="Rcaron">
          64 718 1015 rmoveto
          -32 64 -111 -22 -32 -9 -136 -157 rcurveline
          -39 callsubr
          -142 -188 -68 callgsubr
          endchar
        </CharString>
        <CharString name="S">
          28 691 263 rmoveto
          -36 callgsubr
          48 -79 121 -60 129 -17 198 14 157 93 24 156 rrcurveto
          endchar
        </CharString>
        <CharString name="Sacute">
          28 493 1058 -40 callgsubr
          198 -795 rmoveto
          -36 callgsubr
          48 -79 121 -60 129 -17 198 14 157 93 24 156 rrcurveto
          endchar
        </CharString>
        <CharString name="Scaron">
          28 578 837 rmoveto
          179 178 -32 64 -111 -22 -32 -9 rlinecurve
          -136 -157 -39 callsubr
          113 -574 rmoveto
          -36 callgsubr
          48 -79 121 -60 129 -17 198 14 157 93 24 156 rrcurveto
          endchar
        </CharString>
        <CharString name="T">
          31 317 608 58 callgsubr
        </CharString>
        <CharString name="Tcaron">
          31 758 1015 rmoveto
          -32 64 -111 -22 -32 -9 -136 -157 rcurveline
          -39 callsubr
          -262 -229 58 callgsubr
        </CharString>
        <CharString name="Thorn">
          20 465 304 rmoveto
          -32 -32 -59 -9 -66 12 4 82 5 84 4 77 rrcurveto
          11 26 35 9 47 hhcurveto
          45 -14 30 -36 -73 vvcurveto
          2 -38 -13 -41 -28 -32 rrcurveto
          -69 532 rmoveto
          -70 28 -94 -12 -90 -53 12 -261 rcurveline
          -28 -172 -44 -171 -60 -139 25 -53 184 -25 61 56 4 52 4 55 3 57 66 -11 74 -2 92 17 rrcurveto
          130 68 59 64 90 vvcurveto
          2 143 -141 68 -155 16 -30 -9 -36 -16 -34 -16 rrcurveto
          endchar
        </CharString>
        <CharString name="U">
          5 callsubr
          endchar
        </CharString>
        <CharString name="Uacute">
          39 515 1058 -40 callgsubr
          189 -729 -82 callsubr
          endchar
        </CharString>
        <CharString name="Ucircumflex">
          39 210 855 rmoveto
          4 -33 40 -16 48 2 167 147 rcurveline
          6 callsubr
          279 -724 -82 callsubr
          endchar
        </CharString>
        <CharString name="Udieresis">
          39 334 826 -10 callsubr
          87 -497 -82 callsubr
          endchar
        </CharString>
        <CharString name="Ugrave">
          5 callsubr
          -210 716 68 callsubr
          endchar
        </CharString>
        <CharString name="Uhungarumlaut">
          5 callsubr
          -448 487 89 callgsubr
          endchar
        </CharString>
        <CharString name="Umacron">
          5 callsubr
          -31 580 43 callgsubr
          endchar
        </CharString>
        <CharString name="Uogonek">
          39 545 485 rmoveto
          -20 -152 -28 -96 -57 -107 rrcurveto
          -180 11 99 135 20 hvcurveto
          16 101 37 127 49 155 rrcurveto
          12 -25 -31 6 -36 hhcurveto
          -51 -62 -13 -29 -60 hvcurveto
          -18 -184 -17 -134 -34 -177 14 -95 65 -80 104 -34 rrcurveto
          -63 -39 -38 -53 -54 vvcurveto
          -75 72 -66 137 77 80 32 61 45 vhcurveto
          3 35 -16 25 -36 -4 rrcurveto
          -29 -32 -46 -17 -42 hhcurveto
          -37 -34 14 29 -18 hvcurveto
          6 55 60 55 68 18 154 26 90 123 32 174 23 128 24 154 15 136 rrcurveto
          12 -24 -31 6 -37 hhcurveto
          -51 -62 -13 -29 -60 hvcurveto
          endchar
        </CharString>
        <CharString name="Uring">
          39 528 1062 120 callgsubr
          205 -681 -82 callsubr
          endchar
        </CharString>
        <CharString name="V">
          71 600 462 rmoveto
          -189 -342 -43 250 4 371 -50 41 -153 -12 -79 -96 rlinecurve
          136 -599 53 -68 111 -24 94 28 rlinecurve
          58 133 76 121 53 78 74 116 rlinecurve
          45 68 30 101 -8 87 -54 51 -151 21 -63 -80 rrcurveto
          endchar
        </CharString>
        <CharString name="W">
          419 953 462 rmoveto
          -159 -344 -54 285 15 293 -97 48 -102 -38 -55 -65 rlinecurve
          66 -237 -147 -287 -47 254 -3 371 -53 38 -142 -5 -86 -102 rlinecurve
          147 -599 58 -66 105 -25 97 28 rlinecurve
          35 122 69 139 23 -204 47 -61 102 -22 97 26 rlinecurve
          44 134 186 316 46 84 21 90 -5 80 rlinecurve
          -61 48 -142 26 -65 -82 rrcurveto
          endchar
        </CharString>
        <CharString name="X">
          116 459 463 rmoveto
          -27 112 -63 128 -88 59 -131 -9 -65 -96 11 -105 110 -26 111 -67 64 -85 -102 -86 -99 -57 -138 -78 -13 -69 35 -76 146 -8 205 292 rcurveline
          29 -105 59 -108 84 -79 153 30 48 102 -34 84 -91 31 -95 51 -77 83 140 112 110 76 90 52 9 77 -39 74 -115 -9 rrcurveto
          endchar
        </CharString>
        <CharString name="Y">
          23 callsubr
          endchar
        </CharString>
        <CharString name="Yacute">
          23 callsubr
          412 416 224 callgsubr
        </CharString>
        <CharString name="Ydieresis">
          23 callsubr
          231 184 -10 callsubr
          endchar
        </CharString>
        <CharString name="Z">
          80 243 80 -52 callsubr
          endchar
        </CharString>
        <CharString name="Zacute">
          80 534 1058 -40 callgsubr
          -291 -978 -52 callsubr
          endchar
        </CharString>
        <CharString name="Zcaron">
          80 619 837 rmoveto
          179 178 -32 64 -111 -22 -32 -9 rlinecurve
          -136 -157 -39 callsubr
          -376 -757 -52 callsubr
          endchar
        </CharString>
        <CharString name="Zdotaccent">
          80 243 80 -52 callsubr
          242 759 102 callsubr
          endchar
        </CharString>
        <CharString name="a">
          86 496 288 -85 callgsubr
          endchar
        </CharString>
        <CharString name="aacute">
          86 736 797 41 callgsubr
          -28 -329 -85 callgsubr
          endchar
        </CharString>
        <CharString name="abreve">
          86 516 625 rmoveto
          59 callsubr
          -112 15 97 -58 90 hhcurveto
          -20 -337 -85 callgsubr
          endchar
        </CharString>
        <CharString name="acircumflex">
          86 498 765 rmoveto
          6 callsubr
          -215 -198 4 -33 40 -16 48 2 rlinecurve
          165 -330 -85 callgsubr
          endchar
        </CharString>
        <CharString name="acute">
          -389 212 868 224 callgsubr
        </CharString>
        <CharString name="adieresis">
          86 646 636 33 callgsubr
          133 -348 -85 callgsubr
          endchar
        </CharString>
        <CharString name="ae">
          418 773 123 rmoveto
          -30 25 -14 24 -6 32 101 20 144 52 77 39 56 131 -42 115 -159 12 -135 -21 -59 -53 -62 -81 42 126 rcurveline
          -12 27 -74 1 -54 -20 -19 -31 -4 -34 3 -45 -25 45 -19 47 -35 28 rrcurveto
          -253 -8 -148 -176 -143 vvcurveto
          -113 75 -99 193 -8 vhcurveto
          48 47 41 49 50 45 9 -10 rcurveline
          -35 -94 9 -45 97 -24 55 29 rlinecurve
          15 124 21 -54 40 -44 86 -38 rlinecurve
          89 10 148 45 58 58 14 68 -32 22 -47 -2 -59 -39 -67 -26 -81 -13 rrcurveto
          45 335 rmoveto
          23 -19 28 -36 -19 -69 -33 -18 -48 -22 -51 -18 3 57 24 60 52 55 rrcurveto
          -365 -10 rmoveto
          30 -17 30 -35 20 -39 -11 -23 -8 -24 -5 -25 -50 -38 -59 -44 -51 -35 rrcurveto
          -24 16 -12 31 34 vvcurveto
          70 52 84 88 45 vhcurveto
          endchar
        </CharString>
        <CharString name="agrave">
          86 490 623 139 callgsubr
          78 -437 -85 callgsubr
          endchar
        </CharString>
        <CharString name="amacron">
          86 686 635 139 callsubr
          194 -335 -85 callgsubr
          endchar
        </CharString>
        <CharString name="ampersand">
          55 686 139 rmoveto
          25 92 -44 70 -87 -14 -65 -60 -46 -39 -89 -39 -41 23 -36 23 -10 35 59 51 91 36 93 15 28 68 -10 51 -54 13 -17 -12 -39 -9 -29 -1 -33 11 -41 22 -14 41 rrcurveto
          51 48 44 26 71 13 65 -96 rcurveline
          119 32 33 35 -33 88 rrcurveto
          31 -49 -50 33 -85 hhcurveto
          -186 -166 -96 -118 -50 hvcurveto
          16 -69 80 -48 99 -3 -114 -21 -72 -82 -33 -76 41 -111 95 -38 145 -33 169 19 64 30 105 59 rrcurveto
          -119 641 rmoveto
          64 214 -54 50 -71 -4 -103 -58 rlinecurve
          1 -181 31 -39 57 -1 75 19 rlinecurve
          -258 -799 rmoveto
          -63 -214 54 -49 70 4 103 58 rlinecurve
          -1 180 -31 39 -57 1 -75 -19 rlinecurve
          endchar
        </CharString>
        <CharString name="aogonek">
          86 496 288 rmoveto
          -53 -40 -68 -51 -57 -39 rrcurveto
          -24 16 -12 31 34 vvcurveto
          70 52 84 88 45 vhcurveto
          31 -18 31 -36 20 -41 rrcurveto
          274 156 rmoveto
          -24 68 -66 11 -139 -26 -19 -31 -4 -34 3 -45 -25 45 -32 47 -35 28 rrcurveto
          -253 -8 -148 -176 -143 vvcurveto
          -113 75 -99 193 -8 vhcurveto
          48 47 59 55 49 45 18 -19 rcurveline
          -43 -86 11 -9 11 -8 13 -7 rlinecurve
          -77 -46 -42 -65 220 callsubr
          61 63 63 80 25 27 4 22 10 13 15 -14 108 -6 96 1 91 rrcurveto
          endchar
        </CharString>
        <CharString name="apostrophemod">
          -299 235 617 rmoveto
          113 callgsubr
          endchar
        </CharString>
        <CharString name="approxequal">
          -14 252 500 153 callgsubr
          -21 -190 153 callgsubr
          endchar
        </CharString>
        <CharString name="aring">
          86 482 740 37 callsubr
          27 -324 -85 callgsubr
          endchar
        </CharString>
        <CharString name="asciicircum">
          -44 56 427 rmoveto
          4 -33 40 -16 48 2 225 385 rcurveline
          75 -365 40 -17 97 -25 72 62 rlinecurve
          -123 416 -54 31 -65 10 -86 -14 rlinecurve
          endchar
        </CharString>
        <CharString name="asciitilde">
          -44 187 466 rmoveto
          -82 -48 -42 -34 -54 -63 -6 -45 73 -26 47 9 64 82 rcurveline
          8 2 70 -51 82 -41 125 -3 rlinecurve
          113 36 38 43 60 75 5 37 -53 19 -54 -7 -63 -85 rcurveline
          -6 hlineto
          54 -80 -94 46 -151 hhcurveto
          endchar
        </CharString>
        <CharString name="asterisk">
          -271 357 809 rmoveto
          106 68 -11 27 -17 20 -28 17 rlinecurve
          -77 -100 35 118 -28 7 -31 0 -31 -7 rlinecurve
          10 -116 -56 96 -29 -14 -23 -20 -17 -28 rlinecurve
          93 -68 -117 24 -14 -30 -2 -31 7 -29 rlinecurve
          121 23 -106 -67 11 -29 18 -20 27 -14 rlinecurve
          77 100 -35 -119 32 -9 32 0 26 9 rlinecurve
          -10 116 56 -97 31 12 22 20 17 31 rlinecurve
          -93 68 116 -24 14 31 2 31 -6 28 rlinecurve
          endchar
        </CharString>
        <CharString name="at">
          589 806 343 rmoveto
          -8 -55 -2 -9 -51 -38 -62 -47 -53 -36 rlinecurve
          -24 16 -12 31 34 vvcurveto
          70 52 84 88 45 vhcurveto
          28 -16 28 -31 19 -35 rrcurveto
          271 143 rmoveto
          -24 68 -66 11 -139 -26 rrcurveto
          -17 -27 -4 -28 -37 vvcurveto
          -23 39 -28 39 -30 24 rrcurveto
          -253 -8 -148 -176 -143 vvcurveto
          -113 75 -99 193 -8 vhcurveto
          53 52 66 61 53 48 10 -5 rcurveline
          -21 -63 17 -70 126 -30 rrcurveto
          198 80 159 189 148 vvcurveto
          245 -233 177 -243 -380 -382 -273 -339 -262 230 -197 307 -32 vhcurveto
          112 18 107 39 81 48 8 69 -29 35 -86 9 -37 -39 -75 -46 -89 -34 rrcurveto
          -259 52 -76 162 184 vvcurveto
          235 270 235 277 34 vhcurveto
          206 -25 152 -79 22 -232 -33 -122 -63 -78 -110 -85 5 68 6 70 16 64 rrcurveto
          endchar
        </CharString>
        <CharString name="atilde">
          86 496 288 -85 callgsubr
          -18 392 rmoveto
          182 callgsubr
          34 callsubr
          rrcurveto
          endchar
        </CharString>
        <CharString name="b">
          39 278 109 rmoveto
          10 62 10 68 3 74 47 44 38 35 44 30 43 -18 21 -22 10 -53 -16 -98 -89 -82 -121 -40 rrcurveto
          -7 308 rmoveto
          48 81 6 66 64 273 -62 24 -71 1 -112 -49 rlinecurve
          15 -275 -25 -117 -45 -168 -40 -109 rlinecurve
          21 -59 55 -67 146 -19 187 41 205 63 64 217 -21 159 -69 73 -218 10 -52 -58 -38 -47 -44 -53 rrcurveto
          endchar
        </CharString>
        <CharString name="backslash">
          -150 67 855 rmoveto
          290 -963 81 -22 30 16 15 44 rlinecurve
          -208 443 -71 494 -79 33 -27 -6 -31 -39 rlinecurve
          endchar
        </CharString>
        <CharString name="bar">
          -304 158 624 rmoveto
          -22 -186 -90 -439 -61 -156 24 -52 160 -25 63 51 19 183 74 416 14 91 119 490 rcurveline
          11 -26 -30 6 -37 hhcurveto
          -50 -49 -13 -30 -60 hvcurveto
          endchar
        </CharString>
        <CharString name="braceleft">
          -36 614 779 rmoveto
          58 20 32 32 49 vvcurveto
          51 -69 -71 26 -82 hhcurveto
          -68 -74 -23 -52 -51 hvcurveto
          -190 43 -75 -172 -134 hhcurveto
          -34 -105 65 -27 35 -94 -4 -78 rlinecurve
          -3 -78 -40 -76 -70 -55 28 -79 95 -63 84 -17 88 5 90 27 49 25 -4 31 -19 36 -22 13 -130 -25 rcurveline
          -14 23 82 70 44 70 4 77 rlinecurve
          2 83 -44 71 -96 56 7 26 rcurveline
          110 -6 82 75 22 119 11 60 -5 73 -26 77 22 14 rcurveline
          endchar
        </CharString>
        <CharString name="braceright">
          -36 531 597 rmoveto
          4 78 39 76 71 55 -29 78 -95 66 -86 15 -86 -4 -88 -27 -50 -26 5 -31 18 -37 21 -12 131 25 rcurveline
          16 -24 -85 -68 -44 -71 -2 -77 rlinecurve
          -4 -83 44 -70 98 -56 -9 -24 rcurveline
          -108 5 -83 -77 -22 -119 -12 -60 5 -73 27 -77 -23 -14 rcurveline
          -82 69 rlineto
          -58 -20 -32 -31 -50 vvcurveto
          71 -51 69 -24 82 -2 70 1 73 22 50 52 rrcurveto
          190 -42 74 172 134 hhcurveto
          34 105 -64 28 -35 95 3 76 rlinecurve
          endchar
        </CharString>
        <CharString name="bracketleft">
          -15 619 868 rmoveto
          117 -7 24 29 2 30 -5 25 rlinecurve
          -481 -6 -59 -515 -129 -471 rlineto
          -33 17 -21 37 -24 vhcurveto
          414 44 28 39 1 25 -14 20 rlinecurve
          -217 -28 60 345 61 336 51 208 rlineto
          endchar
        </CharString>
        <CharString name="bracketright">
          -8 496 232 rmoveto
          152 610 -2 38 -10 24 -28 30 rlinecurve
          -450 7 -15 -25 4 -8 24 -47 rlinecurve
          192 6 -67 -443 -79 -457 -215 -4 -20 -47 -2 -18 17 -27 rlinecurve
          480 49 rlineto
          endchar
        </CharString>
        <CharString name="breve">
          -257 116 795 rmoveto
          -112 15 97 -58 90 hhcurveto
          59 callsubr
          endchar
        </CharString>
        <CharString name="brokenbar">
          -305 187 783 rmoveto
          -22 -102 -21 -64 -36 -115 42 -51 144 -9 58 49 12 121 11 81 5 40 79 248 rcurveline
          27 -18 -45 19 -58 hhcurveto
          -38 -45 -8 -22 -46 hvcurveto
          -144 -873 rmoveto
          -22 -102 -20 -64 -37 -114 28 -50 158 -22 58 45 12 121 11 96 4 40 66 236 rcurveline
          23 -31 -37 11 -46 hhcurveto
          -34 -39 -5 -14 -49 hvcurveto
          endchar
        </CharString>
        <CharString name="bullet">
          -124 231 183 rmoveto
          96 97 59 102 77 hvcurveto
          106 -10 -89 118 -77 hhcurveto
          -113 -15 -93 -111 -27 -119 rrcurveto
          -82 7 57 -58 75 hhcurveto
          endchar
        </CharString>
        <CharString name="c">
          -60 419 574 23 callgsubr
        </CharString>
        <CharString name="cacute">
          -60 444 868 -40 callgsubr
          -25 -294 23 callgsubr
        </CharString>
        <CharString name="caron">
          -132 466 647 rmoveto
          179 178 -32 64 -111 -22 -32 -9 rlinecurve
          -136 -157 -39 callsubr
          endchar
        </CharString>
        <CharString name="ccaron">
          -60 529 647 rmoveto
          179 178 -32 64 -111 -22 -32 -9 rlinecurve
          -136 -157 -39 callsubr
          -110 -73 23 callgsubr
        </CharString>
        <CharString name="ccedilla">
          -60 368 462 rmoveto
          17 -41 17 -42 -8 -65 124 -15 81 31 17 74 -31 98 -28 47 -138 25 -113 -23 -93 -48 -78 -63 rrcurveto
          -56 -57 -43 -61 -95 vvcurveto
          -104 62 -97 186 -24 vhcurveto
          -49 -99 rlineto
          -53 callgsubr
          45 87 83 23 71 38 43 42 rlinecurve
          64 18 -30 27 -47 hhcurveto
          -61 -45 -71 -29 -67 -17 -41 46 -15 47 1 51 1 58 12 62 48 68 rrcurveto
          endchar
        </CharString>
        <CharString name="cedilla">
          -276 119 35 rmoveto
          -66 -132 rlineto
          -53 callgsubr
          53 103 rlineto
          endchar
        </CharString>
        <CharString name="cent">
          -52 364 462 rmoveto
          -58 -311 -24 37 -9 38 1 40 rlinecurve
          1 58 12 62 48 68 rrcurveto
          141 192 rmoveto
          -14 31 -24 11 -34 -11 -21 -111 rcurveline
          -97 -25 -82 -45 -70 -56 rrcurveto
          -56 -57 -43 -61 -95 vvcurveto
          -100 57 -93 170 -29 vhcurveto
          -31 -99 15 -31 28 -15 33 9 rlinecurve
          22 135 121 19 92 47 54 52 rlinecurve
          64 18 -30 27 -47 hhcurveto
          -56 -41 -61 -28 -72 -18 48 300 rcurveline
          14 -27 15 -36 6 -49 108 -10 78 32 21 82 -41 84 -43 43 -107 23 rrcurveto
          endchar
        </CharString>
        <CharString name="circumflex">
          -124 93 665 rmoveto
          4 -33 40 -16 48 2 167 147 rcurveline
          6 callsubr
          endchar
        </CharString>
        <CharString name="colon">
          -366 94 hmoveto
          55 56 34 60 43 hvcurveto
          60 -5 -52 67 -44 hhcurveto
          -64 -8 -53 -63 -16 -69 rrcurveto
          -48 4 33 -33 43 hhcurveto
          60 213 callgsubr
          endchar
        </CharString>
        <CharString name="comma">
          -373 233 64 138 callgsubr
        </CharString>
        <CharString name="copyright">
          227 44 359 rmoveto
          211 callsubr
          286 callsubr
          rrcurveto
          817 53 rmoveto
          -38 -185 -104 -158 -282 -25 214 callsubr
          rrcurveto
          -142 67 rmoveto
          -26 81 -23 39 -114 21 -94 -19 -77 -40 -64 -52 rrcurveto
          -47 -48 -35 -50 -79 vvcurveto
          -88 53 -82 163 -18 vhcurveto
          102 13 90 41 49 47 rrcurveto
          53 15 -25 23 -39 hhcurveto
          -51 -38 -58 -24 -56 -14 -34 38 -12 39 1 43 rrcurveto
          48 10 51 40 56 vhcurveto
          27 7 14 -34 14 -35 -7 -54 rlinecurve
          103 -12 67 26 14 61 rrcurveto
          endchar
        </CharString>
        <CharString name="currency">
          189 443 204 rmoveto
          -31 32 -25 56 1 42 2 83 61 98 64 61 43 -58 16 -48 4 -92 -21 -68 -43 -55 -71 -51 rrcurveto
          225 415 rmoveto
          32 -39 -45 21 -43 hhcurveto
          -90 -76 -32 -46 -60 hvcurveto
          -100 119 -123 -7 -38 -81 45 -58 rlinecurve
          133 -59 rlineto
          -40 -55 -22 -59 -43 vvcurveto
          -35 11 -35 18 -33 vhcurveto
          -127 -58 -45 -58 37 -81 123 -6 rlinecurve
          92 111 rlineto
          -34 42 51 -21 49 hhcurveto
          74 72 25 39 60 hvcurveto
          90 -109 124 6 37 81 -45 58 rlinecurve
          -110 51 rlineto
          39 49 24 56 54 vvcurveto
          -1 35 -14 40 -22 38 122 56 rcurveline
          46 58 -38 81 -123 6 rrcurveto
          endchar
        </CharString>
        <CharString name="d">
          55 69 callsubr
          endchar
        </CharString>
        <CharString name="dagger">
          -150 399 614 rmoveto
          4 17 91 201 -69 25 -78 -2 -112 -51 rlinecurve
          5 -198 -132 17 -38 -48 -2 -28 30 -42 rlinecurve
          130 11 -136 -892 24 -15 27 -5 26 11 rlinecurve
          210 914 163 -14 32 49 4 34 -26 30 rlinecurve
          endchar
        </CharString>
        <CharString name="daggerdbl">
          -126 404 556 rmoveto
          165 -15 32 50 3 34 -25 30 rlinecurve
          -155 -15 2 8 78 218 -65 25 -66 -1 -112 -52 rlinecurve
          2 -205 -129 16 -37 -47 -2 -29 29 -42 rlinecurve
          133 12 -30 -283 -74 -329 -162 14 -32 -50 -3 -34 25 -29 rlinecurve
          153 14 -2 -10 -77 -216 69 -25 62 1 112 52 rlinecurve
          -2 206 130 -17 37 47 2 29 -29 42 rlinecurve
          -134 -11 31 310 rlineto
          endchar
        </CharString>
        <CharString name="danda">
          -204 277 508 117 callsubr
          endchar
        </CharString>
        <CharString name="dcaron">
          126 69 callsubr
          322 -57 0 callgsubr
          endchar
        </CharString>
        <CharString name="dcroat">
          55 496 288 rmoveto
          -53 -40 -69 -51 -57 -39 -24 16 -13 31 2 34 3 69 48 84 89 45 36 -20 27 -32 28 -42 rrcurveto
          250 366 rmoveto
          37 128 -59 27 -74 -2 -113 -49 rlinecurve
          5 -111 -80 2 -25 -36 -4 -26 15 -19 rlinecurve
          97 3 4 -88 -7 -38 -9 -37 -10 -36 rlinecurve
          -24 51 -36 54 -33 30 -254 -3 -152 -171 -6 -153 -5 -116 92 -102 180 -2 48 46 55 51 47 43 13 -15 rcurveline
          -63 -82 58 -69 153 -4 54 46 rlinecurve
          26 231 21 163 14 164 12 43 rcurveline
          109 3 32 39 4 33 -20 12 rlinecurve
          endchar
        </CharString>
        <CharString name="degree">
          -123 384 783 rmoveto
          -180 -118 -117 -103 2 hvcurveto
          -60 2 106 -82 101 hhcurveto
          154 149 103 94 -4 hvcurveto
          72 -1 -116 93 -95 hhcurveto
          -19 -66 rmoveto
          20 -37 17 -29 5 -53 -13 -42 -27 -32 -51 -31 rrcurveto
          -12 20 -18 33 25 vvcurveto
          -2 49 39 59 42 38 rrcurveto
          endchar
        </CharString>
        <CharString name="dieresis">
          -192 196 636 -10 callsubr
          endchar
        </CharString>
        <CharString name="divide">
          147 799 435 rmoveto
          -348 -21 -360 6 -25 -37 -4 -42 15 -20 rlinecurve
          705 11 32 41 4 49 -19 13 rlinecurve
          -430 -345 rmoveto
          39 39 26 40 32 hvcurveto
          44 -3 -37 50 -32 hhcurveto
          -46 -7 -38 -46 -11 -48 rrcurveto
          -35 3 23 -24 31 hhcurveto
          72 404 rmoveto
          40 40 25 42 30 hvcurveto
          43 -2 -37 49 -32 hhcurveto
          -47 -5 -37 -45 -11 -50 rrcurveto
          -35 2 23 -24 31 hhcurveto
          endchar
        </CharString>
        <CharString name="dollar">
          28 384 267 rmoveto
          34 -18 23 -16 -18 vvcurveto
          -42 -35 -37 -47 -19 vhcurveto
          24 390 rmoveto
          -44 24 -30 21 17 vvcurveto
          26 52 32 48 22 vhcurveto
          39 -7 rmoveto
          1 vlineto
          18 -27 14 -37 2 -56 136 -28 65 33 23 97 -39 66 -75 52 -100 17 32 86 rcurveline
          -15 31 -24 11 -34 -11 -21 -113 rcurveline
          -162 -20 -129 -80 -63 -126 20 -138 145 -65 101 -47 -30 -164 rcurveline
          -2 -5 -32 53 -26 50 -7 60 rlinecurve
          -125 39 -66 -80 -40 -85 43 -71 103 -56 114 -23 -33 -100 rcurveline
          15 -31 28 -15 33 9 23 133 rcurveline
          184 21 144 91 23 149 -27 97 -140 72 -102 54 rrcurveto
          endchar
        </CharString>
        <CharString name="dotaccent">
          -456 208 646 102 callsubr
          endchar
        </CharString>
        <CharString name="dotlessi">
          179 callgsubr
          endchar
        </CharString>
        <CharString name="dottedcircle">
          -36 139 517 rmoveto
          -26 18 -19 26 26 18 19 26 25 -18 19 -26 -26 -18 -19 -25 vhcurveto
          -82 -110 rmoveto
          -25 20 -19 26 24 20 19 25 25 -20 19 -24 -26 -20 -19 -25 vhcurveto
          -13 -126 rmoveto
          -25 19 -18 25 26 18 18 287 callsubr
          52 -116 rmoveto
          -26 18 -18 26 25 19 18 26 25 -19 19 -25 -26 -18 -19 -25 vhcurveto
          101 -75 rmoveto
          -26 19 -20 26 25 19 20 26 24 -19 20 -25 -26 -19 -20 -24 vhcurveto
          127 -16 rmoveto
          -26 18 -18 26 26 19 18 26 26 -19 18 -26 -26 -18 -18 -26 vhcurveto
          121 53 rmoveto
          -26 19 -18 25 25 20 18 26 25 -20 19 -25 -25 -19 -19 -25 vhcurveto
          73 98 rmoveto
          -25 19 -19 26 24 19 19 25 26 -19 19 -24 -26 -19 -19 -26 vhcurveto
          10 134 rmoveto
          -26 18 -18 26 25 19 18 26 26 -19 18 -25 -26 -18 -18 -26 vhcurveto
          -50 118 rmoveto
          -25 19 -19 25 26 18 19 287 callsubr
          -95 68 rmoveto
          -24 19 -20 26 25 18 20 24 26 -18 19 -25 -26 -19 -19 -26 vhcurveto
          -126 15 rmoveto
          -26 18 -18 26 26 18 18 26 26 -18 18 -26 -26 -18 -18 -26 vhcurveto
          endchar
        </CharString>
        <CharString name="doubledanda">
          104 585 508 117 callsubr
          -309 -212 117 callsubr
          endchar
        </CharString>
        <CharString name="dvA">
          316 439 216 88 callsubr
          732 388 rmoveto
          -165 -70 callsubr
          143 hlineto
          17 12 8 18 4 17 rrcurveto
          endchar
        </CharString>
        <CharString name="dvAA">
          696 439 216 88 callsubr
          1112 388 rmoveto
          -151 hlineto
          -81 callsubr
          rrcurveto
          endchar
        </CharString>
        <CharString name="dvAI">
          3 460 804 16 callsubr
          491 -108 -20 callsubr
        </CharString>
        <CharString name="dvAU">
          696 1109 121 callsubr
          -577 -583 88 callsubr
          1112 388 rmoveto
          -151 hlineto
          -81 callsubr
          rrcurveto
          endchar
        </CharString>
        <CharString name="dvAbbreviationsign">
          -234 267 416 rmoveto
          -133 -87 -86 -76 1 hvcurveto
          -44 2 78 -60 74 hhcurveto
          114 110 76 69 -3 hvcurveto
          53 -1 -85 68 -70 hhcurveto
          -15 -48 rmoveto
          15 -28 13 -21 3 -39 -9 -31 -20 -23 -38 -23 rrcurveto
          -8 14 -14 25 18 vvcurveto
          -1 36 29 44 30 28 rrcurveto
          endchar
        </CharString>
        <CharString name="dvAcandra">
          316 910 680 rmoveto
          116 107 61 82 53 hvcurveto
          -28 63 -67 30 -52 -28 -13 -52 -36 -58 -68 -14 41 callsubr
          82 hhcurveto
          -471 -464 88 callsubr
          567 388 rmoveto
          -100 callsubr
          -37 callsubr
          -90 -106 callgsubr
          94 hlineto
          -23 -104 -75 -37 -75 -37 -75 -38 rlinecurve
          -48 18 -60 9 -70 -2 -3 10 rcurveline
          109 13 132 48 39 111 -28 63 -42 50 -74 24 -114 11 -80 -12 -98 -44 -43 -50 41 -70 92 -30 56 36 41 16 65 5 6 -10 rcurveline
          -27 -36 -41 -40 -77 -27 -32 1 -32 2 -32 1 -41 -28 0 -91 75 -52 30 8 269 callsubr
          15 -4 15 -4 16 -3 rrcurveto
          -218 -70 -161 -8 -74 vvcurveto
          -50 105 -71 120 -11 vhcurveto
          157 -3 255 102 127 vvcurveto
          28 -12 26 -22 21 vhcurveto
          155 65 2 -6 -36 -42 -56 -258 -107 callsubr
          -12 15 rcurveline
          endchar
        </CharString>
        <CharString name="dvAnusvara">
          -81 720 200 callgsubr
          endchar
        </CharString>
        <CharString name="dvAnusvara.amI">
          -81 680 200 callgsubr
          endchar
        </CharString>
        <CharString name="dvAvagraha">
          -107 283 500 rmoveto
          65 13 204 13 118 -7 40 50 -7 38 -42 20 -136 9 -271 -29 -101 -39 -70 -45 -31 -77 -1 -31 -3 -84 290 -62 -2 -54 -1 -45 -38 -41 -60 -24 -61 16 -59 32 -51 46 rrcurveto
          -51 -2 -11 -21 -5 -52 rrcurveto
          -40 35 130 -84 68 hhcurveto
          114 186 127 121 4 hvcurveto
          4 108 -213 54 -71 55 8 16 5 8 14 11 rrcurveto
          endchar
        </CharString>
        <CharString name="dvB">
          -319 380 253 rmoveto
          -28 -21 -30 -21 -29 -21 rrcurveto
          -26 16 -15 25 37 vvcurveto
          24 10 25 16 22 vhcurveto
          23 -25 43 -35 36 -26 rrcurveto
          140 124 rmoveto
          -29 44 -76 88 -60 21 60 callgsubr
          67 65 108 101 38 38 -40 42 rcurveline
          -11 -10 -13 -11 -14 -11 -40 32 -37 35 -28 31 17 14 19 13 18 8 31 -21 36 -35 25 -29 rrcurveto
          184 290 rmoveto
          -648 -106 callgsubr
          648 -101 callgsubr
        </CharString>
        <CharString name="dvBA">
          61 464 321 -57 callsubr
          650 359 -22 callsubr
          -516 -106 callgsubr
          524 117 callgsubr
        </CharString>
        <CharString name="dvBH">
          -166 261 81 callsubr
          302 -97 rmoveto
          -38 -18 -45 -21 -49 -21 16 90 8 85 -6 55 127 callgsubr
          -2 -11 -2 -11 -3 -10 rlinecurve
          -79 -30 -78 -26 -65 -15 -42 -14 -15 -56 -1 -34 29 -52 65 -59 65 -19 61 -11 101 21 52 49 29 61 27 87 20 90 57 25 58 26 58 28 rrcurveto
          164 179 rmoveto
          -208 -106 callgsubr
          208 -101 callgsubr
        </CharString>
        <CharString name="dvBHA">
          216 261 81 callsubr
          18 -161 rmoveto
          278 callsubr
          -79 -30 -78 -26 -65 -15 -42 -14 -15 -56 -1 -34 29 -52 65 -59 65 -19 61 -11 101 21 52 49 29 61 27 87 20 90 39 17 38 -75 callsubr
          -38 -18 -45 -21 -49 -21 16 90 8 85 -6 55 149 callgsubr
          827 232 rmoveto
          -431 -106 callgsubr
          431 -101 callgsubr
        </CharString>
        <CharString name="dvBH_LA">
          802 270 173 -53 callsubr
          1299 16 -104 callsubr
          238 callsubr
          631 107 callgsubr
          -87 -35 -88 -61 -44 -67 -44 11 -47 9 -50 5 29 123 18 129 -13 60 rrcurveto
          52 -29 -48 25 -84 hhcurveto
          -54 -52 -124 -63 -76 -29 -28 -17 -11 -40 -5 -37 27 -52 49 -45 81 -31 72 callgsubr
          -3 -10 -1 -9 -10 vvcurveto
          -76 112 -132 108 -51 vhcurveto
          -93 callgsubr
        </CharString>
        <CharString name="dvBH_NA">
          735 828 177 -59 callgsubr
          -570 -10 -53 callsubr
          18 -161 rmoveto
          -18 callgsubr
          60 -3 59 -9 53 -9 -12 -26 -4 -35 7 -39 rrcurveto
          40 -54 67 -35 84 -78 callsubr
          -125 -62 -211 -86 -127 -38 -59 20 -70 16 -76 8 29 123 18 129 -13 60 149 callgsubr
          1346 232 223 callsubr
        </CharString>
        <CharString name="dvBH_R">
          -166 272 219 callsubr
          34 11 35 11 35 12 -7 -23 -8 -24 -13 -32 217 callsubr
          302 -97 rmoveto
          -37 -19 -45 -20 -50 -21 15 85 8 84 -5 61 127 callgsubr
          -4 -22 -74 -24 -71 -20 -57 -11 rlinecurve
          157 callgsubr
          22 50 23 76 19 82 57 24 58 26 57 29 rrcurveto
          -70 -190 154 callsubr
          endchar
        </CharString>
        <CharString name="dvBH_RA">
          216 272 219 callsubr
          34 11 35 11 35 12 -7 -23 -8 -24 -13 -32 217 callsubr
          18 -161 rmoveto
          232 callsubr
          -4 -22 -74 -24 -71 -20 -57 -11 rlinecurve
          157 callgsubr
          22 50 23 76 19 82 38 16 285 callsubr
          10 -6 rcurveline
          147 callsubr
          -37 -19 -45 -20 -50 -21 15 85 8 84 -5 61 149 callgsubr
          827 232 rmoveto
          -431 -106 callgsubr
          431 -101 callgsubr
        </CharString>
        <CharString name="dvBH_R_YA">
          682 1081 -100 callgsubr
          -496 hmoveto
          -90 callsubr
          -11 -67 -87 -38 -76 -32 -69 24 -67 13 -65 6 14 64 12 68 5 61 rrcurveto
          -257 -351 rmoveto
          -34 15 -17 14 -14 23 35 12 34 9 34 6 -6 -21 -8 -23 -12 -29 217 callsubr
          1179 16 -104 callsubr
          -591 hlineto
          -5 -3 -5 -4 -4 -5 1 25 0 23 -2 21 127 callgsubr
          -2 -14 -2 -12 -2 -12 rlinecurve
          -79 -7 -68 -16 -53 -16 157 callgsubr
          16 37 17 50 15 56 41 -2 43 -5 47 -8 rrcurveto
          -20 -12 -12 -13 -14 vvcurveto
          -3 0 -4 1 -3 vhcurveto
          -71 -67 -140 -105 -150 -40 -29 callgsubr
          119 73 132 117 65 77 rrcurveto
          -48 48 78 -38 52 hhcurveto
          51 135 82 82 87 hvcurveto
          13 -14 -47 -60 -24 -107 -107 callgsubr
        </CharString>
        <CharString name="dvBH_VA">
          638 1040 322 -88 callsubr
          -774 -163 -53 callsubr
          1135 16 37 callgsubr
          -54 -52 -124 -63 -76 -29 -28 -17 -11 -40 -5 -37 27 -52 49 -45 81 -31 -9 callgsubr
          53 -3 53 -7 48 -8 rrcurveto
          -2 -10 -1 -11 -10 282 callgsubr
          42 39 63 57 50 47 9 -14 rcurveline
          -49 -66 -20 -86 -107 callgsubr
        </CharString>
        <CharString name="dvBH_YA">
          682 1081 -100 callgsubr
          -855 -392 -53 callsubr
          1179 16 -104 callsubr
          -531 -61 callgsubr
          40 -61 callsubr
          -11 -67 -86 -38 -76 -32 -58 19 -69 16 -75 8 29 123 18 129 -13 60 rrcurveto
          52 -29 -48 25 -84 hhcurveto
          -54 -52 -124 -63 -76 -29 -28 -17 -11 -40 -5 -37 27 -52 49 -45 81 -31 -41 callgsubr
        </CharString>
        <CharString name="dvB_BA">
          438 841 321 -57 callsubr
          -377 hmoveto
          -55 callgsubr
          123 154 rmoveto
          22 -15 24 -21 21 -22 -13 -21 -9 -23 -5 -23 -36 30 -32 32 -26 28 231 callsubr
          904 205 -22 callsubr
          -893 -106 callgsubr
          901 130 callgsubr
          163 callsubr
          -90 -93 -45 -64 -63 hvcurveto
          -36 44 -52 50 -43 15 rrcurveto
          234 callgsubr
          rrcurveto
          -81 31 97 -44 118 hhcurveto
          67 65 66 61 38 289 callsubr
          -57 -76 -54 callsubr
        </CharString>
        <CharString name="dvB_BHA">
          541 583 57 callsubr
          -362 84 155 callgsubr
          162 14 rmoveto
          -38 30 -36 33 -30 30 16 14 18 13 22 10 25 -19 29 -56 14 -42 rrcurveto
          265 304 -63 callgsubr
          -663 16 136 callsubr
          418 179 callsubr
          -2 -11 -2 -11 -3 -10 rlinecurve
          -60 -23 -59 -20 -54 -15 -26 83 -55 96 -65 33 rrcurveto
          47 callsubr
          34 29 42 36 40 35 32 -50 61 -53 61 -18 61 -11 101 21 52 49 29 61 27 87 20 90 39 17 38 -75 callsubr
          -38 -18 -45 -21 -49 -21 16 90 8 85 -6 55 173 callsubr
        </CharString>
        <CharString name="dvB_BH_RA">
          535 591 219 callsubr
          34 11 35 11 35 12 -7 -23 -8 -24 -13 -32 rrcurveto
          -370 54 155 callgsubr
          179 25 rmoveto
          -17 -11 -38 30 -36 33 -30 30 rlinecurve
          16 14 18 13 22 10 25 -19 28 -55 14 -41 rrcurveto
          263 302 -63 callgsubr
          -660 16 136 callsubr
          415 179 callsubr
          -4 -22 -64 -21 -63 -18 -52 -11 rlinecurve
          -28 78 -51 85 -61 31 rrcurveto
          47 callsubr
          39 34 50 43 46 39 rrcurveto
          -5 vlineto
          40 callsubr
        </CharString>
        <CharString name="dvB_DA">
          340 252 268 rmoveto
          -55 callgsubr
          123 154 rmoveto
          28 -19 31 -30 24 -26 -18 -14 -14 -17 -7 -22 -37 31 -34 33 -27 29 231 callsubr
          805 205 rmoveto
          -1177 -106 callgsubr
          710 hlineto
          36 -19 31 -24 18 -17 -5 -10 rcurveline
          -74 -64 -105 -20 -79 -32 -30 45 -74 85 -59 21 60 callgsubr
          37 36 49 46 43 42 31 -95 109 -74 150 -11 183 callsubr
          -92 callgsubr
        </CharString>
        <CharString name="dvB_DHA">
          462 392 364 rmoveto
          -11 -9 -11 -9 -10 -8 -36 25 -29 27 -26 28 10 7 11 7 12 6 27 -25 26 -22 29 -20 rrcurveto
          -167 -44 rmoveto
          18 5 17 10 16 vhcurveto
          27 -24 33 -26 26 -18 -24 -15 -22 -13 -20 -11 rrcurveto
          -21 10 -14 26 20 vvcurveto
          295 208 -27 callgsubr
          779 91 74 callgsubr
          -43 -196 263 callsubr
          57 32 rlinecurve
          178 callsubr
          -91 -11 -83 -57 -62 -66 rrcurveto
          -428 -106 callgsubr
          394 hlineto
          -15 -21 -12 -21 -10 -19 -15 14 -17 13 -16 14 rrcurveto
          -156 -23 -90 -101 -108 vvcurveto
          -64 64 -76 130 -16 vhcurveto
          66 55 74 63 68 53 15 -7 rcurveline
          -38 callgsubr
          77 7 131 81 86 80 11 -12 rcurveline
          -47 -60 -23 -104 -107 callgsubr
        </CharString>
        <CharString name="dvB_DH_VA">
          831 1233 322 -88 callsubr
          -845 28 rmoveto
          -11 -9 -11 -9 -10 -8 -36 25 -29 27 -26 28 10 7 11 7 12 6 27 -25 26 -22 29 -20 rrcurveto
          -167 -44 rmoveto
          18 5 17 10 16 vhcurveto
          27 -24 33 -26 26 -18 -24 -15 -22 -13 -20 -11 rrcurveto
          -21 10 -14 26 20 vvcurveto
          295 208 -28 callgsubr
          -91 -11 -83 -57 -62 -66 rrcurveto
          -428 -106 callgsubr
          394 hlineto
          -15 -21 -12 -21 -10 -19 -15 14 -17 13 -16 14 rrcurveto
          -156 -23 -90 -101 -108 vvcurveto
          -64 64 -76 130 -16 vhcurveto
          66 55 74 63 68 53 15 -7 rcurveline
          -12 callgsubr
        </CharString>
        <CharString name="dvB_JA">
          574 252 268 -20 callgsubr
        </CharString>
        <CharString name="dvB_JHA">
          655 1075 465 rmoveto
          -83 -72 -120 -58 -97 -38 -55 6 -54 8 -41 11 25 callgsubr
          218 hlineto
          -845 -297 rmoveto
          -55 callgsubr
          123 154 rmoveto
          26 -17 29 -28 24 -25 -3 -14 0 -14 2 -13 -8 -7 -10 -7 -9 -8 -40 32 -37 35 -28 31 231 callsubr
          1120 205 -104 callsubr
          -1107 -106 callgsubr
          719 121 callgsubr
          -30 -18 -24 -22 -18 -23 -36 43 -52 50 -43 248 callsubr
          62 60 96 90 44 44 87 -18 78 -12 83 -17 -4 callsubr
        </CharString>
        <CharString name="dvB_J_YA">
          1080 1479 -100 callgsubr
          -1271 -297 rmoveto
          -55 callgsubr
          174 21 rmoveto
          -40 32 -37 35 -28 31 17 14 19 13 18 8 26 -18 30 -28 24 -25 -9 -19 -8 -19 -5 -18 rrcurveto
          1488 332 -104 callsubr
          -1533 -106 callgsubr
          1041 103 callsubr
          -35 -24 -30 -31 -25 -34 -37 45 -55 55 -46 16 60 callgsubr
          43 41 59 56 47 45 29 -81 77 -60 75 -27 84 callgsubr
          49 -21 16 -5 17 -3 16 -1 rlinecurve
          -72 24 120 -72 72 hhcurveto
          51 135 82 82 87 hvcurveto
          13 -14 -47 -60 -24 -107 -107 callgsubr
        </CharString>
        <CharString name="dvB_JxA">
          574 623 20 -81 callgsubr
          -371 248 -20 callgsubr
        </CharString>
        <CharString name="dvB_LA">
          552 293 190 rmoveto
          -26 16 -15 25 37 vvcurveto
          24 10 25 16 22 vhcurveto
          19 -20 31 -26 30 -23 rrcurveto
          -1 -4 0 -3 -4 vvcurveto
          -7 1 -6 1 -8 vhcurveto
          -21 -16 -23 -16 -22 -16 rrcurveto
          82 232 rmoveto
          14 -10 15 -12 15 -14 -17 -18 -14 -18 -10 -19 -21 19 -20 19 -16 18 231 callsubr
          1017 205 -104 callsubr
          -1004 -106 callgsubr
          1008 107 callgsubr
          -46 -19 -47 -25 -40 -31 -35 40 -45 41 -39 14 60 callgsubr
          28 28 36 34 35 33 41 -66 74 -70 72 -34 -93 callgsubr
        </CharString>
        <CharString name="dvB_L_YA">
          979 1378 -100 callgsubr
          -1170 -297 rmoveto
          -55 callgsubr
          174 21 rmoveto
          -40 32 -37 35 -28 31 17 14 19 13 18 8 27 -18 30 -28 24 -26 -14 -20 -10 -20 -5 -20 rrcurveto
          1393 337 -104 callsubr
          -1432 -106 callgsubr
          940 152 callsubr
          -62 -25 -63 -38 -46 -44 -36 46 -61 64 -50 17 60 callgsubr
          41 40 56 53 46 43 31 -74 90 -96 88 -41 84 callsubr
        </CharString>
        <CharString name="dvB_NA">
          487 580 177 -59 callgsubr
          -359 91 155 callgsubr
          162 14 rmoveto
          -38 30 -36 33 -30 30 16 14 18 13 22 10 25 -19 29 -56 14 -42 rrcurveto
          480 113 222 callgsubr
          -119 -59 -199 -81 -128 -40 -27 79 -53 87 -61 31 rrcurveto
          47 callsubr
          38 34 50 41 45 39 1 -8 0 -9 2 -9 93 callgsubr
          -1325 -106 callgsubr
          1325 -101 callgsubr
        </CharString>
        <CharString name="dvB_R">
          -337 243 300 rmoveto
          18 10 17 18 17 vhcurveto
          19 -21 34 -29 33 -25 -23 -11 -25 -12 -24 -11 rrcurveto
          -29 18 -13 19 20 vvcurveto
          226 -20 288 callgsubr
          -21 -11 -34 28 -31 30 -25 26 rlinecurve
          13 8 14 7 15 7 254 callgsubr
          -195 -13 -106 -124 -106 vvcurveto
          -80 61 -70 128 -3 127 callsubr
        </CharString>
        <CharString name="dvB_RA">
          38 441 322 147 callgsubr
          613 336 -22 callsubr
          -493 -106 callgsubr
          501 130 callgsubr
          -51 callsubr
          -157 -141 -122 -117 -93 85 -63 104 hvcurveto
          86 57 46 30 69 289 callsubr
          -102 -97 -156 -75 -145 -42 -8 callsubr
        </CharString>
        <CharString name="dvB_SA">
          641 1054 439 rmoveto
          -53 -49 -117 -53 -45 -74 callgsubr
          205 hlineto
          -831 -297 rmoveto
          18 6 21 12 20 vhcurveto
          28 -25 35 -27 26 -18 -25 -20 -25 -20 -22 230 callgsubr
          -10 -18 -27 23 -26 23 -23 23 16 14 18 13 22 10 rrcurveto
          1115 215 -104 callsubr
          -1091 -106 callgsubr
          485 hlineto
          -21 -48 46 -57 83 -27 rrcurveto
          31 50 58 22 43 hhcurveto
          14 13 -2 -6 10 hvcurveto
          -10 -58 -97 -72 -123 -25 -41 50 rcurveline
          0 vlineto
          -41 53 -86 101 -21 -2 rrcurveto
          47 callsubr
          32 30 45 40 41 39 78 -91 144 -88 132 -20 -78 callgsubr
        </CharString>
        <CharString name="dvB_SHA">
          584 250 268 rmoveto
          19 6 21 13 20 vhcurveto
          23 -23 35 -28 29 -21 -25 -20 -25 -19 -21 230 callgsubr
          -9 -18 -28 24 -25 25 -22 22 15 13 18 12 21 10 rrcurveto
          293 78 -65 callgsubr
          -720 272 callsubr
          482 163 callgsubr
          -41 50 rcurveline
          0 vlineto
          -41 53 -86 101 -21 -2 rrcurveto
          47 callsubr
          32 30 45 41 41 38 71 -83 127 -84 137 -32 -77 callsubr
        </CharString>
        <CharString name="dvB_TA">
          428 252 268 rmoveto
          -55 callgsubr
          174 21 rmoveto
          -40 32 -37 35 -28 31 17 14 19 13 18 8 30 -20 34 -33 25 -29 -8 -10 -7 -13 -6 -14 rrcurveto
          826 324 -104 callsubr
          -881 -106 callgsubr
          885 hlineto
          -24 -110 -89 -54 -123 -27 -117 2 rlinecurve
          2 1 -29 44 -76 88 -60 21 rlinecurve
          234 callgsubr
          29 -66 72 -76 90 -58 57 23 29 31 -5 39 -46 54 -20 30 -16 45 2 14 6 13 8 10 65 19 76 30 73 48 7 -12 rcurveline
          -37 -52 -50 -228 -107 callgsubr
        </CharString>
        <CharString name="dvB_VA">
          415 816 322 -88 callsubr
          -568 -68 rmoveto
          -55 callgsubr
          123 154 rmoveto
          22 -15 24 -21 21 -22 -13 -21 -10 -22 -6 -22 -35 30 -32 31 -25 27 231 callsubr
          880 205 -57 callgsubr
          -870 -106 callgsubr
          878 1 callgsubr
          -88 -88 -43 -62 -62 hvcurveto
          -36 44 -52 51 -44 248 callsubr
          36 35 49 46 43 41 rrcurveto
          -69 31 90 -41 113 hhcurveto
          42 39 63 57 50 47 9 -14 rcurveline
          -49 -66 -20 -86 -107 callgsubr
        </CharString>
        <CharString name="dvB_YA">
          476 875 -100 callgsubr
          -667 148 callsubr
          883 320 -104 callsubr
          -929 -106 callgsubr
          437 -61 callsubr
          -11 -67 -86 -38 -76 -32 -28 82 -62 94 -64 32 rrcurveto
          -170 -16 -138 -126 -130 277 callsubr
          40 35 rrcurveto
          -62 40 99 -55 63 hhcurveto
          51 135 82 82 87 hvcurveto
          13 -14 -47 -60 -24 -107 -107 callgsubr
        </CharString>
        <CharString name="dvC">
          -210 702 565 rmoveto
          -27 callsubr
          -736 -106 callgsubr
          107 -226 rmoveto
          71 callgsubr
          132 54 129 109 65 80 -42 55 rcurveline
          -74 -75 -67 -38 -94 -33 -15 callsubr
          227 callsubr
          rrcurveto
          endchar
        </CharString>
        <CharString name="dvCA">
          170 1011 -14 callgsubr
          -643 -106 callgsubr
          647 hlineto
          -42 -191 275 callgsubr
          rlinecurve
          -7 5 -6 6 -7 5 64 37 38 26 57 30 34 60 -36 67 -68 39 -125 -8 -120 -3 -128 16 -47 -31 3 -87 83 -53 95 19 77 11 80 14 -13 callsubr
        </CharString>
        <CharString name="dvCH">
          174 598 381 22 callsubr
        </CharString>
        <CharString name="dvCHA">
          174 297 -58 callsubr
          396 239 rmoveto
          -990 -61 callgsubr
          207 259 callgsubr
          -31 -68 62 -77 79 -36 -54 callgsubr
        </CharString>
        <CharString name="dvCH_R">
          174 470 -125 -65 callsubr
          136 502 22 callsubr
        </CharString>
        <CharString name="dvCH_RA">
          174 599 388 rmoveto
          5 9 7 6 8 2 16 -3 35 -19 14 -25 -10 -19 -16 -20 -21 -19 -23 30 -16 29 1 29 rrcurveto
          396 239 rmoveto
          -990 -61 callgsubr
          205 hlineto
          -63 -24 -55 -30 -41 -32 -31 -68 62 -77 79 -36 44 14 46 15 32 13 7 -12 rcurveline
          -76 -43 -100 -63 -54 vvcurveto
          -83 82 -58 94 -23 vhcurveto
          49 11 90 42 56 35 7 -7 rcurveline
          -71 -63 -177 -115 -47 -23 -12 -59 40 -43 81 -8 103 68 177 187 50 97 11 -14 20 -27 11 -19 -34 -66 -45 -64 -70 -63 12 -59 47 -52 107 6 76 106 29 66 16 126 rrcurveto
          -13 58 -37 49 -39 44 rrcurveto
          48 41 61 64 41 vvcurveto
          72 -115 79 -84 22 vhcurveto
          -57 -5 -65 -45 -36 -53 -16 -85 37 -66 47 -59 -67 -38 -80 -30 -76 -10 -9 9 rcurveline
          40 47 45 46 46 29 24 69 -44 61 -87 42 -24 -8 -43 -17 -29 -6 -7 10 rcurveline
          51 44 95 64 94 30 rrcurveto
          520 -101 callgsubr
        </CharString>
        <CharString name="dvCH_R_YA">
          957 470 -125 -65 callsubr
          888 456 -32 callgsubr
        </CharString>
        <CharString name="dvCH_YA">
          1010 1350 335 -32 callgsubr
        </CharString>
        <CharString name="dvC_CA">
          718 1559 -14 callgsubr
          -1191 -106 callgsubr
          1195 hlineto
          -42 -191 275 callgsubr
          rlinecurve
          -15 callsubr
          -38 -25 -5 -61 42 -50 -75 -68 -89 -49 -79 -27 193 callsubr
          rrcurveto
          64 37 38 26 57 30 165 callgsubr
          111 40 164 133 86 94 82 15 69 10 72 13 -13 callsubr
        </CharString>
        <CharString name="dvC_CHA">
          660 783 -58 callsubr
          396 239 rmoveto
          -1498 -106 callgsubr
          714 259 callgsubr
          -19 -42 16 -46 34 -37 -65 -61 -63 -33 -84 -30 -15 callsubr
          rrcurveto
          39 callsubr
          126 52 123 101 68 79 7 -4 8 -4 8 -4 -54 callgsubr
        </CharString>
        <CharString name="dvC_CH_VA">
          660 788 184 rmoveto
          32 44 35 32 48 29 16 103 -58 31 -54 27 -23 -8 -31 -6 -28 -6 -5 9 rcurveline
          52 44 75 52 95 30 rrcurveto
          95 hlineto
          -36 -19 -35 -30 -24 -33 -16 -98 36 -56 39 -72 -58 -35 -70 -29 -78 -18 rrcurveto
          303 155 rmoveto
          -16 40 -10 36 7 32 5 9 7 6 8 2 16 -3 35 -19 13 -25 -14 -25 -22 -27 -29 -26 rrcurveto
          -101 -443 rmoveto
          -42 -33 -65 -39 -38 -28 -17 11 -6 15 2 30 3 40 39 51 59 27 27 -23 22 -14 21 -25 rrcurveto
          0 vlineto
          -5 -13 rlineto
          484 741 rmoveto
          -1498 -106 callgsubr
          722 hlineto
          -57 -23 -51 -29 -46 -34 -20 -42 13 -42 31 -34 -68 -65 -64 -35 -88 -31 -15 callsubr
          rrcurveto
          39 callsubr
          131 54 128 107 65 80 7 -4 6 -3 7 -3 42 14 44 14 31 12 6 -11 rcurveline
          -73 -41 -97 -59 -2 -50 -3 -78 76 -54 89 -22 97 21 107 50 95 59 8 -23 7 -24 5 -28 -11 -36 -12 -42 -15 -44 -36 41 -52 47 -15 -1 rrcurveto
          -129 -141 -114 -109 -8 hvcurveto
          -84 -5 82 -53 116 hhcurveto
          40 35 38 29 37 28 -10 -21 -10 -20 -11 -19 4 -45 48 -18 66 4 75 156 42 150 31 110 -9 55 -18 49 -19 44 90 69 62 70 2 43 2 56 -72 62 -68 34 rrcurveto
          305 -101 callgsubr
        </CharString>
        <CharString name="dvC_MA">
          666 710 184 -68 callsubr
          784 437 rmoveto
          -1523 -106 callgsubr
          772 256 callsubr
          -4 -2 -3 -2 -4 -2 -73 -45 -57 -22 -72 -21 -15 callsubr
          rrcurveto
          39 callsubr
          79 33 71 41 61 44 32 -54 63 -52 61 -18 -97 callgsubr
        </CharString>
        <CharString name="dvC_NA">
          597 690 177 -59 callgsubr
          -369 191 rmoveto
          -118 -63 -134 -9 -72 vvcurveto
          -64 106 -72 102 -16 vhcurveto
          80 33 72 43 62 43 rrcurveto
          -5 1 -5 1 -6 vhcurveto
          40 -54 67 -35 84 142 callgsubr
          -2 -2 -3 -1 -2 -2 -75 -46 -58 -22 -72 -21 -15 callsubr
          rrcurveto
          227 callsubr
          95 19 77 11 80 14 rrcurveto
          1113 244 rmoveto
          -1455 -106 callgsubr
          1455 -101 callgsubr
        </CharString>
        <CharString name="dvC_R">
          -210 326 268 rmoveto
          58 39 27 15 62 34 31 55 -34 65 -59 29 -125 -8 -111 -3 -128 16 -52 -26 3 -86 83 -53 95 19 70 11 80 14 3 -4 rcurveline
          -100 -63 -136 -8 -54 vvcurveto
          -59 86 -73 103 -16 vhcurveto
          114 49 111 83 74 67 15 -15 rcurveline
          -80 -105 -167 -107 -168 -56 -29 callgsubr
          184 131 108 90 154 195 -110 110 rcurveline
          -81 -76 -83 -56 -103 -36 rrcurveto
          397 369 rmoveto
          -750 -106 callgsubr
          750 -101 callgsubr
        </CharString>
        <CharString name="dvC_RA">
          170 1011 -14 callgsubr
          -643 -106 callgsubr
          647 hlineto
          -35 -162 -71 -63 -77 -49 -94 -33 rlinecurve
          -10 10 58 39 27 15 62 34 rlinecurve
          31 55 -34 65 -59 29 -125 -8 -111 -3 -128 16 -52 -26 3 -86 83 -53 95 19 70 11 80 14 3 -4 rcurveline
          -100 -63 -136 -8 -54 vvcurveto
          -59 86 -73 103 -16 vhcurveto
          114 49 111 83 74 67 15 -15 rcurveline
          -80 -105 -167 -107 -168 -56 -87 callsubr
        </CharString>
        <CharString name="dvC_YA">
          614 1013 -100 callgsubr
          398 -79 callgsubr
          -1087 -106 callgsubr
          595 -61 callsubr
          -15 -91 -154 -38 -78 -41 -87 -40 -72 -13 -61 -13 193 callsubr
          64 37 38 26 57 30 rrcurveto
          165 callgsubr
          88 34 83 38 73 44 rrcurveto
          -61 42 97 -52 61 hhcurveto
          51 135 82 82 87 hvcurveto
          13 -14 -47 -60 -24 -107 -107 callgsubr
        </CharString>
        <CharString name="dvCandrabindu">
          -45 825 157 callsubr
          94 30 46 callsubr
        </CharString>
        <CharString name="dvD">
          -63 199 -170 7 callsubr
          578 797 68 callgsubr
          121 -101 177 -13 283 callgsubr
          -92 callgsubr
        </CharString>
        <CharString name="dvDA">
          -63 777 627 rmoveto
          -775 hlineto
          -17 -12 -12 -18 -8 -13 20 -19 rcurveline
          308 hlineto
          36 -19 31 -24 18 -17 -5 -10 rcurveline
          -132 -115 -232 29 -157 vvcurveto
          -119 121 -101 177 -13 vhcurveto
          41 51 21 36 40 39 -92 callgsubr
        </CharString>
        <CharString name="dvDA_mU">
          133 callsubr
          -50 -23 -45 -27 -59 -64 -3 -55 -20 -47 -32 5 -59 39 -43 68 -17 21 21 17 18 30 13 2 -1 2 -2 2 -1 -11 -40 -41 -41 -71 -24 -75 39 -32 75 -19 74 rrcurveto
          237 callsubr
          15 -8 14 -13 14 hvcurveto
          25 107 24 72 36 92 -45 87 -94 23 -54 -23 -39 -36 -31 -32 -47 -47 rrcurveto
          -41 16 -38 43 -72 callgsubr
        </CharString>
        <CharString name="dvDA_mUU">
          133 callsubr
          -49 -22 -44 -27 -63 rrcurveto
          1 -11 -10 1 -10 hhcurveto
          -72 -119 -97 -46 -54 37 -68 66 -50 hvcurveto
          107 28 39 38 -3 60 -23 22 -31 27 -19 31 3 3 4 3 3 3 103 -48 64 -53 69 -114 101 23 52 62 -14 58 -32 44 -56 41 -63 30 20 87 22 75 35 92 rrcurveto
          -45 87 -94 23 -54 -23 -39 -36 -31 -32 -47 -47 rrcurveto
          -41 16 -38 43 -72 callgsubr
        </CharString>
        <CharString name="dvDA_mvR">
          54 callgsubr
          126 -109 191 -5 283 callgsubr
          12 -8 rcurveline
          -17 -37 -29 -58 -22 -42 -110 -45 -129 -92 -5 -75 rrcurveto
          -47 -3 78 -74 62 hhcurveto
          102 131 21 71 71 hvcurveto
          9 37 -35 42 -76 17 -65 -52 -44 -20 -79 -10 -8 12 rcurveline
          35 61 96 50 105 45 32 87 33 68 32 83 -45 87 -96 23 -54 -23 -39 -36 -31 -32 -47 -47 rrcurveto
          -41 16 -38 43 -72 callgsubr
        </CharString>
        <CharString name="dvDD">
          -106 187 -18 10 callsubr
          546 645 230 callsubr
          332 hlineto
          32 -12 29 -12 19 212 callsubr
          97 -21 85 -12 91 -19 -86 callgsubr
        </CharString>
        <CharString name="dvDDA">
          -106 733 627 230 callsubr
          332 hlineto
          32 -12 29 -12 19 212 callsubr
          97 -21 85 -12 91 -19 -86 callgsubr
        </CharString>
        <CharString name="dvDDH">
          32 295 -18 10 callsubr
          201 194 -62 callgsubr
        </CharString>
        <CharString name="dvDDHA">
          32 496 176 -62 callgsubr
        </CharString>
        <CharString name="dvDDH_DDHA">
          -96 401 246 155 callsubr
          -59 -433 155 callsubr
          391 814 230 callsubr
          285 hlineto
          27 -15 25 -17 19 -26 -3 -6 rcurveline
          -69 -37 -83 -28 -97 -35 -33 -23 -22 -44 -4 -54 28 -99 92 -64 105 -14 10 -9 9 -9 8 -11 131 callgsubr
          -10 7 -11 6 -10 5 82 28 88 54 5 58 rrcurveto
          4 43 -65 63 -113 -6 -35 -26 -74 -46 -62 -41 -7 14 -4 13 1 12 4 39 143 43 80 47 37 35 24 43 -18 42 -18 12 -19 10 -18 9 rrcurveto
          304 -101 callgsubr
        </CharString>
        <CharString name="dvDDH_R">
          32 338 -15 callgsubr
          230 439 rmoveto
          -11 -38 -45 -34 -61 -9 -18 8 -16 10 -14 11 48 27 46 27 30 16 14 -4 12 -5 15 -9 rrcurveto
          394 428 rmoveto
          -871 -106 callgsubr
          316 hlineto
          31 -15 30 -19 28 -32 -4 -11 rcurveline
          -93 -43 -96 -31 -110 -39 -45 -32 -19 -44 2 -63 49 -119 137 -79 146 -9 rrcurveto
          106 221 90 94 47 -94 78 -148 -9 hvcurveto
          -41 -31 -75 -49 -66 -42 rrcurveto
          -7 12 -3 12 11 vvcurveto
          53 168 41 101 57 vhcurveto
          40 43 22 44 -17 45 -25 15 -25 13 -26 12 rrcurveto
          368 -101 callgsubr
        </CharString>
        <CharString name="dvDDH_RA">
          32 346 -142 -65 callsubr
          158 314 -62 callgsubr
        </CharString>
        <CharString name="dvDDH_YA">
          818 1179 77 callsubr
          50 -75 41 -88 9 vhcurveto
          -106 -12 -153 -20 -133 -32 2 14 -4 12 -5 12 -22 13 -29 14 -31 14 rrcurveto
          752 hlineto
          -735 -389 rmoveto
          -19 -40 -49 -41 -69 -5 -21 9 -18 12 -16 11 51 29 51 29 33 19 21 -7 17 -6 19 -10 rrcurveto
          1133 451 -104 callsubr
          -1242 -106 callgsubr
          317 hlineto
          38 -19 35 -22 28 -32 -3 -8 rcurveline
          -95 -45 -102 -33 -119 -42 -39 -28 -25 -54 1 -65 45 -124 152 -82 140 -11 rrcurveto
          131 5 198 95 91 vvcurveto
          58 -92 65 -141 -1 vhcurveto
          -51 -39 -76 -50 -75 -51 rrcurveto
          -12 18 -7 17 15 vvcurveto
          56 204 80 94 36 vhcurveto
          161 41 145 14 118 -10 -34 callsubr
        </CharString>
        <CharString name="dvDDHxA">
          32 263 -25 82 callsubr
          233 201 -62 callgsubr
        </CharString>
        <CharString name="dvDD_DDA">
          -106 733 627 230 callsubr
          309 hlineto
          41 -11 39 -13 24 -15 65 callsubr
          60 63 5 8 58 hvcurveto
          19 -7 16 -7 13 -8 65 callsubr
          152 170 32 35 68 hvcurveto
          54 85 -5 54 -54 27 -75 9 -94 11 -66 11 2 9 rcurveline
          76 3 72 11 55 14 48 36 26 70 -23 41 -14 9 -14 7 -14 6 38 9 31 11 21 11 54 85 -5 54 -54 27 106 callgsubr
        </CharString>
        <CharString name="dvDD_DDHA">
          -96 342 -187 155 callsubr
          391 814 230 callsubr
          309 hlineto
          41 -11 39 -13 24 -15 65 callsubr
          47 48 3 5 46 hvcurveto
          14 -10 12 -11 10 -14 131 callgsubr
          -15 10 -15 8 -15 8 56 12 48 14 29 15 rrcurveto
          54 85 -5 54 -54 27 106 callgsubr
        </CharString>
        <CharString name="dvDD_R">
          -106 268 -15 callgsubr
          554 867 59 callgsubr
        </CharString>
        <CharString name="dvDD_RA">
          -106 253 -124 -65 callsubr
          488 747 230 callsubr
          332 hlineto
          32 -12 29 -12 19 212 callsubr
          97 -21 85 -12 91 -19 -86 callgsubr
        </CharString>
        <CharString name="dvDD_VA">
          -96 296 -84 rmoveto
          -39 188 callsubr
          10 -14 22 -24 rrcurveto
          453 696 rmoveto
          -750 -106 callgsubr
          329 hlineto
          41 -11 39 -13 24 -15 65 callsubr
          72 77 7 12 67 hvcurveto
          -19 -110 -8 -5 -34 39 -42 41 -13 -1 rlinecurve
          -129 -133 -115 -108 -84 86 -53 116 hvcurveto
          48 45 39 34 40 36 6 -9 rcurveline
          -40 -50 -15 -62 73 -56 105 -11 33 36 rlinecurve
          -9 300 71 182 53 85 -5 53 -54 27 rlinecurve
          106 callgsubr
        </CharString>
        <CharString name="dvDD_YA">
          662 1053 77 callsubr
          43 -75 48 -72 9 vhcurveto
          -122 -15 -99 -26 -110 -28 5 25 0 24 -8 19 283 callsubr
          613 hlineto
          398 -79 callgsubr
          -1115 -106 callgsubr
          332 hlineto
          32 -12 29 -12 19 212 callsubr
          97 -21 85 -12 91 -19 3 -9 rcurveline
          -66 -32 -143 -13 -112 10 -45 -38 8 -79 74 -61 rrcurveto
          159 183 45 42 74 hvcurveto
          58 103 -5 61 -52 32 -80 11 -101 13 -71 15 6 19 rcurveline
          65 10 88 20 89 19 136 30 140 28 67 -8 -34 callsubr
        </CharString>
        <CharString name="dvDDxA">
          -106 223 -23 82 callsubr
          510 650 230 callsubr
          332 hlineto
          32 -12 29 -12 19 212 callsubr
          97 -21 85 -12 91 -19 -86 callgsubr
        </CharString>
        <CharString name="dvDH">
          -237 225 callsubr
          73 -321 rmoveto
          164 callgsubr
          178 callsubr
          -163 -19 -137 -169 -36 -98 99 callgsubr
          103 9 200 143 59 92 -61 53 rcurveline
          192 callsubr
          rrcurveto
          437 427 rmoveto
          -181 -61 callgsubr
          182 -101 callgsubr
        </CharString>
        <CharString name="dvDHA">
          143 225 callsubr
          779 91 74 callgsubr
          -43 -196 263 callsubr
          57 32 rlinecurve
          178 callsubr
          -163 -19 -137 -169 -36 -98 99 callgsubr
          77 7 131 81 86 80 11 -12 rcurveline
          -47 -60 -23 -104 -107 callgsubr
        </CharString>
        <CharString name="dvDH_MA">
          623 731 182 callsubr
          -82 -27 -80 -23 -59 -11 -9 -5 -8 -6 -7 -7 -45 -39 -76 -48 -75 -19 -10 15 rcurveline
          164 callgsubr
          -47 callsubr
          73 15 95 35 54 54 rlinecurve
          257 hlineto
          -28 -381 -68 callsubr
          -486 345 -27 callgsubr
          1258 91 rmoveto
          -992 42 callsubr
          65 5 90 52 69 53 34 -48 57 -45 56 -17 -97 callgsubr
        </CharString>
        <CharString name="dvDH_NA">
          550 225 callsubr
          438 -359 86 callsubr
          -920 42 callsubr
          63 5 87 50 68 51 40 -52 67 -34 82 142 callgsubr
          -9 -6 -8 -7 -7 -9 -45 -39 -74 -45 -72 -18 -10 15 rcurveline
          164 callgsubr
          -47 callsubr
          73 15 95 35 54 54 rlinecurve
          936 -101 callgsubr
        </CharString>
        <CharString name="dvDH_N_YA">
          1061 1460 -100 callgsubr
          -1226 -350 rmoveto
          164 callgsubr
          -47 callsubr
          73 15 95 35 54 54 rlinecurve
          570 80 callgsubr
          -153 46 -261 5 -135 -76 -65 -31 -67 -34 -70 -22 rrcurveto
          336 -63 0 callsubr
          -443 392 -27 callgsubr
          1697 218 callsubr
          -1046 42 callsubr
          59 6 70 37 66 41 1 -5 0 -5 1 -5 75 callgsubr
          50 49 -5 -7 47 hvcurveto
          -4 -6 -2 -5 -6 vvcurveto
          156 callgsubr
          51 135 82 82 87 vhcurveto
          13 -14 -47 -60 -24 -107 -107 callgsubr
        </CharString>
        <CharString name="dvDH_R">
          -239 205 550 rmoveto
          27 40 40 39 38 23 18 -3 8 -12 2 -17 -16 -29 -37 -24 -56 -13 rrcurveto
          59 -288 rmoveto
          47 38 36 27 52 28 -1 57 -27 34 -78 28 -36 -18 -51 -20 -41 -12 rrcurveto
          -14 15 -3 13 16 vvcurveto
          1 7 1 8 3 8 49 -22 rcurveline
          102 19 88 47 56 73 rrcurveto
          220 callgsubr
          -163 -19 -137 -169 -36 -98 4 -69 31 -30 82 -45 175 callgsubr
          82 17 132 94 82 81 8 -16 rcurveline
          -97 -123 -155 -80 -154 -50 -29 callgsubr
          184 131 108 90 154 195 -133 104 rcurveline
          192 callsubr
          rrcurveto
          418 376 rmoveto
          -172 -61 callgsubr
          173 -101 callgsubr
        </CharString>
        <CharString name="dvDH_RA">
          144 205 550 64 callgsubr
          -163 -19 -137 -169 -36 -98 4 -69 31 -30 82 -45 175 callgsubr
          79 7 132 95 85 86 7 -8 rcurveline
          -42 -65 -79 -61 -162 -97 -122 -34 rlinecurve
          -87 callsubr
        </CharString>
        <CharString name="dvDH_VA">
          513 914 322 -88 callsubr
          -725 199 -28 callgsubr
          -163 -19 -137 -169 -36 -98 rrcurveto
          -66 49 -49 86 -39 vhcurveto
          -12 callgsubr
        </CharString>
        <CharString name="dvDH_YA">
          532 931 -100 callgsubr
          -697 -350 rmoveto
          164 callgsubr
          -47 callsubr
          73 15 95 35 54 54 rlinecurve
          41 -61 callsubr
          -17 -106 -207 -34 -55 -51 -43 -30 -60 -30 -53 -15 rrcurveto
          -95 335 -27 callgsubr
          1168 218 callsubr
          -517 42 callsubr
          69 9 87 50 64 49 rrcurveto
          -54 46 86 -45 57 hhcurveto
          51 135 82 82 87 hvcurveto
          13 -14 -47 -60 -24 -107 -107 callgsubr
        </CharString>
        <CharString name="dvD_BA">
          58 callsubr
          77 110 45 59 15 20 rcurveline
          0 vlineto
          30 39 20 31 34 33 -92 callgsubr
        </CharString>
        <CharString name="dvD_BHA">
          -18 475 152 rmoveto
          -14 -34 -23 -61 -24 -66 -30 -12 -34 -13 -36 -12 8 32 7 31 5 28 10 -1 10 0 11 -1 31 40 33 36 31 41 rrcurveto
          -357 -390 rmoveto
          -20 12 -14 16 -12 20 27 7 28 7 27 7 -7 -20 -9 -21 -10 -24 rrcurveto
          86 307 rmoveto
          3 -1 -2 -21 -6 -26 -6 -24 rlinecurve
          -68 -13 -10 7 -8 14 -2 17 rlinecurve
          27 14 42 20 25 15 rrcurveto
          627 544 rmoveto
          -823 -106 callgsubr
          358 hlineto
          35 -17 30 -21 18 -17 -5 -10 rcurveline
          -132 -115 -227 27 -140 vvcurveto
          -50 20 -45 34 -36 vhcurveto
          -31 -16 -32 -13 -26 -8 -25 -13 -13 -37 -6 -27 13 -45 36 -34 58 -28 101 36 rcurveline
          4 -9 -23 -21 -2 -5 -1 -5 -2 -4 rlinecurve
          -61 -15 -57 -11 -38 -3 -48 -9 -17 -52 -2 -28 17 -44 48 -53 48 -20 46 -13 78 11 44 37 25 44 26 62 21 65 31 10 31 11 32 13 -22 -61 -20 -58 -10 -39 rrcurveto
          13 -56 80 -39 110 13 22 165 50 230 41 132 186 callsubr
          -38 -37 -41 -38 rrcurveto
          -44 7 -40 34 47 vvcurveto
          95 37 87 47 52 32 53 42 24 67 -23 49 -15 11 -16 11 -16 9 rrcurveto
          301 -101 callgsubr
        </CharString>
        <CharString name="dvD_B_RA">
          58 callsubr
          76 109 45 60 35 43 37 56 35 39 134 callgsubr
          -33 -47 -53 -42 -43 rrcurveto
          -41 16 -38 42 -72 callgsubr
        </CharString>
        <CharString name="dvD_DA">
          -154 727 627 rmoveto
          -725 -106 callgsubr
          325 205 callsubr
          -51 -38 -31 -49 -49 vvcurveto
          -48 31 -50 73 -39 vhcurveto
          -78 -18 -69 -55 -65 vvcurveto
          -107 90 -69 179 -24 vhcurveto
          41 51 26 34 22 21 14 -8 rcurveline
          -43 -63 -25 -53 -41 -97 10 -52 78 -40 111 7 25 133 19 84 45 121 -45 87 -79 16 -69 -22 -36 -33 -25 -27 -43 -36 -46 16 -30 40 3 40 85 40 89 25 72 10 rrcurveto
          4 68 -20 42 -59 21 -21 -20 -33 -14 -34 -9 rrcurveto
          -31 20 -17 22 22 vvcurveto
          14 6 14 14 13 vhcurveto
          71 7 62 11 56 21 47 37 28 71 -22 44 -9 6 -8 6 -9 6 rrcurveto
          246 -101 callgsubr
        </CharString>
        <CharString name="dvD_DHA">
          218 322 -90 rmoveto
          29 37 18 19 31 32 5 61 -44 40 -90 20 -13 -9 -38 -29 -29 -14 -11 4 -12 6 -9 10 -6 8 -5 10 -1 13 39 -7 rcurveline
          50 18 33 13 41 29 18 -39 59 -68 109 -29 -39 -45 -47 -46 -75 -46 rrcurveto
          -69 425 rmoveto
          19 -5 8 -10 2 -19 -14 -55 -41 -36 -86 -28 17 51 44 60 51 42 rrcurveto
          792 304 rmoveto
          -1055 -106 callgsubr
          588 hlineto
          36 -19 31 -24 18 -17 -5 -10 rcurveline
          -71 -61 -98 -21 -77 -29 rrcurveto
          38 -23 -32 19 -48 hhcurveto
          -122 -172 -223 -112 -22 hvcurveto
          -71 66 -54 90 -17 vhcurveto
          47 20 10 7 41 26 8 -6 rcurveline
          -68 -83 -79 -6 -39 vvcurveto
          -67 97 -60 132 15 vhcurveto
          140 85 128 177 89 112 -92 callgsubr
        </CharString>
        <CharString name="dvD_GA">
          -33 119 -152 rmoveto
          -16 13 -15 22 -9 25 28 4 28 4 29 5 -10 -25 -12 -26 -15 -22 rrcurveto
          680 779 rmoveto
          -805 -106 callgsubr
          338 2 callsubr
          -157 vvcurveto
          -82 62 -69 93 -38 vhcurveto
          3 -24 -2 -11 -3 -13 -4 -15 rlinecurve
          -61 -10 -57 -5 -66 -2 -28 -15 -21 -34 -11 -38 9 -57 37 -47 54 -38 62 -13 80 4 54 34 36 54 36 103 24 96 rrcurveto
          0 vlineto
          32 44 24 33 268 callsubr
          -27 -84 -62 -207 -36 -99 124 callsubr
        </CharString>
        <CharString name="dvD_GHA">
          218 287 -111 rmoveto
          43 48 25 24 41 39 16 68 -66 39 -83 15 -17 -9 -33 -18 -24 -9 -12 9 rcurveline
          33 39 43 35 45 31 26 -72 72 -62 101 -31 -59 -69 -59 -44 -78 -43 rrcurveto
          757 748 rmoveto
          -1056 -106 callgsubr
          589 hlineto
          36 -19 31 -24 18 -17 -5 -10 rcurveline
          -121 -106 -207 16 -32 -119 -112 -41 -119 -64 -65 -80 -7 -83 71 -34 74 -18 52 25 26 15 40 22 9 -6 rcurveline
          -53 -63 -143 -44 10 -45 14 -68 90 -59 106 2 172 81 157 225 74 94 -92 callgsubr
        </CharString>
        <CharString name="dvD_G_RA">
          -33 144 -112 rmoveto
          -15 12 -13 19 -8 23 25 4 26 4 26 5 -9 -24 -11 -23 -14 -20 rrcurveto
          656 739 rmoveto
          -805 -106 callgsubr
          338 2 callsubr
          -147 vvcurveto
          -88 71 -73 104 -36 vhcurveto
          1 -5 -2 -10 -3 -12 -3 -12 rlinecurve
          -56 -10 -51 -4 -60 -2 -25 -14 -19 -30 -10 -35 8 -51 34 -43 48 -34 56 -12 73 4 48 30 32 47 31 88 21 84 32 43 23 32 39 41 134 callgsubr
          -34 -33 -37 -38 -38 rrcurveto
          -43 8 -39 34 46 vvcurveto
          91 35 86 36 67 50 41 31 29 71 -21 46 -17 13 -18 12 -19 11 rrcurveto
          308 -101 callgsubr
        </CharString>
        <CharString name="dvD_MA">
          161 253 84 rmoveto
          -36 12 -20 21 -11 28 40 19 42 23 42 25 -7 -39 -14 -42 -23 -42 rrcurveto
          735 538 rmoveto
          -1002 -106 callgsubr
          304 hlineto
          17 -8 15 -9 11 -8 -5 -6 rcurveline
          -63 -15 -48 -4 -77 -5 rrcurveto
          -52 -25 -38 -48 -52 vvcurveto
          -51 38 -48 100 -36 vhcurveto
          53 26 30 16 42 19 10 -5 rcurveline
          -18 vlineto
          -63 -34 -67 -31 -70 -26 -40 -28 -15 -23 -1 -44 20 -42 58 -57 86 -19 rrcurveto
          60 72 16 44 36 hvcurveto
          50 69 23 99 17 112 34 23 33 23 31 23 15 -8 rcurveline
          -80 -321 -102 callsubr
          -12 312 87 116 -34 54 -63 22 -109 -15 rlinecurve
          -58 -46 -68 -52 -77 -51 -36 19 -40 5 -46 -5 -30 -17 -41 -16 -24 -10 rrcurveto
          -18 6 -7 12 13 vvcurveto
          15 11 16 15 4 vhcurveto
          33 7 49 9 55 18 46 30 37 48 -8 39 -10 7 rcurveline
          551 -101 callgsubr
        </CharString>
        <CharString name="dvD_NA">
          -33 167 -223 rmoveto
          -31 10 -18 20 -17 28 23 10 22 8 22 9 9 -26 3 -29 -5 -25 rrcurveto
          632 845 rmoveto
          -805 -106 callgsubr
          338 2 callsubr
          -157 vvcurveto
          -119 130 -92 167 -9 vhcurveto
          32 44 24 33 268 callsubr
          -10 -36 -13 -39 -14 -39 -92 -40 -106 -43 -159 -35 -28 -23 -21 -35 -4 -38 28 -66 42 -25 71 -17 87 11 25 19 22 34 14 45 1 47 -12 40 43 16 43 16 41 17 10 -18 rcurveline
          -42 -27 -16 -52 -15 -50 -20 -52 rlinecurve
          124 callsubr
        </CharString>
        <CharString name="dvD_R">
          -96 269 -240 7 callsubr
          508 867 54 callsubr
          -147 vvcurveto
          -119 130 -92 167 -9 vhcurveto
          32 44 24 33 268 callsubr
          -11 -33 -11 -40 -11 -41 -130 -40 -133 -75 -86 -57 -18 -54 33 -49 89 -17 61 69 79 60 70 41 -7 -23 -7 -22 -7 -20 4 -44 60 -32 117 16 23 139 19 146 42 128 rrcurveto
          243 callsubr
          91 35 86 36 67 50 41 31 29 71 -21 46 -17 13 -18 12 -19 11 rrcurveto
          308 -101 callgsubr
        </CharString>
        <CharString name="dvD_RA">
          54 callgsubr
          130 -92 167 -9 vhcurveto
          -8 callgsubr
        </CharString>
        <CharString name="dvD_VA">
          94 291 218 callgsubr
          643 716 152 callgsubr
          150 -79 190 48 vhcurveto
          46 69 68 99 43 57 15 19 rcurveline
          0 vlineto
          30 39 20 31 34 33 -92 callgsubr
        </CharString>
        <CharString name="dvD_YA">
          154 522 338 rmoveto
          -55 -62 -64 -49 -83 -33 -8 11 rcurveline
          42 22 38 29 27 23 19 81 -39 28 -50 21 -25 -7 -45 -13 -32 -1 -14 15 rcurveline
          70 13 54 21 43 27 18 23 12 42 2 36 180 callgsubr
          -579 -61 callgsubr
          342 hlineto
          -4 -11 -4 -11 -5 -10 rrcurveto
          -78 -40 -174 24 -101 vvcurveto
          -38 35 -42 45 -33 vhcurveto
          58 -1 28 3 53 13 6 -15 rcurveline
          -111 -28 -99 -41 -50 vvcurveto
          -61 71 -51 117 -9 vhcurveto
          85 30 94 63 71 69 12 -14 rcurveline
          -47 -60 -20 -87 -107 callgsubr
        </CharString>
        <CharString name="dvE">
          3 844 627 -20 callsubr
        </CharString>
        <CharString name="dvEcandra">
          3 513 663 rmoveto
          116 107 61 82 53 hvcurveto
          -28 63 -67 30 -52 -28 -13 -52 -36 -58 -68 -14 41 callsubr
          82 hhcurveto
          331 -36 -20 callsubr
        </CharString>
        <CharString name="dvEight">
          -65 319 121 rmoveto
          -46 25 -37 37 -6 61 72 119 104 119 132 116 -6 45 -14 22 -56 -9 -132 -68 -226 -177 -80 -165 rrcurveto
          -105 4 142 -141 115 hhcurveto
          114 142 138 101 63 hvcurveto
          1 40 -9 13 -54 1 -55 -67 -83 -76 -85 -29 rrcurveto
          endchar
        </CharString>
        <CharString name="dvEyelash">
          -347 473 565 rmoveto
          -27 callsubr
          -482 -61 callgsubr
          167 -384 rmoveto
          97 11 88 18 91 36 -32 66 rcurveline
          -71 -25 -57 -12 -53 -5 241 callgsubr
          35 -48 49 -23 39 -15 rrcurveto
          endchar
        </CharString>
        <CharString name="dvEyelash_HA">
          132 979 627 rmoveto
          -971 -61 callgsubr
          588 -42 callgsubr
          -26 -2 -26 -6 -23 -8 -51 -15 -54 -12 -51 -6 241 callgsubr
          35 -48 49 -23 39 -15 29 3 28 4 28 5 rrcurveto
          -7 -16 -4 -16 -16 vvcurveto
          -95 115 -91 115 -27 vhcurveto
          -75 callgsubr
        </CharString>
        <CharString name="dvEyelash_YA">
          423 822 -100 callgsubr
          398 -79 callgsubr
          -871 -61 callgsubr
          380 hlineto
          88 callgsubr
          -119 -39 -82 -36 -71 -25 -56 -12 -53 -5 241 callgsubr
          rrcurveto
          35 -48 49 -23 39 -15 61 7 57 9 56 16 rrcurveto
          -68 33 110 -64 68 hhcurveto
          51 135 82 82 87 hvcurveto
          13 -14 -47 -60 -24 -107 -107 callgsubr
        </CharString>
        <CharString name="dvFive">
          -130 409 276 rmoveto
          11 -4 -28 -97 -79 -156 -68 -125 rlinecurve
          -47 41 -28 70 4 vhcurveto
          69 128 111 235 43 132 -8 76 -82 24 -111 -8 -39 -72 -44 -67 -57 -58 rrcurveto
          -21 17 -13 28 33 vvcurveto
          92 158 143 120 65 vhcurveto
          12 49 -21 17 -45 6 rrcurveto
          -227 -75 -189 -165 -146 vvcurveto
          -116 71 -72 173 -27 vhcurveto
          78 105 37 54 38 55 rrcurveto
          endchar
        </CharString>
        <CharString name="dvFour">
          -128 354 513 rmoveto
          -45 70 -57 52 -61 28 -80 -1 -53 -41 -9 -97 75 -28 59 -38 50 -44 -84 -75 -67 -75 -44 -72 rrcurveto
          -89 85 -86 125 -17 vhcurveto
          126 19 68 51 29 89 rrcurveto
          97 -27 101 -50 85 vhcurveto
          73 64 74 52 79 54 6 33 -28 21 -25 -3 -63 -33 -79 -51 -77 -66 rrcurveto
          -131 -320 rmoveto
          12 47 24 45 29 40 rrcurveto
          26 -58 5 -60 -68 vvcurveto
          -8 -10 -10 -8 -12 -5 -38 14 -24 35 -4 28 rrcurveto
          endchar
        </CharString>
        <CharString name="dvG">
          -211 162 callsubr
          400 437 rmoveto
          -627 hlineto
          -92 callsubr
          149 -101 callgsubr
        </CharString>
        <CharString name="dvGA">
          174 220 186 110 callsubr
          -623 -106 callgsubr
          261 170 callsubr
          -31 -23 -18 -43 -5 -45 30 -68 66 -56 79 -22 rrcurveto
          81 91 20 58 48 hvcurveto
          51 100 36 186 138 vvcurveto
          140 hlineto
          -109 -501 -107 callgsubr
        </CharString>
        <CharString name="dvGH">
          -226 672 627 rmoveto
          -667 13 callsubr
          103 9 185 128 59 92 -61 53 rcurveline
          -59 -71 -84 -58 -97 -25 -10 15 rcurveline
          45 callgsubr
          197 hlineto
          -25 callsubr
          rrcurveto
          endchar
        </CharString>
        <CharString name="dvGHA">
          154 553 364 rmoveto
          -59 -71 -83 -57 -97 -25 -10 15 rcurveline
          45 callgsubr
          139 hlineto
          398 62 -37 callgsubr
          -7 -31 rcurveline
          -605 13 callsubr
          78 7 124 74 81 76 8 -9 -28 callsubr
        </CharString>
        <CharString name="dvGH_MA">
          637 745 182 callsubr
          -82 -27 -80 -23 -59 -11 -7 -4 -7 -4 -5 -5 -60 -43 -38 -31 -91 -26 -10 15 rcurveline
          45 callgsubr
          251 211 callgsubr
          -1472 13 callsubr
          55 6 83 40 74 52 34 -48 57 -44 56 -17 -97 callgsubr
        </CharString>
        <CharString name="dvGH_NA">
          567 660 177 86 callsubr
          -1403 13 callsubr
          54 6 81 38 74 52 40 -53 66 -34 83 142 callgsubr
          -5 -3 -5 -4 -4 -4 -62 -44 -37 -32 -93 -26 -10 15 rcurveline
          45 callgsubr
          933 -101 callgsubr
        </CharString>
        <CharString name="dvGH_R">
          -226 716 627 rmoveto
          -711 138 callsubr
          -92 -112 -172 -79 -141 -42 -29 callgsubr
          184 131 108 70 146 201 -129 93 rcurveline
          -59 -71 -84 198 callgsubr
          241 -101 callgsubr
        </CharString>
        <CharString name="dvGH_RA">
          174 559 394 rmoveto
          -59 -70 -83 198 callgsubr
          139 hlineto
          398 62 -37 callgsubr
          -7 -31 rcurveline
          -605 138 callsubr
          -75 -98 -158 -83 -172 -52 -87 callsubr
        </CharString>
        <CharString name="dvGH_YA">
          545 951 -100 callgsubr
          -691 -339 rmoveto
          45 callgsubr
          41 -61 callsubr
          -16 -98 -180 -37 -69 -45 -52 -29 -37 -23 -75 -23 rrcurveto
          1079 416 -104 callsubr
          -1003 13 callsubr
          77 21 73 38 61 41 rrcurveto
          -56 45 89 -46 58 hhcurveto
          51 135 82 82 87 hvcurveto
          13 -14 -47 -60 -24 -107 -107 callgsubr
        </CharString>
        <CharString name="dvG_BA">
          546 949 321 -57 callsubr
          -519 -84 -50 callsubr
          1157 437 -22 callsubr
          -1001 hlineto
          -92 callsubr
          531 117 callgsubr
        </CharString>
        <CharString name="dvG_BHA">
          701 746 81 callsubr
          -611 -427 -50 callsubr
          -227 437 rmoveto
          -92 callsubr
          103 hlineto
          -4 -13 -3 -15 -2 -14 27 -52 49 -45 81 -31 -60 callgsubr
        </CharString>
        <CharString name="dvG_BH_YA">
          1167 1566 -100 callgsubr
          -855 -392 -53 callsubr
          -611 -427 -50 callsubr
          1778 97 callgsubr
          -624 hlineto
          -92 callsubr
          103 hlineto
          -4 -13 -3 -15 -2 -14 27 -52 49 -45 81 -31 -41 callgsubr
        </CharString>
        <CharString name="dvG_DA">
          422 162 callsubr
          1032 437 rmoveto
          -1259 hlineto
          -92 callsubr
          314 2 callsubr
          -157 vvcurveto
          -119 121 -101 177 -13 283 callgsubr
          -92 callgsubr
        </CharString>
        <CharString name="dvG_DHA">
          628 678 174 callgsubr
          -472 -352 -50 callsubr
          1239 437 74 callgsubr
          -43 -196 263 callsubr
          57 32 rlinecurve
          178 callsubr
          -91 -11 -83 -57 -62 -66 rrcurveto
          -594 hlineto
          -92 callsubr
          82 hlineto
          -22 -32 -17 -32 -10 -26 99 callgsubr
          77 7 131 81 86 80 11 -12 rcurveline
          -47 -60 -23 -104 -107 callgsubr
        </CharString>
        <CharString name="dvG_DH_VA">
          1023 1425 322 -88 callsubr
          -725 199 -27 callgsubr
          -498 -352 -50 callsubr
          1634 437 -3 callgsubr
          -91 -11 -83 -57 -62 -66 rrcurveto
          -620 hlineto
          -92 callsubr
          108 hlineto
          -22 -32 -17 -32 -10 -26 rrcurveto
          -66 49 -49 86 -39 vhcurveto
          -12 callgsubr
        </CharString>
        <CharString name="dvG_DH_YA">
          1036 1435 -100 callgsubr
          -697 -350 rmoveto
          164 callgsubr
          -47 callsubr
          73 15 95 35 54 54 rlinecurve
          41 -61 callsubr
          -17 -106 -207 -34 -55 -51 -43 -30 -60 -30 -53 -15 rrcurveto
          -95 335 -27 callgsubr
          -491 -352 -50 callsubr
          1647 437 -104 callsubr
          -517 hlineto
          91 -10 -58 43 -55 hhcurveto
          -91 -11 -83 -57 -62 -66 rrcurveto
          -613 hlineto
          -92 callsubr
          101 hlineto
          -22 -32 -17 -32 -10 -26 99 callgsubr
          69 9 87 50 64 49 rrcurveto
          -54 46 86 -45 57 hhcurveto
          51 135 82 82 87 hvcurveto
          13 -14 -47 -60 -24 -107 -107 callgsubr
        </CharString>
        <CharString name="dvG_GA">
          659 705 186 189 callgsubr
          -497 -6 -50 callsubr
          1266 437 -104 callsubr
          -1108 hlineto
          -92 callsubr
          268 170 callsubr
          -31 -23 -18 -43 -5 -45 30 -68 66 -56 79 -22 rrcurveto
          81 91 20 58 48 hvcurveto
          51 100 36 186 138 vvcurveto
          140 hlineto
          -109 -501 -107 callgsubr
        </CharString>
        <CharString name="dvG_GHA">
          639 1038 364 rmoveto
          -59 -71 -83 -57 -97 -25 -10 15 rcurveline
          45 callgsubr
          139 hlineto
          -864 -381 -50 callsubr
          1250 437 -104 callsubr
          -1092 hlineto
          -92 callsubr
          218 hlineto
          -62 -22 -56 -27 -33 -33 -20 -72 84 -57 64 -21 52 9 39 15 38 15 8 -8 rcurveline
          -65 -51 -159 -19 -46 vvcurveto
          -69 77 -76 104 -20 vhcurveto
          78 7 124 74 81 76 8 -9 -28 callsubr
        </CharString>
        <CharString name="dvG_JA">
          682 162 callsubr
          1290 437 -104 callsubr
          -1132 hlineto
          -92 callsubr
          658 hlineto
          -28 -131 rlineto
          0 vlineto
          -23 -22 -49 -28 -34 -64 callsubr
          34 4 34 11 30 20 rlinecurve
          7 -9 -40 -58 -43 -191 -107 callsubr
          rrcurveto
          endchar
        </CharString>
        <CharString name="dvG_LA">
          660 162 callsubr
          1270 437 -104 callsubr
          -1112 hlineto
          -92 callsubr
          638 hlineto
          -23 -107 -56 -57 -67 -54 -61 -38 rlinecurve
          -10 7 70 61 -6 63 -31 42 -72 19 rlinecurve
          -34 8 -43 4 -54 -3 rrcurveto
          -125 -50 -125 -104 -97 vvcurveto
          -76 112 -132 108 -51 vhcurveto
          -93 callgsubr
        </CharString>
        <CharString name="dvG_MA">
          659 703 184 -68 callsubr
          -497 -6 -50 callsubr
          1269 437 rmoveto
          -1496 hlineto
          -92 callsubr
          267 hlineto
          36 -90 2 -29 -1 -31 -3 -30 rlinecurve
          -82 -27 -80 -23 -59 -11 rrcurveto
          -43 -23 -11 -42 -58 vvcurveto
          31 -55 65 -55 63 -19 -97 callgsubr
        </CharString>
        <CharString name="dvG_NA">
          597 690 13 callgsubr
          -776 -237 -50 callsubr
          1208 437 rmoveto
          -1435 hlineto
          -92 callsubr
          957 -101 callgsubr
        </CharString>
        <CharString name="dvG_NNA">
          703 813 12 callgsubr
          -575 -381 -50 callsubr
          1312 437 -104 callsubr
          -1154 hlineto
          -92 callsubr
          169 hlineto
          -80 -77 -32 -81 -59 vvcurveto
          -90 108 -144 103 119 181 130 147 53 -19 57 -38 64 vhcurveto
          169 hlineto
          -109 -501 -107 callgsubr
        </CharString>
        <CharString name="dvG_N_YA">
          1097 1496 -100 callgsubr
          -880 -428 0 callsubr
          -454 41 -50 callsubr
          1708 437 -104 callsubr
          -1550 hlineto
          -92 callsubr
          580 55 callgsubr
        </CharString>
        <CharString name="dvG_R">
          -210 580 258 rmoveto
          -87 -80 -171 -106 -141 -44 -29 callgsubr
          131 79 167 136 60 94 rrcurveto
          -396 37 114 callsubr
          494 377 rmoveto
          -730 -9 callsubr
          251 -101 callgsubr
        </CharString>
        <CharString name="dvG_RA">
          171 229 246 114 callsubr
          772 377 -104 callsubr
          -623 -9 callsubr
          148 hlineto
          -75 -342 -77 -65 -166 -92 -114 -38 rlinecurve
          -87 callsubr
        </CharString>
        <CharString name="dvG_R_YA">
          626 1025 -100 callgsubr
          -840 -319 114 callsubr
          1228 377 -104 callsubr
          -1079 -9 callsubr
          108 -61 callsubr
          rrcurveto
          -20 -122 -272 -27 -67 vvcurveto
          -11 2 -10 5 -11 vhcurveto
          -93 -72 -140 -81 -118 -37 -29 callgsubr
          107 65 131 102 77 87 rrcurveto
          -42 48 68 -31 47 hhcurveto
          51 135 82 82 87 hvcurveto
          13 -14 -47 -60 -24 -107 -107 callgsubr
        </CharString>
        <CharString name="dvG_SA">
          774 1190 439 rmoveto
          -53 -49 -117 -53 -45 -74 callgsubr
          205 hlineto
          -999 -381 -50 callsubr
          1385 437 -104 callsubr
          -1227 hlineto
          -92 callsubr
          143 hlineto
          -21 -48 46 -57 83 -27 rrcurveto
          31 50 58 22 43 hhcurveto
          14 13 -2 -6 10 hvcurveto
          -10 -58 -97 -72 -123 -25 100 callgsubr
          -66 callsubr
        </CharString>
        <CharString name="dvG_VA">
          523 924 322 -88 callsubr
          -710 -152 -50 callsubr
          1133 256 callgsubr
          -978 hlineto
          -92 callsubr
          508 1 callgsubr
          47 callsubr
          42 39 63 57 50 47 9 -14 rcurveline
          -49 -66 -20 -86 -107 callgsubr
        </CharString>
        <CharString name="dvG_YA">
          625 1024 -100 callgsubr
          -850 -381 -50 callsubr
          1236 437 -104 callsubr
          -1078 hlineto
          -92 callsubr
          108 -61 callsubr
          rrcurveto
          -20 -122 -272 -27 -67 vvcurveto
          156 callgsubr
          51 135 82 82 87 vhcurveto
          13 -14 -47 -60 -24 -107 -107 callgsubr
        </CharString>
        <CharString name="dvGx">
          -211 156 19 -81 callgsubr
          62 165 -50 callsubr
          400 437 rmoveto
          -627 hlineto
          -92 callsubr
          149 -101 callgsubr
        </CharString>
        <CharString name="dvGxA">
          174 156 13 82 callsubr
          64 173 110 callsubr
          -623 -106 callgsubr
          261 170 callsubr
          -31 -23 -18 -43 -5 -45 30 -68 66 -56 79 -22 rrcurveto
          81 91 20 58 48 hvcurveto
          51 100 36 186 138 vvcurveto
          140 hlineto
          -109 -501 -107 callgsubr
        </CharString>
        <CharString name="dvGx_R">
          -210 496 -18 -81 callgsubr
          84 276 rmoveto
          -87 -80 -171 -106 -141 -44 -29 callgsubr
          131 79 167 136 60 94 rrcurveto
          -396 37 114 callsubr
          494 377 rmoveto
          -730 -9 callsubr
          251 -101 callgsubr
        </CharString>
        <CharString name="dvGx_RA">
          171 496 -18 -81 callgsubr
          -267 264 114 callsubr
          772 377 -104 callsubr
          -623 -9 callsubr
          148 hlineto
          -75 -342 -77 -65 -166 -92 -114 -38 rlinecurve
          -87 callsubr
        </CharString>
        <CharString name="dvH">
          -96 157 -128 10 callsubr
          592 755 263 callgsubr
          333 -42 callgsubr
          -120 -11 -100 -80 -83 vvcurveto
          -95 115 -91 115 -27 vhcurveto
          -75 callgsubr
        </CharString>
        <CharString name="dvHA">
          -96 749 627 263 callgsubr
          333 -42 callgsubr
          -120 -11 -100 -80 -83 vvcurveto
          -95 115 -91 115 -27 vhcurveto
          -75 callgsubr
        </CharString>
        <CharString name="dvHA_mU">
          -96 300 -54 rmoveto
          -57 -72 -30 -34 -41 hvcurveto
          -39 35 -33 61 -15 vhcurveto
          18 21 12 15 25 11 2 -1 2 -2 2 -1 -12 -38 -30 -36 -63 -21 -67 35 -29 68 -17 67 -67 19 -59 -36 -30 -74 rrcurveto
          -73 39 135 -82 86 hhcurveto
          108 166 95 71 56 -97 57 -50 hvcurveto
          449 21 callgsubr
        </CharString>
        <CharString name="dvHA_mUU">
          -96 161 -54 rmoveto
          -92 -85 -88 -50 -37 34 -60 60 -43 hvcurveto
          98 24 35 34 -3 52 -20 19 -29 22 -17 27 3 3 4 3 3 3 93 -42 59 -46 62 -99 93 20 47 54 -13 50 rrcurveto
          82 -61 -162 72 -109 hhcurveto
          588 21 callgsubr
        </CharString>
        <CharString name="dvHA_mvR">
          -80 745 627 rmoveto
          -742 -106 callgsubr
          366 -42 callgsubr
          -166 -44 -95 -115 -111 vvcurveto
          -112 165 -152 148 -31 vhcurveto
          115 1 100 25 95 48 21 72 -44 40 -57 5 -63 -53 -77 -19 -69 -12 -73 23 -102 82 -1 83 22 116 48 48 111 47 30 -7 14 -5 26 -13 -3 -9 rcurveline
          -70 -28 -96 -92 -2 -65 rrcurveto
          -40 -1 66 -54 71 hhcurveto
          83 85 30 39 52 hvcurveto
          4 61 -30 33 -52 -5 -27 -36 -42 -34 -80 -14 -8 10 rcurveline
          23 52 46 57 74 26 38 46 2 26 -10 35 -45 41 -53 23 -109 31 24 callsubr
          214 hlineto
          -25 callsubr
          rrcurveto
          endchar
        </CharString>
        <CharString name="dvH_LA">
          57 898 627 77 callgsubr
          71 4 117 -33 53 -56 -1 -13 rcurveline
          -33 -33 -38 -29 -35 -17 -3 3 rcurveline
          16 13 15 12 15 13 -4 39 -19 29 -44 13 -21 5 -28 3 -34 -2 -82 -32 -83 -67 -3 -63 -3 -48 68 -85 67 -32 82 14 28 58 -21 32 -54 20 -22 22 -14 32 rrcurveto
          29 4 36 41 15 hhcurveto
          17 11 -12 -13 5 hvcurveto
          -14 -7 -13 -6 -14 -7 -9 -33 30 -40 75 -13 33 26 31 26 29 26 -10 -40 -15 -41 -19 -38 145 callgsubr
        </CharString>
        <CharString name="dvH_MA">
          238 626 354 rmoveto
          -42 -30 -61 -40 -64 -38 -29 38 -55 24 -90 13 24 callsubr
          162 hlineto
          -334 -558 rmoveto
          -21 10 -20 34 -14 30 27 14 28 15 27 16 5 -39 -8 -44 -16 -32 rrcurveto
          733 616 rmoveto
          -174 -102 callgsubr
          -683 -106 callgsubr
          363 -42 callgsubr
          -158 -26 -100 -125 -93 vvcurveto
          -118 136 -127 171 -36 vhcurveto
          141 151 76 57 54 hvcurveto
          58 -44 40 -57 5 vhcurveto
          -41 -57 -112 -66 -71 -8 -87 30 -61 74 -14 72 16 107 49 50 114 22 16 -4 12 -10 9 -12 -43 -23 -41 -20 -34 -13 rrcurveto
          -29 -12 -20 -39 -45 vvcurveto
          22 -42 57 -50 55 -15 53 5 37 11 42 35 34 97 16 73 -12 54 52 33 50 34 42 29 9 -8 rcurveline
          -72 -221 -106 callsubr
          152 -101 callgsubr
        </CharString>
        <CharString name="dvH_NA">
          -62 298 -40 rmoveto
          -27 9 -15 17 -14 24 19 8 19 7 19 7 8 -22 2 -24 -5 -22 rrcurveto
          475 663 rmoveto
          -747 -106 callgsubr
          337 197 callgsubr
          -44 -89 -108 -128 vvcurveto
          -106 118 -168 165 -45 vhcurveto
          119 -3 117 31 91 73 7 58 -47 40 -61 5 -51 -58 -74 -38 -86 -7 -90 35 -50 109 -8 74 14 77 38 94 118 50 rrcurveto
          74 63 -27 -32 32 hvcurveto
          -68 -27 -80 -29 -108 -23 -24 -21 -18 -29 -3 -34 25 -56 35 -21 61 -16 76 10 21 16 19 30 11 38 2 40 -10 36 23 9 24 8 23 10 -2 -45 -15 -52 -29 -40 rrcurveto
          10 -44 67 -14 62 20 28 68 23 119 -24 77 -27 69 -180 60 -87 8 24 callsubr
          248 -101 callgsubr
        </CharString>
        <CharString name="dvH_NNA">
          57 414 179 rmoveto
          11 -39 6 -32 4 -38 -21 -51 -23 -23 -30 -13 rrcurveto
          -16 13 -8 23 33 vvcurveto
          15 46 24 40 31 41 rrcurveto
          491 448 77 callgsubr
          rrcurveto
          8 9 0 9 hhcurveto
          -80 -44 -51 -76 -5 -50 rrcurveto
          -55 -4 57 -87 63 hhcurveto
          72 112 79 89 8 hvcurveto
          2 34 -15 37 -12 35 27 -13 24 -16 17 -18 -3 -65 -21 -81 -35 -69 145 callgsubr
        </CharString>
        <CharString name="dvH_R">
          -96 159 -240 7 callsubr
          590 867 263 callgsubr
          337 -42 callgsubr
          -144 -26 -116 -89 -115 vvcurveto
          -111 126 -104 112 -37 vhcurveto
          133 -9 97 30 85 45 17 73 -41 40 -49 4 -60 -55 -60 -23 -80 -6 -84 30 -33 49 -5 74 30 89 45 52 105 30 32 -2 30 -9 23 -15 -61 -37 -75 -38 -62 -20 rrcurveto
          -19 -45 26 -39 62 -18 52 32 58 42 46 40 -3 -14 -7 -17 -10 -19 10 -44 63 -14 58 20 21 69 9 58 -30 79 -36 53 -116 30 -85 16 24 callsubr
          218 -101 callgsubr
        </CharString>
        <CharString name="dvH_RA">
          -96 749 627 263 callgsubr
          337 -42 callgsubr
          -144 -26 -116 -81 -143 vvcurveto
          -113 140 -135 125 -28 vhcurveto
          127 -9 125 59 84 69 rrcurveto
          58 -44 40 -57 5 vhcurveto
          -63 -81 -74 -32 -77 -2 -67 29 -54 65 -7 75 12 81 49 73 119 37 32 -2 30 -9 23 -15 -65 -40 -81 -41 -63 -21 -19 -45 26 -39 62 -18 53 33 65 47 50 42 rrcurveto
          -3 -17 -7 -19 -12 -22 10 -44 63 -14 58 20 21 69 10 65 -30 79 -36 53 -116 30 -85 16 24 callsubr
          218 -101 callgsubr
        </CharString>
        <CharString name="dvH_VA">
          -77 442 27 rmoveto
          -32 -28 -42 -33 -31 -23 rrcurveto
          -14 10 -7 15 17 vvcurveto
          36 29 45 48 23 vhcurveto
          25 -19 8 -12 19 -21 rrcurveto
          319 590 rmoveto
          -732 -106 callgsubr
          337 197 callgsubr
          -44 -109 -128 -128 vvcurveto
          -106 119 -143 165 -56 vhcurveto
          121 2 78 16 96 55 -3 72 -22 31 -53 7 -49 -47 -47 -21 -106 -14 -90 46 -51 84 -8 74 8 88 45 96 137 61 78 -2 74 -29 29 -36 -1 -16 -2 -18 -4 -19 rrcurveto
          -29 34 -37 37 -11 -1 rrcurveto
          -109 -110 -96 -91 -71 71 -43 98 hvcurveto
          28 26 24 22 23 21 5 -40 69 -15 65 20 34 73 29 129 -26 82 -40 76 -175 54 -79 7 24 callsubr
          233 hlineto
          -25 callsubr
          rrcurveto
          endchar
        </CharString>
        <CharString name="dvH_YA">
          247 621 249 rmoveto
          -61 -82 -98 -85 -44 -22 -18 2 -32 18 7 26 52 24 49 39 13 48 -55 78 -60 10 -85 16 24 callsubr
          176 hlineto
          398 -79 callgsubr
          -700 -106 callgsubr
          366 -42 callgsubr
          -144 -26 -117 -98 -126 vvcurveto
          -118 195 -139 138 -18 vhcurveto
          132 5 145 75 74 58 rrcurveto
          58 -44 40 -57 5 vhcurveto
          -54 -63 -92 -58 -83 -13 -61 18 -122 64 -13 86 12 118 78 45 91 28 18 -2 17 -10 13 -10 rrcurveto
          -30 -55 -121 -13 -50 vvcurveto
          -57 87 -65 77 63 103 98 98 80 vhcurveto
          14 -11 -29 -48 -14 -24 -107 callgsubr
        </CharString>
        <CharString name="dvI">
          -107 734 627 -38 callsubr
        </CharString>
        <CharString name="dvII">
          -107 409 839 233 callsubr
          -54 -33 -81 209 callgsubr
          -19 52 -13 41 -4 61 rrcurveto
          339 -203 -38 callsubr
        </CharString>
        <CharString name="dvII_Anusvara">
          -107 440 870 233 callsubr
          -66 -33 -81 209 callgsubr
          -21 63 -13 40 -2 62 rrcurveto
          70 -147 rmoveto
          -27 23 -23 29 239 callsubr
          vhcurveto
          238 -86 -38 callsubr
        </CharString>
        <CharString name="dvJ">
          -186 736 565 rmoveto
          -27 callsubr
          -750 -106 callgsubr
          188 -32 rmoveto
          212 callgsubr
          7 62 31 33 58 rlinecurve
          -53 51 rlineto
          -83 callgsubr
          endchar
        </CharString>
        <CharString name="dvJA">
          197 1035 -14 callgsubr
          -647 -106 callgsubr
          651 hlineto
          -28 -131 rlineto
          0 vlineto
          -23 -22 -49 -28 -34 -64 callsubr
          34 4 34 11 30 20 rlinecurve
          7 -9 -40 -58 -43 -191 -107 callsubr
          rrcurveto
          endchar
        </CharString>
        <CharString name="dvJH">
          -103 700 466 rmoveto
          -83 -72 -121 -59 -98 -38 -55 6 -54 8 -41 11 25 callgsubr
          219 4 callsubr
          -735 -106 callgsubr
          342 hlineto
          32 -12 29 -12 19 -12 callsubr
          28 51 14 40 32 vvcurveto
          29 -11 21 -20 16 vhcurveto
          76 32 83 40 66 50 rrcurveto
          endchar
        </CharString>
        <CharString name="dvJHA">
          278 698 465 rmoveto
          -83 -72 -120 -58 -97 -38 -55 6 -54 8 -41 11 25 callgsubr
          218 hlineto
          398 -79 callgsubr
          140 callsubr
          342 hlineto
          32 -12 29 -12 19 -16 -5 -10 rcurveline
          -64 -17 -66 -8 -92 -5 -95 -58 -36 -94 41 -59 97 -21 85 -12 91 -19 -4 callsubr
        </CharString>
        <CharString name="dvJH_MA">
          774 883 182 callsubr
          -82 -27 -80 -23 -59 -11 -1 -1 rcurveline
          -82 -15 -85 -7 -80 -7 -43 4 -82 14 -39 10 25 callgsubr
          345 211 callgsubr
          -1612 -106 callgsubr
          342 hlineto
          32 -12 29 -12 19 212 callsubr
          96 -20 85 -11 92 -21 25 callsubr
          37 66 12 47 -11 35 -4 6 rcurveline
          20 1 24 2 27 4 rrcurveto
          -2 -14 -1 -16 -16 vvcurveto
          31 -55 65 -55 63 -19 -97 callgsubr
        </CharString>
        <CharString name="dvJH_NA">
          734 827 177 86 callsubr
          -1572 -106 callgsubr
          342 hlineto
          32 -12 29 -12 19 212 callsubr
          96 -20 85 -11 92 -21 25 callsubr
          35 62 12 45 -7 34 -2 7 rcurveline
          34 3 33 3 32 5 -3 -20 0 -21 4 -23 40 -54 67 -35 84 -78 callsubr
          -123 -61 -206 -84 -128 -39 -77 -19 -101 -14 -97 -4 -43 4 -103 15 -39 10 25 callgsubr
          1056 -101 callgsubr
        </CharString>
        <CharString name="dvJH_R">
          -103 203 96 rmoveto
          223 callgsubr
          78 32 87 41 68 52 -40 69 rcurveline
          -78 -68 -113 -56 -95 -39 214 callgsubr
          219 4 callsubr
          -735 98 callgsubr
          rrcurveto
          488 179 rmoveto
          -97 -118 -120 -68 -128 -41 -29 callgsubr
          108 64 91 89 114 149 rrcurveto
          endchar
        </CharString>
        <CharString name="dvJH_RA">
          278 701 476 rmoveto
          -77 -60 -101 -50 -86 -35 214 callgsubr
          218 hlineto
          398 -79 callgsubr
          -730 98 callgsubr
          10 8 rcurveline
          223 callgsubr
          57 23 61 28 56 34 9 -11 rcurveline
          -47 -56 -20 -95 -74 -74 -119 -71 -117 215 callsubr
          100 62 86 76 48 70 76 callsubr
          82 -53 118 -10 40 40 -49 callgsubr
        </CharString>
        <CharString name="dvJH_YA">
          723 1122 -100 callgsubr
          -912 -224 rmoveto
          -59 callsubr
          168 -61 callsubr
          -9 -56 -63 -36 -64 -29 -95 -36 -184 -24 -91 10 -57 8 -63 10 -40 9 rrcurveto
          1316 305 -104 callsubr
          -1176 -106 callgsubr
          342 hlineto
          32 -12 29 -12 19 -12 callsubr
          28 51 14 40 32 vvcurveto
          -1 7 0 6 -1 7 19 1 28 2 32 4 rrcurveto
          -76 14 129 -79 76 hhcurveto
          51 135 82 82 87 hvcurveto
          13 -14 -47 -60 -24 -107 -107 callgsubr
        </CharString>
        <CharString name="dvJ_BA">
          582 985 321 -57 callsubr
          650 359 -22 callsubr
          -1037 -106 callgsubr
          1045 130 callgsubr
          163 callsubr
          -84 -86 -39 -57 -62 hvcurveto
          -27 -37 -55 109 callgsubr
          19 4 18 5 17 7 rlinecurve
          262 callgsubr
          -15 vvcurveto
          -119 113 -65 144 vhcurveto
          67 65 66 61 38 289 callsubr
          -57 -76 -54 callsubr
        </CharString>
        <CharString name="dvJ_DA">
          476 1315 627 rmoveto
          -1312 -106 callgsubr
          845 hlineto
          36 -19 31 -24 18 -17 -5 -10 rcurveline
          -73 -64 -105 -19 -78 -32 rrcurveto
          0 -1 vlineto
          -5 -3 -6 -2 -5 -2 rrcurveto
          -16 -42 -53 -4 109 callsubr
          12 1 14 2 15 4 rlinecurve
          -4 0 -4 -4 vvcurveto
          -119 121 -101 177 -13 283 callgsubr
          -92 callgsubr
        </CharString>
        <CharString name="dvJ_DDA">
          406 1245 627 rmoveto
          -1242 -106 callgsubr
          844 121 callgsubr
          -22 -13 -19 -16 -15 -16 rrcurveto
          -23 -25 -59 -34 109 callsubr
          21 2 26 7 25 12 rlinecurve
          3 -12 5 -12 7 -10 97 -21 85 -12 91 -19 -86 callgsubr
        </CharString>
        <CharString name="dvJ_JA">
          744 1582 -14 callgsubr
          -1194 -106 callgsubr
          1198 hlineto
          -28 -131 rlineto
          0 vlineto
          -23 -22 -49 -28 -34 hhcurveto
          -14 -45 callsubr
          34 4 34 11 30 20 rlinecurve
          7 -9 -40 -58 -43 -191 -107 callsubr
          rrcurveto
          endchar
        </CharString>
        <CharString name="dvJ_JHA">
          768 1188 465 rmoveto
          -83 -72 -120 -58 -97 -38 -55 6 -54 8 -41 11 25 callgsubr
          218 hlineto
          398 -79 callgsubr
          -1220 -106 callgsubr
          832 121 callgsubr
          -25 -15 -20 -18 -17 -18 rrcurveto
          0 vlineto
          -23 -22 -49 -28 -34 -64 callsubr
          21 2 21 6 20 8 rlinecurve
          2 -10 5 -10 6 -9 97 -21 85 -12 91 -19 -4 callsubr
        </CharString>
        <CharString name="dvJ_J_NYA">
          639 1480 -14 callgsubr
          -1092 -106 callgsubr
          1096 hlineto
          -6 -29 -33 -31 -58 -40 -48 -17 rlinecurve
          276 callsubr
          -18 -8 -15 -11 -11 -12 rrcurveto
          -42 -44 -73 -43 -55 -64 callsubr
          61 10 64 31 48 37 rlinecurve
          55 14 45 42 callgsubr
          53 22 54 42 44 38 13 -14 rcurveline
          -53 -61 -73 -334 -107 callgsubr
        </CharString>
        <CharString name="dvJ_J_VA">
          1103 1505 322 38 callgsubr
          -1559 -106 callgsubr
          1567 1 callgsubr
          -81 -81 -37 -53 -61 hvcurveto
          -28 -36 -56 -24 -38 hhcurveto
          -24 -45 callsubr
          18 4 16 4 16 6 rlinecurve
          -5 -16 -2 -16 -16 282 callgsubr
          42 39 63 57 50 47 9 -14 rcurveline
          -49 -66 -20 -86 -107 callgsubr
        </CharString>
        <CharString name="dvJ_J_YA">
          1192 1591 -100 callgsubr
          398 -79 callgsubr
          -1645 -106 callgsubr
          1153 103 callsubr
          -26 -18 -24 -22 -21 -25 rrcurveto
          -32 -35 -52 -23 -33 -64 callsubr
          13 1 13 2 13 4 rlinecurve
          -1 -6 -2 -6 -1 -6 -44 callgsubr
          49 -21 16 -5 17 -3 16 -1 rlinecurve
          -72 24 120 -72 72 hhcurveto
          51 135 82 82 87 hvcurveto
          13 -14 -47 -60 -24 -107 -107 callgsubr
        </CharString>
        <CharString name="dvJ_KA">
          849 965 158 callsubr
          -1017 -106 callgsubr
          1025 130 callgsubr
          -51 callsubr
          -83 -84 -39 -55 -61 hvcurveto
          -28 -37 -58 -20 -46 -64 callsubr
          16 2 19 4 19 5 rlinecurve
          -3 -13 -2 -13 -13 -71 callgsubr
        </CharString>
        <CharString name="dvJ_MA">
          726 770 184 -68 callsubr
          784 437 rmoveto
          -1563 -106 callgsubr
          812 hlineto
          36 -90 129 callsubr
          rlinecurve
          -67 -22 -66 -19 -53 -13 -50 -8 -48 7 -48 15 126 callgsubr
          -7 36 rcurveline
          5 6 44 -10 12 -1 14 -1 14 1 rlinecurve
          -2 -13 -1 -14 -16 vvcurveto
          31 -55 65 -55 63 -19 -97 callgsubr
        </CharString>
        <CharString name="dvJ_NA">
          665 758 177 -59 callgsubr
          -299 66 rmoveto
          5 6 44 -10 15 -2 18 0 19 2 rlinecurve
          -3 -19 0 -22 4 -23 40 -54 67 -35 84 -78 callsubr
          -122 -60 -205 -84 -128 -39 -48 -7 -47 7 -46 14 126 callgsubr
          rrcurveto
          1028 414 rmoveto
          -1503 -106 callgsubr
          1503 -101 callgsubr
        </CharString>
        <CharString name="dvJ_NY">
          -230 677 565 rmoveto
          -27 callsubr
          -691 -106 callgsubr
          248 -366 rmoveto
          93 11 103 54 56 vvcurveto
          25 -19 18 -24 12 vhcurveto
          4 7 rlineto
          -5 17 20 -6 18 hhcurveto
          62 26 65 53 47 44 -33 42 rcurveline
          -32 -31 -59 -40 -48 -17 276 callsubr
          -62 -26 -26 -65 46 -43 rrcurveto
          55 14 46 -18 -32 vvcurveto
          -31 -33 -33 -79 -18 vhcurveto
          -10 13 -10 11 -11 13 rrcurveto
          -55 -53 -66 -60 -3 hvcurveto
          50 -75 139 -66 116 -17 71 29 36 81 -48 39 -82 4 -44 16 -42 25 rrcurveto
          endchar
        </CharString>
        <CharString name="dvJ_NYA">
          150 991 -14 callgsubr
          -603 -106 callgsubr
          607 hlineto
          -6 -29 -33 -31 -58 -40 -48 -17 rlinecurve
          276 callsubr
          -62 -26 -26 -65 46 -43 rrcurveto
          55 14 46 42 callgsubr
          53 22 54 42 44 38 13 -14 rcurveline
          -53 -61 -73 -334 -107 callgsubr
        </CharString>
        <CharString name="dvJ_NY_YA">
          564 963 -100 callgsubr
          398 -79 callgsubr
          -1017 -106 callgsubr
          525 hlineto
          -9 -25 7 -26 21 -23 -26 -18 -30 -16 -26 -9 276 callsubr
          -62 -26 -26 -65 46 -43 rrcurveto
          55 14 46 42 callgsubr
          45 19 47 34 41 33 14 -7 17 -5 18 -5 19 10 22 9 22 6 21 5 22 1 21 -5 rrcurveto
          -20 -122 -272 -27 -67 vvcurveto
          156 callgsubr
          51 135 82 82 87 vhcurveto
          13 -14 -47 -60 -24 -107 -107 callgsubr
        </CharString>
        <CharString name="dvJ_R">
          -186 472 296 rmoveto
          266 callgsubr
          -81 -161 -175 -85 -160 -59 rlinecurve
          -29 callgsubr
          170 109 127 96 158 224 -132 125 rcurveline
          -1 callsubr
          rrcurveto
          288 375 rmoveto
          -761 -106 callgsubr
          761 -101 callgsubr
        </CharString>
        <CharString name="dvJ_RA">
          194 1035 -14 callgsubr
          -647 -106 callgsubr
          651 hlineto
          -23 -111 rlineto
          0 vlineto
          -1 callsubr
          -4 44 rcurveline
          266 callgsubr
          -10 -26 -14 -24 -16 -22 rlinecurve
          -19 -27 -24 -24 -26 -21 -84 -71 -114 -47 -109 -43 -87 callsubr
        </CharString>
        <CharString name="dvJ_TA">
          577 1417 -14 callgsubr
          -1029 -106 callgsubr
          1033 hlineto
          -18 -80 -91 -55 -142 -27 -119 3 rlinecurve
          -9 -4 -9 -5 -7 -6 rrcurveto
          -22 -32 -56 -16 -32 -64 callsubr
          17 2 19 5 18 6 rlinecurve
          -2 -7 -2 -8 -2 -8 15 -69 86 -115 106 -63 57 23 29 31 -5 39 -47 46 -29 55 -15 58 2 14 6 13 8 10 66 19 78 32 84 48 8 -14 rcurveline
          -37 -52 142 callsubr
        </CharString>
        <CharString name="dvJ_TTA">
          461 1302 627 rmoveto
          -1299 -106 callgsubr
          840 44 callgsubr
          -9 -8 rcurveline
          -27 -33 -52 -25 -37 hhcurveto
          -21 116 callsubr
          13 2 14 3 16 6 rlinecurve
          -3 -14 -1 -15 -14 vvcurveto
          -93 callsubr
        </CharString>
        <CharString name="dvJ_VA">
          557 958 322 38 callgsubr
          -1012 -106 callgsubr
          1020 1 callgsubr
          -81 -81 -37 -53 -61 hvcurveto
          -28 -36 -56 109 callgsubr
          18 4 16 4 16 6 rlinecurve
          -5 -16 -2 -16 -16 282 callgsubr
          42 39 63 57 50 47 9 -14 rcurveline
          -49 -66 -20 -86 -107 callgsubr
        </CharString>
        <CharString name="dvJ_YA">
          671 1070 -100 callgsubr
          398 -79 callgsubr
          -1124 -106 callgsubr
          632 103 callsubr
          -81 -56 -59 -96 -14 -75 -24 callgsubr
          -7 36 rcurveline
          5 6 49 -21 16 -5 17 -3 16 -1 rlinecurve
          -72 24 120 -72 72 hhcurveto
          51 135 82 82 87 hvcurveto
          13 -14 -47 -60 -24 -107 -107 callgsubr
        </CharString>
        <CharString name="dvJx">
          -186 736 565 rmoveto
          -27 callsubr
          -750 -106 callgsubr
          188 -32 rmoveto
          212 callgsubr
          7 62 31 33 58 rlinecurve
          -53 51 rlineto
          -83 callgsubr
          35 -673 rmoveto
          44 36 36 44 44 -36 36 -44 -46 -36 -36 -44 -44 36 -36 46 hvcurveto
          endchar
        </CharString>
        <CharString name="dvJxA">
          197 207 14 82 callsubr
          828 613 -104 callsubr
          -647 -106 callgsubr
          651 hlineto
          -28 -131 rlineto
          0 vlineto
          -23 -22 -49 -28 -34 -64 callsubr
          34 4 34 11 30 20 rlinecurve
          7 -9 -40 -58 -43 -191 -107 callsubr
          rrcurveto
          endchar
        </CharString>
        <CharString name="dvJx_JxA">
          741 209 20 -81 callgsubr
          547 hmoveto
          -46 -36 -36 -44 -44 36 -36 46 44 36 36 44 44 -36 36 -44 hvcurveto
          826 254 callsubr
          -1194 -106 callgsubr
          1198 hlineto
          -28 -131 rlineto
          0 vlineto
          -23 -22 -49 -28 -34 hhcurveto
          -14 -45 callsubr
          34 4 34 11 30 20 rlinecurve
          7 -9 -40 -58 -43 -191 -107 callsubr
          rrcurveto
          endchar
        </CharString>
        <CharString name="dvJx_R">
          -186 69 20 -81 callgsubr
          403 276 rmoveto
          266 callgsubr
          -81 -161 -175 -85 -160 -59 rlinecurve
          -29 callgsubr
          170 109 127 96 158 224 -132 125 rcurveline
          -1 callsubr
          rrcurveto
          288 375 rmoveto
          -761 -106 callgsubr
          761 -101 callgsubr
        </CharString>
        <CharString name="dvJx_RA">
          194 69 20 -81 callgsubr
          966 254 callsubr
          -647 -106 callgsubr
          651 hlineto
          -23 -111 rlineto
          0 vlineto
          -1 callsubr
          -4 44 rcurveline
          266 callgsubr
          -10 -26 -14 -24 -16 -22 rlinecurve
          -19 -27 -24 -24 -26 -21 -84 -71 -114 -47 -109 -43 -87 callsubr
        </CharString>
        <CharString name="dvJx_YA">
          671 210 20 -81 callgsubr
          860 344 rmoveto
          -59 -66 113 callsubr
          -24 2 -41 23 9 34 rrcurveto
          96 54 111 87 75 vvcurveto
          20 -13 24 -22 21 vhcurveto
          117 hlineto
          398 -79 callgsubr
          -1124 -106 callgsubr
          632 103 callsubr
          -81 -56 -59 -96 -14 -75 -24 callgsubr
          -7 36 rcurveline
          5 6 49 -21 16 -5 17 -3 16 -1 rlinecurve
          -72 24 120 -72 72 hhcurveto
          51 135 82 82 87 hvcurveto
          13 -14 -47 -60 -24 -107 -107 callgsubr
        </CharString>
</ttFont>
